<svg id="Calque_1" data-name="Calque 1" xmlns="http://www.w3.org/2000/svg" viewBox="0 0 195.84 266.4"><defs><style>.cls-1{fill:#fd86a0;}.cls-2,.cls-3{fill:none;stroke-miterlimit:10;}.cls-2{stroke:#000;stroke-width:0.75px;}.cls-3{stroke:#241f20;stroke-width:0.5px;}.cls-4{font-size:26.4px;}.cls-4,.cls-5{fill:#241f20;font-family:DINCondensed-Bold, DIN Condensed;font-weight:700;}.cls-5{font-size:26.4px;}</style></defs><title>Plan de travail 4</title><path class="cls-1" d="M39.83,8.23c5.78,0,34.77,26.63,50.75,24.3,33.55-4.9,57.58,2.33,61.78,23.34,4,20.11,24.63,18.58,29.75,39.5s5.12,30.13,5.12,30.13V8.23H45.61"/><path class="cls-1" d="M156,258.17c-5.78,0-34.77-26.63-50.75-24.3-33.55,4.9-57.58-2.33-61.78-23.34-4-20.11-24.63-18.58-29.75-39.5S8.61,140.9,8.61,140.9V258.17H150.23"/><path class="cls-1" d="M78.53,153.82c-11.95-7.38-3.59-8.11-14-19.84-8.56-9.68-14.18-18.61-11-26.75,7.54-19.5,21.56-10.54,35.23-23.94,11.78-11.54,34.84-4.15,39.51,9.17s7.82,6.75,17.46,19.3c11.15,14.53-13,30.93-24.48,30.77S104.19,154,96.81,155.38C84.26,157.64,78.53,153.82,78.53,153.82Z"/><path class="cls-2" d="M108.85,158.76,79.77,129.68q-10.16-10.16-20.33-20.31a2.1,2.1,0,0,1-.58-2.48c2.39-7,4.71-14.1,7.09-21.14a1.22,1.22,0,0,0-.37-1.48c-2.13-2.09-4.23-4.21-6.34-6.32a1.48,1.48,0,0,1-.49-1.83,1.38,1.38,0,0,1,2.33-.29c1.37,1.34,2.72,2.7,4.07,4.06.75.75,1.53,1.49,2.25,2.27a1,1,0,0,0,1.21.28C76,80,83.33,77.56,90.68,75.08a2.12,2.12,0,0,1,2.48.58q24.3,24.35,48.64,48.66c.3.3.59.62.88.94v1c-.34.38-.67.79-1,1.15l-30.54,30.55c-.27.27-.52.55-.78.82ZM68.36,87.36c-.06.17-.16.42-.24.67-2.06,6.17-4.1,12.34-6.19,18.5a1.47,1.47,0,0,0,.41,1.78q23.31,23.26,46.58,46.56a3.09,3.09,0,0,1,.42.64l29.85-29.85-.38-.41Q115.33,101.8,91.88,78.33A1,1,0,0,0,90.67,78c-5.13,1.73-10.26,3.43-15.4,5.14l-5,1.67,5.59,5.54a7,7,0,1,1,0,11.85c-3.2-2.06-3.94-5.46-2.2-9.6Zm7.58,7.19a4,4,0,0,0,1.16,5.16,4.36,4.36,0,0,0,5.62-.54,4.21,4.21,0,0,0,.07-5.56,3.93,3.93,0,0,0-5-.87,11.53,11.53,0,0,1,.93.73c.65.63,1.3,1.26,1.9,1.93a1.36,1.36,0,0,1-.06,1.92,1.39,1.39,0,0,1-1.87.06A7.45,7.45,0,0,1,78,96.7Z"/><path class="cls-2" d="M97.82,117.83l3.76-3.74,21.63,21.64-3.75,3.75Z"/><path class="cls-2" d="M103.79,111.86l3.71-3.72,21.66,21.66-3.71,3.71Z"/><path class="cls-2" d="M109.55,149.4,88,127.83l3.76-3.75,21.57,21.58Z"/><path class="cls-2" d="M117.3,141.72l-1.8,1.76L93.82,121.81l1.86-1.71Z"/><path class="cls-2" d="M133.24,125.88l-1.76,1.67-21.71-21.71,1.74-1.69Z"/><path class="cls-3" d="M62.09,172.36c0,2.27,1.13,4.11,3.61,4.11a3.28,3.28,0,0,0,2.41-.91v.34a3.61,3.61,0,0,1-2.41.82c-2.62,0-3.89-2-3.89-4.35S63.19,168,65.7,168a3.67,3.67,0,0,1,2.41.8v.34a3.33,3.33,0,0,0-2.41-.91C63.32,168.23,62.09,170.09,62.09,172.36Z"/><path class="cls-3" d="M77.29,172.36c0,2.4-1.38,4.35-3.89,4.35s-3.88-2-3.88-4.35S70.9,168,73.41,168,77.29,170,77.29,172.36Zm-.28,0c0-2.27-1.24-4.13-3.61-4.13s-3.6,1.86-3.6,4.13,1.22,4.11,3.6,4.11S77,174.63,77,172.36Z"/><path class="cls-3" d="M86,172.36c0,2.74-1.64,4.2-4.43,4.2H79.43v-8.4h2.15C84.36,168.16,86,169.61,86,172.36Zm-.28,0c0-2.6-1.5-4-4.15-4H79.67v7.93h1.91C84.23,176.32,85.73,175,85.73,172.36Z"/><path class="cls-3" d="M93.08,176.32v.24H88.15v-8.4H93v.23H88.39v3.82H92.8v.23H88.39v3.89Z"/><path class="cls-3" d="M104,170.65c0,1.55-1,2.5-2.77,2.5H98.64v3.41h-.24v-8.4h2.83C103,168.16,104,169.1,104,170.65Zm-.29,0a2.17,2.17,0,0,0-2.48-2.27H98.64v4.52h2.59C102.85,172.91,103.71,172,103.71,170.65Z"/><path class="cls-3" d="M111.69,176.56l-2.6-3.42h-2.83v3.41H106v-8.4h2.83c1.75,0,2.77.94,2.77,2.5a2.32,2.32,0,0,1-2.25,2.46l2.63,3.44Zm-2.84-3.65c1.62,0,2.5-.86,2.5-2.26s-.88-2.27-2.5-2.27h-2.59v4.52Z"/><path class="cls-3" d="M121.29,172.36c0,2.4-1.38,4.35-3.89,4.35s-3.87-2-3.87-4.35,1.37-4.35,3.87-4.35S121.29,170,121.29,172.36Zm-.28,0c0-2.27-1.24-4.13-3.61-4.13s-3.6,1.86-3.6,4.13,1.22,4.11,3.6,4.11S121,174.63,121,172.36Z"/><path class="cls-3" d="M131.42,168.16v8.4h-.24v-8l-3.72,5.73h-.07l-3.72-5.73v8h-.24v-8.4h.24l3.76,5.78,3.76-5.78Z"/><path class="cls-3" d="M141.32,172.36c0,2.4-1.38,4.35-3.89,4.35s-3.87-2-3.87-4.35,1.37-4.35,3.87-4.35S141.32,170,141.32,172.36Zm-.28,0c0-2.27-1.24-4.13-3.61-4.13s-3.6,1.86-3.6,4.13,1.22,4.11,3.6,4.11S141,174.63,141,172.36Z"/><text class="cls-4" transform="translate(24.73 44.34) scale(0.95 1)">01</text><text class="cls-5" transform="translate(40.7 223.47) rotate(180) scale(0.91 1)">01</text><text class="cls-4" transform="translate(153.95 44.43) scale(0.95 1)">01</text><text class="cls-5" transform="translate(169.92 223.56) rotate(180) scale(0.91 1)">01</text></svg>