<svg id="Calque_1" data-name="Calque 1" xmlns="http://www.w3.org/2000/svg" viewBox="0 0 195.84 266.4"><defs><style>.cls-1{fill:#fafaaa;}.cls-2{font-size:26.4px;}.cls-2,.cls-3{fill:#241f20;font-family:DINCondensed-Bold, DIN Condensed;font-weight:700;}.cls-3{font-size:26.4px;}.cls-4,.cls-5{fill:none;stroke-miterlimit:10;}.cls-4{stroke:#000;stroke-width:0.75px;}.cls-5{stroke:#241f20;stroke-width:0.5px;}</style></defs><title>Plan de travail 7</title><path class="cls-1" d="M39.83,8.23c5.78,0,34.77,26.63,50.75,24.3,33.55-4.9,57.58,2.33,61.78,23.34,4,20.11,24.63,18.58,29.75,39.5s5.12,30.13,5.12,30.13V8.23H45.61"/><path class="cls-1" d="M156,258.17c-5.78,0-34.77-26.63-50.75-24.3-33.55,4.9-57.58-2.33-61.78-23.34-4-20.11-24.63-18.58-29.75-39.5S8.61,140.9,8.61,140.9V258.17H150.23"/><path class="cls-1" d="M78.53,153.82c-11.95-7.38-3.59-8.11-14-19.84-8.56-9.68-14.18-18.61-11-26.75,7.54-19.5,21.56-10.54,35.23-23.94,11.78-11.54,34.84-4.15,39.51,9.17s7.82,6.75,17.46,19.3c11.15,14.53-13,30.93-24.48,30.77S104.19,154,96.81,155.38C84.26,157.64,78.53,153.82,78.53,153.82Z"/><text class="cls-2" transform="translate(24.73 44.34) scale(0.95 1)">02</text><text class="cls-3" transform="translate(40.7 223.47) rotate(180) scale(0.91 1)">02</text><text class="cls-2" transform="translate(153.95 44.43) scale(0.95 1)">02</text><text class="cls-3" transform="translate(169.92 223.56) rotate(180) scale(0.91 1)">02</text><path class="cls-4" d="M81.64,157.57a3.19,3.19,0,0,1-2.23-3.47c.06-4.2,0-8.4,0-12.6,0-2.28,1-3.3,3.28-3.3h35.84c2.26,0,3.28,1,3.29,3.3,0,4.2,0,8.4,0,12.6a3.19,3.19,0,0,1-2.23,3.47Z"/><path class="cls-4" d="M100.64,73.72h18.09a2.78,2.78,0,0,1,3.1,3c0,8.38.14,16.76-.13,25.13a25.5,25.5,0,0,1-7,17.36,19.26,19.26,0,0,1-29.29-1.28,27,27,0,0,1-5.73-14.3,47.79,47.79,0,0,1-.25-5.23c0-7.15,0-14.3,0-21.45,0-1.74.72-2.81,2.14-3.15a5,5,0,0,1,1.14-.09Z"/><path class="cls-4" d="M123.16,111.19c.44-2,.85-3.86,1.29-5.74a.77.77,0,0,1,.39-.46,8,8,0,0,0,5-7.45c.23-5,.06-10,.06-15.07h-5V77a1.57,1.57,0,0,1,.37-.09c2.51,0,5,0,7.53,0a2.75,2.75,0,0,1,2.8,2.9c0,5.32.07,10.64,0,16a16.46,16.46,0,0,1-3.52,10.66A14.28,14.28,0,0,1,123.16,111.19Z"/><path class="cls-4" d="M76.32,77v5.47H71.23c0,.35-.05.58-.05.82,0,3.87-.08,7.75,0,11.62a23.49,23.49,0,0,0,.76,5.23,7,7,0,0,0,4.19,4.74,1.15,1.15,0,0,1,.74.95c.37,1.78.8,3.54,1.23,5.39-3.9-.67-7.24-2.28-9.6-5.58a17.07,17.07,0,0,1-2.91-10c-.07-5.27,0-10.53,0-15.8a2.75,2.75,0,0,1,2.75-2.95c2.56-.05,5.13,0,7.69,0A1.09,1.09,0,0,1,76.32,77Z"/><path class="cls-4" d="M100.64,134H94.91c-1.15,0-1.65-.5-1.66-1.64s0-2.46,0-3.68c0-1,.5-1.31,1.44-1.13,1.28.25,2.57.51,3.86.72a20.6,20.6,0,0,0,7.77-.66c1.28-.28,1.69,0,1.69,1.38,0,1.15,0,2.29,0,3.44a1.39,1.39,0,0,1-1.56,1.57C104.52,134,102.58,134,100.64,134Z"/><path class="cls-5" d="M70.55,172.36c0,2.27,1.05,4.11,3.37,4.11a3,3,0,0,0,2.25-.91v.34a3.24,3.24,0,0,1-2.25.82c-2.44,0-3.63-2-3.63-4.35S71.58,168,73.92,168a3.29,3.29,0,0,1,2.25.8v.34a3,3,0,0,0-2.25-.91C71.7,168.23,70.55,170.09,70.55,172.36Z"/><path class="cls-5" d="M84.73,172.36c0,2.4-1.29,4.35-3.63,4.35s-3.62-2-3.62-4.35S78.77,168,81.11,168,84.73,170,84.73,172.36Zm-.26,0c0-2.27-1.15-4.13-3.37-4.13s-3.36,1.86-3.36,4.13,1.14,4.11,3.36,4.11S84.48,174.63,84.48,172.36Z"/><path class="cls-5" d="M92.48,168.16v8.4h-.22l-5.31-8v8h-.22v-8.4h.22l5.31,8v-8Z"/><path class="cls-5" d="M94.72,172.36c0,2.27,1.05,4.11,3.37,4.11a3,3,0,0,0,2.25-.91v.34a3.24,3.24,0,0,1-2.25.82c-2.44,0-3.63-2-3.63-4.35S95.75,168,98.09,168a3.29,3.29,0,0,1,2.25.8v.34a3,3,0,0,0-2.25-.91C95.88,168.23,94.72,170.09,94.72,172.36Z"/><path class="cls-5" d="M108.91,172.36c0,2.4-1.29,4.35-3.63,4.35s-3.62-2-3.62-4.35,1.28-4.35,3.62-4.35S108.91,170,108.91,172.36Zm-.26,0c0-2.27-1.15-4.13-3.37-4.13s-3.36,1.86-3.36,4.13,1.14,4.11,3.36,4.11S108.65,174.63,108.65,172.36Z"/><path class="cls-5" d="M116.16,168.16v5.54c0,1.92-.86,3-2.63,3s-2.63-1.09-2.63-3v-5.54h.22v5.54c0,1.78.77,2.77,2.41,2.77s2.41-1,2.41-2.77v-5.54Z"/><path class="cls-5" d="M123.89,176.56l-2.43-3.42h-2.64v3.41h-.22v-8.4h2.64a2.33,2.33,0,0,1,2.59,2.49,2.26,2.26,0,0,1-2.1,2.46l2.45,3.44Zm-2.65-3.65a2.26,2.26,0,1,0,0-4.52h-2.42v4.52Z"/><path class="cls-5" d="M131,174.49a2.31,2.31,0,0,1-2.6,2.22,4.16,4.16,0,0,1-2.69-.83v-.28a4.15,4.15,0,0,0,2.69.86c1.37,0,2.34-.73,2.34-2s-1.16-1.62-2.44-2.08-2.52-.85-2.52-2.19a2.21,2.21,0,0,1,2.5-2.22,4.38,4.38,0,0,1,2.29.61v.28a4,4,0,0,0-2.29-.66,2,2,0,0,0-2.24,2c0,1.18,1.11,1.49,2.33,1.93S131,173,131,174.49Z"/></svg>