<svg id="Calque_1" data-name="Calque 1" xmlns="http://www.w3.org/2000/svg" viewBox="0 0 195.84 266.4"><defs><style>.cls-1{fill:#eaa775;}.cls-2{font-size:26.4px;}.cls-2,.cls-3{fill:#241f20;font-family:DINCondensed-Bold, DIN Condensed;font-weight:700;}.cls-3{font-size:26.4px;}.cls-4,.cls-5{fill:none;stroke-miterlimit:10;}.cls-4{stroke:#000;stroke-width:0.75px;}.cls-5{stroke:#241f20;stroke-width:0.5px;}</style></defs><title>Plan de travail 14</title><path class="cls-1" d="M40.31,8.23c5.78,0,34.77,26.63,50.75,24.3,33.55-4.9,57.58,2.33,61.78,23.34,4,20.11,24.63,18.58,29.75,39.5s5.12,30.13,5.12,30.13V8.23H46.09"/><path class="cls-1" d="M156.48,258.17c-5.78,0-34.77-26.63-50.75-24.3-33.55,4.9-57.58-2.33-61.78-23.34C39.93,190.42,19.32,192,14.2,171S9.08,140.9,9.08,140.9V258.17H150.7"/><path class="cls-1" d="M79,153.82c-11.95-7.38-3.59-8.11-14-19.84-8.56-9.68-14.18-18.61-11-26.75,7.54-19.5,21.56-10.54,35.23-23.94,11.78-11.54,34.84-4.15,39.51,9.17s7.82,6.75,17.46,19.3c11.15,14.53-13,30.93-24.48,30.77S104.66,154,97.28,155.38C84.73,157.64,79,153.82,79,153.82Z"/><text class="cls-2" transform="translate(25.2 44.34) scale(0.95 1)">03</text><text class="cls-3" transform="translate(41.17 223.47) rotate(180) scale(0.91 1)">03</text><text class="cls-2" transform="translate(154.42 44.43) scale(0.95 1)">03</text><text class="cls-3" transform="translate(170.39 223.56) rotate(180) scale(0.91 1)">03</text><path class="cls-4" d="M54.8,115a3.48,3.48,0,0,1,3.72-2.06c2.55.1,5.1,0,7.66,0a2.79,2.79,0,1,1,0,5.54c-2.55,0-5.11-.07-7.66,0a3.49,3.49,0,0,1-3.72-2.06Z"/><path class="cls-4" d="M104.91,136.45c0,1.89,0,3.77,0,5.65a2.84,2.84,0,0,1-2.78,3.13c-1.63,0-2.75-1.29-2.76-3.16s0-3.64,0-5.46a2,2,0,0,0-.08-.31h-1c-3.17,0-6.35,0-9.52,0A2.68,2.68,0,0,1,86,133.66a2.73,2.73,0,0,1,2.45-2.86,7.4,7.4,0,0,1,1,0c5.61,0,11.22,0,16.83,0a6.13,6.13,0,1,0,.43-12.25c-3-.05-6,0-9,0a11.68,11.68,0,0,1-5.93-21.79,10.93,10.93,0,0,1,5.54-1.55h2c0-.55,0-1,0-1.5,0-1.54,0-3.08,0-4.62a2.77,2.77,0,1,1,5.53,0c0,2,0,4,0,6.09H106c3.17,0,6.35,0,9.52,0a2.69,2.69,0,0,1,2.74,2.67,2.75,2.75,0,0,1-2.59,2.84,9.65,9.65,0,0,1-1,0c-5.58,0-11.16,0-16.74,0a6.13,6.13,0,1,0-.34,12.25c3,0,6,0,9.06,0a11.67,11.67,0,0,1,2.76,23A35.67,35.67,0,0,1,104.91,136.45Z"/><path class="cls-4" d="M63.84,90.68a6,6,0,0,1,1.2.43q3.74,2.11,7.44,4.28a2.77,2.77,0,1,1-2.74,4.81Q66,98.05,62.21,95.85a2.73,2.73,0,0,1-1.31-3.24A2.85,2.85,0,0,1,63.84,90.68Z"/><path class="cls-4" d="M143.51,93.48a2.76,2.76,0,0,1-1.37,2.32c-2.58,1.5-5.16,3-7.76,4.47a2.76,2.76,0,1,1-2.73-4.8c2.54-1.5,5.1-3,7.68-4.43A2.77,2.77,0,0,1,143.51,93.48Z"/><path class="cls-4" d="M142.28,112.94c1.42,0,2.83,0,4.25,0a2.78,2.78,0,1,1,0,5.54q-4.3,0-8.59,0a2.77,2.77,0,1,1,0-5.54C139.38,112.93,140.83,112.94,142.28,112.94Z"/><path class="cls-4" d="M74,133.76a2.65,2.65,0,0,1-1.37,2.17c-2.58,1.51-5.15,3-7.76,4.47a2.76,2.76,0,1,1-2.7-4.82c2.55-1.5,5.1-3,7.68-4.43A2.78,2.78,0,0,1,74,133.76Z"/><path class="cls-4" d="M133.26,130.77a6,6,0,0,1,1.21.43q3.78,2.13,7.52,4.33a2.77,2.77,0,1,1-2.76,4.79q-3.78-2.14-7.52-4.33a2.74,2.74,0,0,1-1.37-3.14A2.87,2.87,0,0,1,133.26,130.77Z"/><path class="cls-4" d="M127.17,154.1a2.84,2.84,0,0,1-1.85,2.83,2.61,2.61,0,0,1-3.11-1c-1.64-2.71-3.23-5.46-4.75-8.24a2.74,2.74,0,0,1,4.74-2.7c1.63,2.68,3.17,5.42,4.71,8.15A3.18,3.18,0,0,1,127.17,154.1Z"/><path class="cls-4" d="M127.27,77.12a9.49,9.49,0,0,1-.55,1.54q-2.09,3.7-4.24,7.36a2.78,2.78,0,1,1-4.79-2.77c1.43-2.51,2.87-5,4.35-7.51a2.71,2.71,0,0,1,3.18-1.26A3,3,0,0,1,127.27,77.12Z"/><path class="cls-4" d="M80.33,157.09c-2.44,0-3.9-2.11-3-3.85,1.49-2.83,3.12-5.59,4.79-8.32a2.62,2.62,0,0,1,3.55-.73,2.66,2.66,0,0,1,1.13,3.52c-1.52,2.78-3.09,5.54-4.78,8.22C81.63,156.56,80.69,156.86,80.33,157.09Z"/><path class="cls-4" d="M87.07,84.57a2.87,2.87,0,0,1-2,2.93,2.69,2.69,0,0,1-3.1-1.26c-1-1.66-2-3.35-2.92-5-.51-.88-1-1.75-1.52-2.64a2.79,2.79,0,0,1,1-3.86,2.74,2.74,0,0,1,3.77,1c1.51,2.54,3,5.11,4.43,7.68A5.23,5.23,0,0,1,87.07,84.57Z"/><path class="cls-5" d="M71.27,174.57c0,1.69-1.52,2.22-2.64,2.22a4.29,4.29,0,0,1-2.74-.83v-.28a4.28,4.28,0,0,0,2.74.86c1.39,0,2.38-.73,2.38-2s-1.19-1.62-2.49-2.08S66,171.65,66,170.3c0-1.63,1.29-2.22,2.54-2.22a4.52,4.52,0,0,1,2.34.61V169a4.12,4.12,0,0,0-2.34-.66c-1.15,0-2.28.53-2.28,2,0,1.18,1.13,1.49,2.37,1.93S71.27,173,71.27,174.57Z"/><path class="cls-5" d="M78.68,170.73a2.36,2.36,0,0,1-2.63,2.5H73.58v3.41h-.23v-8.4H76A2.35,2.35,0,0,1,78.68,170.73Zm-.27,0A2.11,2.11,0,0,0,76,168.47H73.58V173H76A2.1,2.1,0,0,0,78.4,170.73Z"/><path class="cls-5" d="M87.51,172.44c0,2.4-1.31,4.35-3.69,4.35s-3.68-2-3.68-4.35,1.3-4.35,3.68-4.35S87.51,170,87.51,172.44Zm-.26,0c0-2.27-1.17-4.13-3.43-4.13s-3.42,1.86-3.42,4.13,1.16,4.11,3.42,4.11S87.25,174.7,87.25,172.44Z"/><path class="cls-5" d="M95.39,168.24v8.4h-.23l-5.4-8v8h-.23v-8.4h.23l5.4,8v-8Z"/><path class="cls-5" d="M102.91,174.57c0,1.69-1.52,2.22-2.64,2.22a4.29,4.29,0,0,1-2.74-.83v-.28a4.28,4.28,0,0,0,2.74.86c1.39,0,2.38-.73,2.38-2s-1.19-1.62-2.49-2.08-2.56-.85-2.56-2.19c0-1.63,1.29-2.22,2.54-2.22a4.52,4.52,0,0,1,2.34.61V169a4.12,4.12,0,0,0-2.34-.66c-1.15,0-2.28.53-2.28,2,0,1.18,1.13,1.49,2.37,1.93S102.91,173,102.91,174.57Z"/><path class="cls-5" d="M111.92,172.44c0,2.4-1.31,4.35-3.69,4.35s-3.68-2-3.68-4.35,1.3-4.35,3.68-4.35S111.92,170,111.92,172.44Zm-.26,0c0-2.27-1.17-4.13-3.43-4.13s-3.42,1.86-3.42,4.13,1.16,4.11,3.42,4.11S111.65,174.7,111.65,172.44Z"/><path class="cls-5" d="M119.33,176.64l-2.47-3.42h-2.69v3.41h-.23v-8.4h2.69a2.35,2.35,0,0,1,2.63,2.49,2.28,2.28,0,0,1-2.14,2.46l2.5,3.44Zm-2.7-3.65a2.26,2.26,0,1,0,0-4.52h-2.46V173Z"/><path class="cls-5" d="M121.76,168.24v8.4h-.23v-8.4Z"/><path class="cls-5" d="M130.1,168.24v8.4h-.23l-5.4-8v8h-.23v-8.4h.23l5.4,8v-8Z"/><path class="cls-5" d="M138.4,172.14v3.73a4.06,4.06,0,0,1-2.58.92c-2.48,0-3.69-1.75-3.69-4.35,0-2.4,1.31-4.35,3.69-4.35a3.45,3.45,0,0,1,2.33.8v.34a3.16,3.16,0,0,0-2.33-.91c-2.26,0-3.43,1.86-3.43,4.13,0,2.47,1.07,4.11,3.43,4.11a3.74,3.74,0,0,0,2.35-.78v-3.63Z"/></svg>