<svg id="Calque_1" data-name="Calque 1" xmlns="http://www.w3.org/2000/svg" viewBox="0 0 195.84 266.4"><defs><style>.cls-1{fill:#c8e999;}.cls-2{font-size:26.4px;}.cls-2,.cls-3{fill:#241f20;font-family:DINCondensed-Bold, DIN Condensed;font-weight:700;}.cls-3{font-size:26.4px;}.cls-4,.cls-5{fill:none;stroke-miterlimit:10;}.cls-4{stroke:#000;stroke-width:0.75px;}.cls-5{stroke:#241f20;stroke-width:0.5px;}</style></defs><title>Plan de travail 17</title><path class="cls-1" d="M39.73,8.23c5.78,0,34.77,26.63,50.75,24.3,33.55-4.9,57.58,2.33,61.78,23.34,4,20.11,24.63,18.58,29.75,39.5s5.12,30.13,5.12,30.13V8.23H45.52"/><path class="cls-1" d="M155.91,258.17c-5.78,0-34.77-26.63-50.75-24.3-33.55,4.9-57.58-2.33-61.78-23.34-4-20.11-24.63-18.58-29.75-39.5S8.51,140.9,8.51,140.9V258.17H150.13"/><path class="cls-1" d="M78.43,153.82c-11.95-7.38-3.59-8.11-14-19.84-8.56-9.68-14.18-18.61-11-26.75C61,87.74,75,96.69,88.68,83.29c11.78-11.54,34.84-4.15,39.51,9.17s7.82,6.75,17.46,19.3c11.15,14.53-13,30.93-24.48,30.77S104.09,154,96.71,155.38C84.16,157.64,78.43,153.82,78.43,153.82Z"/><text class="cls-2" transform="translate(24.63 44.34) scale(0.95 1)">03</text><text class="cls-3" transform="translate(40.6 223.47) rotate(180) scale(0.91 1)">03</text><text class="cls-2" transform="translate(153.85 44.43) scale(0.95 1)">03</text><text class="cls-3" transform="translate(169.82 223.56) rotate(180) scale(0.91 1)">03</text><path class="cls-4" d="M54.23,115a3.48,3.48,0,0,1,3.72-2.06c2.55.1,5.1,0,7.66,0a2.79,2.79,0,1,1,0,5.54c-2.55,0-5.11-.07-7.66,0a3.49,3.49,0,0,1-3.72-2.06Z"/><path class="cls-4" d="M104.34,136.45c0,1.89,0,3.77,0,5.65a2.84,2.84,0,0,1-2.78,3.13c-1.63,0-2.75-1.29-2.76-3.16s0-3.64,0-5.46a2,2,0,0,0-.08-.31h-1c-3.17,0-6.35,0-9.52,0a2.68,2.68,0,0,1-2.69-2.62,2.73,2.73,0,0,1,2.45-2.86,7.4,7.4,0,0,1,1,0c5.61,0,11.22,0,16.83,0a6.13,6.13,0,1,0,.43-12.25c-3-.05-6,0-9,0a11.68,11.68,0,0,1-5.93-21.79,10.93,10.93,0,0,1,5.54-1.55h2c0-.55,0-1,0-1.5,0-1.54,0-3.08,0-4.62a2.77,2.77,0,1,1,5.53,0c0,2,0,4,0,6.09h1.08c3.17,0,6.35,0,9.52,0a2.69,2.69,0,0,1,2.74,2.67,2.75,2.75,0,0,1-2.59,2.84,9.65,9.65,0,0,1-1,0c-5.58,0-11.16,0-16.74,0A6.13,6.13,0,1,0,97,112.93c3,0,6,0,9.06,0a11.67,11.67,0,0,1,2.76,23A35.67,35.67,0,0,1,104.34,136.45Z"/><path class="cls-4" d="M63.26,90.68a6,6,0,0,1,1.2.43q3.74,2.11,7.44,4.28a2.77,2.77,0,1,1-2.74,4.81q-3.78-2.14-7.52-4.34a2.73,2.73,0,0,1-1.31-3.24A2.85,2.85,0,0,1,63.26,90.68Z"/><path class="cls-4" d="M142.94,93.48a2.76,2.76,0,0,1-1.37,2.32c-2.58,1.5-5.16,3-7.76,4.47a2.76,2.76,0,1,1-2.73-4.8c2.54-1.5,5.1-3,7.68-4.43A2.77,2.77,0,0,1,142.94,93.48Z"/><path class="cls-4" d="M141.7,112.94c1.42,0,2.83,0,4.25,0a2.78,2.78,0,1,1,0,5.54q-4.3,0-8.59,0a2.77,2.77,0,1,1,0-5.54C138.81,112.93,140.26,112.94,141.7,112.94Z"/><path class="cls-4" d="M73.45,133.76a2.65,2.65,0,0,1-1.37,2.17c-2.58,1.51-5.15,3-7.76,4.47a2.76,2.76,0,1,1-2.7-4.82c2.55-1.5,5.1-3,7.68-4.43A2.78,2.78,0,0,1,73.45,133.76Z"/><path class="cls-4" d="M132.69,130.77a6,6,0,0,1,1.21.43q3.78,2.13,7.52,4.33a2.77,2.77,0,1,1-2.76,4.79q-3.78-2.14-7.52-4.33a2.74,2.74,0,0,1-1.37-3.14A2.87,2.87,0,0,1,132.69,130.77Z"/><path class="cls-4" d="M126.6,154.1a2.84,2.84,0,0,1-1.85,2.83,2.61,2.61,0,0,1-3.11-1c-1.64-2.71-3.23-5.46-4.75-8.24a2.74,2.74,0,0,1,4.74-2.7c1.63,2.68,3.17,5.42,4.71,8.15A3.18,3.18,0,0,1,126.6,154.1Z"/><path class="cls-4" d="M126.7,77.12a9.49,9.49,0,0,1-.55,1.54q-2.09,3.7-4.24,7.36a2.78,2.78,0,1,1-4.79-2.77c1.43-2.51,2.87-5,4.35-7.51a2.71,2.71,0,0,1,3.18-1.26A3,3,0,0,1,126.7,77.12Z"/><path class="cls-4" d="M79.76,157.09c-2.44,0-3.9-2.11-3-3.85,1.49-2.83,3.12-5.59,4.79-8.32a2.62,2.62,0,0,1,3.55-.73,2.66,2.66,0,0,1,1.13,3.52c-1.52,2.78-3.09,5.54-4.78,8.22C81.06,156.56,80.12,156.86,79.76,157.09Z"/><path class="cls-4" d="M86.5,84.57a2.87,2.87,0,0,1-2,2.93,2.69,2.69,0,0,1-3.1-1.26c-1-1.66-2-3.35-2.92-5-.51-.88-1-1.75-1.52-2.64a2.79,2.79,0,0,1,1-3.86,2.74,2.74,0,0,1,3.77,1c1.51,2.54,3,5.11,4.43,7.68A5.23,5.23,0,0,1,86.5,84.57Z"/><path class="cls-5" d="M70.7,174.57c0,1.69-1.52,2.22-2.64,2.22a4.29,4.29,0,0,1-2.74-.83v-.28a4.28,4.28,0,0,0,2.74.86c1.39,0,2.38-.73,2.38-2S69.25,173,68,172.5s-2.56-.85-2.56-2.19c0-1.63,1.29-2.22,2.54-2.22a4.52,4.52,0,0,1,2.34.61V169a4.12,4.12,0,0,0-2.34-.66c-1.15,0-2.28.53-2.28,2,0,1.18,1.13,1.49,2.37,1.93S70.7,173,70.7,174.57Z"/><path class="cls-5" d="M78.11,170.73a2.36,2.36,0,0,1-2.63,2.5H73v3.41h-.23v-8.4h2.69A2.35,2.35,0,0,1,78.11,170.73Zm-.27,0a2.11,2.11,0,0,0-2.36-2.27H73V173h2.46A2.1,2.1,0,0,0,77.83,170.73Z"/><path class="cls-5" d="M86.94,172.44c0,2.4-1.31,4.35-3.69,4.35s-3.68-2-3.68-4.35,1.3-4.35,3.68-4.35S86.94,170,86.94,172.44Zm-.26,0c0-2.27-1.17-4.13-3.43-4.13s-3.42,1.86-3.42,4.13,1.16,4.11,3.42,4.11S86.67,174.7,86.67,172.44Z"/><path class="cls-5" d="M94.82,168.24v8.4h-.23l-5.4-8v8H89v-8.4h.23l5.4,8v-8Z"/><path class="cls-5" d="M102.34,174.57c0,1.69-1.52,2.22-2.64,2.22A4.29,4.29,0,0,1,97,176v-.28a4.28,4.28,0,0,0,2.74.86c1.39,0,2.38-.73,2.38-2s-1.19-1.62-2.49-2.08S97,171.65,97,170.3c0-1.63,1.29-2.22,2.54-2.22a4.52,4.52,0,0,1,2.34.61V169a4.12,4.12,0,0,0-2.34-.66c-1.15,0-2.28.53-2.28,2,0,1.18,1.13,1.49,2.37,1.93S102.34,173,102.34,174.57Z"/><path class="cls-5" d="M111.34,172.44c0,2.4-1.31,4.35-3.69,4.35s-3.68-2-3.68-4.35,1.3-4.35,3.68-4.35S111.34,170,111.34,172.44Zm-.26,0c0-2.27-1.17-4.13-3.43-4.13s-3.42,1.86-3.42,4.13,1.16,4.11,3.42,4.11S111.08,174.7,111.08,172.44Z"/><path class="cls-5" d="M118.76,176.64l-2.47-3.42H113.6v3.41h-.23v-8.4h2.69a2.35,2.35,0,0,1,2.63,2.49,2.28,2.28,0,0,1-2.14,2.46l2.5,3.44Zm-2.7-3.65a2.26,2.26,0,1,0,0-4.52H113.6V173Z"/><path class="cls-5" d="M121.19,168.24v8.4H121v-8.4Z"/><path class="cls-5" d="M129.53,168.24v8.4h-.23l-5.4-8v8h-.23v-8.4h.23l5.4,8v-8Z"/><path class="cls-5" d="M137.82,172.14v3.73a4.06,4.06,0,0,1-2.58.92c-2.48,0-3.69-1.75-3.69-4.35,0-2.4,1.31-4.35,3.69-4.35a3.45,3.45,0,0,1,2.33.8v.34a3.16,3.16,0,0,0-2.33-.91c-2.26,0-3.43,1.86-3.43,4.13,0,2.47,1.07,4.11,3.43,4.11a3.74,3.74,0,0,0,2.35-.78v-3.63Z"/></svg>