<svg id="Calque_1" data-name="Calque 1" xmlns="http://www.w3.org/2000/svg" viewBox="0 0 195.84 266.4"><defs><style>.cls-1{fill:#fd86a0;}.cls-2{font-size:26.4px;}.cls-2,.cls-3{fill:#241f20;font-family:DINCondensed-Bold, DIN Condensed;font-weight:700;}.cls-3{font-size:26.4px;}.cls-4,.cls-5{fill:none;stroke-miterlimit:10;}.cls-4{stroke:#000;stroke-width:0.75px;}.cls-5{stroke:#241f20;stroke-width:0.5px;}</style></defs><title>Plan de travail 22</title><path class="cls-1" d="M40,8.23c5.78,0,34.77,26.63,50.75,24.3,33.55-4.9,57.58,2.33,61.78,23.34,4,20.11,24.63,18.58,29.75,39.5s5.12,30.13,5.12,30.13V8.23H45.81"/><path class="cls-1" d="M156.2,258.17c-5.78,0-34.77-26.63-50.75-24.3-33.55,4.9-57.58-2.33-61.78-23.34C39.65,190.42,19,192,13.92,171S8.8,140.9,8.8,140.9V258.17H150.42"/><path class="cls-1" d="M78.72,153.82c-11.95-7.38-3.59-8.11-14-19.84-8.56-9.68-14.18-18.61-11-26.75C61.28,87.74,75.3,96.69,89,83.29c11.78-11.54,34.84-4.15,39.51,9.17s7.82,6.75,17.46,19.3c11.15,14.53-13,30.93-24.48,30.77S104.38,154,97,155.38C84.45,157.64,78.72,153.82,78.72,153.82Z"/><text class="cls-2" transform="translate(24.92 44.34) scale(0.95 1)">04</text><text class="cls-3" transform="translate(40.89 223.47) rotate(180) scale(0.91 1)">04</text><text class="cls-2" transform="translate(154.14 44.43) scale(0.95 1)">04</text><text class="cls-3" transform="translate(170.11 223.56) rotate(180) scale(0.91 1)">04</text><path class="cls-4" d="M115.05,74.59a2.87,2.87,0,0,1,1.8,3.13c-.08,1.31,0,2.62,0,3.93a2.4,2.4,0,0,1-2.39,2.57A2.45,2.45,0,0,1,112,81.66c0-1.34,0-2.68,0-4a2.77,2.77,0,0,1,1.92-3.06Z"/><path class="cls-4" d="M102.23,126.33c2.1,1.81,3.39,3.89,3.24,6.68s-1.87,4.57-3.83,6.36c1.2,1.18,2.36,2.32,3.5,3.47a28.4,28.4,0,0,1,2.21,2.33,7.19,7.19,0,0,1-.74,9.68,7.08,7.08,0,0,1-9.76.07c-3.88-3.73-7.64-7.58-11.44-11.39a7.66,7.66,0,0,1-.69-1c-.7.76-1.18,1.34-1.72,1.86a7.18,7.18,0,0,1-10.36,0q-3.33-3.26-6.59-6.58a7.17,7.17,0,0,1,0-10.53c4.43-4.47,9-8.84,13.3-13.38A49.31,49.31,0,0,0,92.17,89.41a1.75,1.75,0,0,0-.23-1,7.07,7.07,0,0,1,.2-7.27,7.22,7.22,0,0,1,11.28-1.3Q117,93.37,130.55,107a7.23,7.23,0,0,1-4.45,12.36,7.32,7.32,0,0,1-4.1-.86,2,2,0,0,0-1.18-.17,49.65,49.65,0,0,0-18,7.64C102.62,126,102.48,126.14,102.23,126.33ZM117,114.19,96.2,93.36A55.05,55.05,0,0,1,84.66,115.3L95.1,125.74A55.1,55.1,0,0,1,117,114.19ZM81.22,119c-.17.15-.33.29-.48.44L69.62,130.56c-1.36,1.36-1.35,2.65,0,4l6.13,6.13c1.43,1.43,2.68,1.44,4.09,0l11-11c.19-.19.36-.38.52-.55Zm46.72-7.24a7.09,7.09,0,0,0-1-1.56Q113.6,96.77,100.18,83.39c-.11-.11-.23-.23-.35-.33a2.35,2.35,0,0,0-2.7-.29,2.18,2.18,0,0,0-1.2,2.4,3.54,3.54,0,0,0,.89,1.63q13.34,13.4,26.72,26.75a4.08,4.08,0,0,0,.53.49,2.32,2.32,0,0,0,2.5.22A2.59,2.59,0,0,0,127.94,111.75ZM88.12,139.43q5.95,5.95,11.87,11.86a2.25,2.25,0,0,0,2.29.61,2.4,2.4,0,0,0,.93-4.19Q97.55,142,91.86,136.37a4.19,4.19,0,0,0-.38-.31Zm6.77-6.91c.21.23.35.39.49.54l2.84,2.9c3.4-2.84,3.13-4.17.12-6.63-.29.25-.6.5-.88.77Z"/><path class="cls-4" d="M131.42,82a6.92,6.92,0,0,1-.86,1.56c-1.57,1.65-3.18,3.25-4.81,4.83A2.39,2.39,0,0,1,122.34,85c1.6-1.65,3.23-3.28,4.87-4.88a2.28,2.28,0,0,1,2.67-.47A2.73,2.73,0,0,1,131.42,82Z"/><path class="cls-4" d="M131.3,98.67c-.8,0-1.61,0-2.41,0a2.4,2.4,0,1,1,0-4.8q2.41,0,4.82,0a2.37,2.37,0,0,1,2.4,2.39,2.39,2.39,0,0,1-2.39,2.41C132.91,98.69,132.1,98.67,131.3,98.67Z"/><path class="cls-4" d="M83.76,129.32a6.88,6.88,0,0,1-.82,1.5c-1.09,1.18-2.23,2.31-3.39,3.42a2.4,2.4,0,1,1-3.37-3.42q1.65-1.7,3.35-3.35a2.41,2.41,0,0,1,2.74-.5A2.77,2.77,0,0,1,83.76,129.32Z"/><path class="cls-5" d="M78.9,170.5a2.45,2.45,0,0,1-2.74,2.59H73.61v3.54h-.24v-8.72h2.79A2.44,2.44,0,0,1,78.9,170.5Zm-.28,0a2.19,2.19,0,0,0-2.45-2.36H73.61v4.7h2.56A2.18,2.18,0,0,0,78.62,170.5Z"/><path class="cls-5" d="M86.45,167.91v5.76c0,2-.91,3.13-2.78,3.13s-2.78-1.13-2.78-3.13v-5.76h.24v5.76c0,1.84.82,2.88,2.55,2.88s2.55-1,2.55-2.88v-5.76Z"/><path class="cls-5" d="M94.62,174.32a2.21,2.21,0,0,1-2.53,2.31H89v-8.72h2.85c1.48,0,2.5.74,2.5,2.18a1.92,1.92,0,0,1-1.49,2.08A2,2,0,0,1,94.62,174.32Zm-5.35-6.18v3.91H92c1.35,0,2.11-.66,2.11-2s-.88-1.94-2.23-1.94Zm5.08,6.18c0-1.22-.75-2-2.23-2H89.27v4.07h2.82C93.66,176.38,94.35,175.55,94.35,174.32Z"/><path class="cls-5" d="M101.38,176.38v.25H96.67v-8.72h.24v8.47Z"/><path class="cls-5" d="M103.48,167.91v8.72h-.24v-8.72Z"/><path class="cls-5" d="M105.86,172.27c0,2.36,1.11,4.27,3.56,4.27a3.15,3.15,0,0,0,2.38-.95v.35a3.46,3.46,0,0,1-2.38.85c-2.58,0-3.84-2-3.84-4.52s1.36-4.52,3.84-4.52a3.51,3.51,0,0,1,2.38.83v.35a3.2,3.2,0,0,0-2.38-.95C107.08,168,105.86,169.91,105.86,172.27Z"/><path class="cls-5" d="M114.15,167.91v8.72h-.24v-8.72Z"/><path class="cls-5" d="M121.56,168.16h-2.65v8.47h-.24v-8.47H116v-.25h5.54Z"/><path class="cls-5" d="M128.29,176.38v.25h-4.87v-8.72h4.83v.24h-4.59v4H128v.24h-4.36v4Zm-1.39-11.26-1.09,1.58h-.15l.85-1.58Z"/></svg>