<svg id="Calque_1" data-name="Calque 1" xmlns="http://www.w3.org/2000/svg" viewBox="0 0 195.84 266.4"><defs><style>.cls-1{fill:#f3b0d4;}.cls-2{font-size:26.4px;}.cls-2,.cls-3{fill:#241f20;font-family:DINCondensed-Bold, DIN Condensed;font-weight:700;}.cls-3{font-size:26.4px;}.cls-4,.cls-5{fill:none;stroke-miterlimit:10;}.cls-4{stroke:#000;stroke-width:0.75px;}.cls-5{stroke:#241f20;stroke-width:0.5px;}</style></defs><title>Plan de travail 27</title><path class="cls-1" d="M40.76,8.23c5.78,0,34.77,26.63,50.75,24.3,33.55-4.9,57.58,2.33,61.78,23.34,4,20.11,24.63,18.58,29.75,39.5s5.12,30.13,5.12,30.13V8.23H46.54"/><path class="cls-1" d="M156.93,258.17c-5.78,0-34.77-26.63-50.75-24.3-33.55,4.9-57.58-2.33-61.78-23.34-4-20.11-24.63-18.58-29.75-39.5S9.54,140.9,9.54,140.9V258.17H151.15"/><path class="cls-1" d="M79.45,153.82c-11.95-7.38-3.59-8.11-14-19.84-8.56-9.68-14.18-18.61-11-26.75C62,87.74,76,96.69,89.7,83.29c11.78-11.54,34.84-4.15,39.51,9.17s7.82,6.75,17.46,19.3c11.15,14.53-13,30.93-24.48,30.77S105.11,154,97.73,155.38C85.18,157.64,79.45,153.82,79.45,153.82Z"/><text class="cls-2" transform="translate(25.65 44.34) scale(0.95 1)">05</text><text class="cls-3" transform="translate(41.62 223.47) rotate(180) scale(0.91 1)">05</text><text class="cls-2" transform="translate(154.87 44.43) scale(0.95 1)">05</text><text class="cls-3" transform="translate(170.84 223.56) rotate(180) scale(0.91 1)">05</text><path class="cls-4" d="M59.9,119v-3.42a9.45,9.45,0,0,1,2.64-4.85c1.11-1,2.39-1.73,3.6-2.58a9.45,9.45,0,0,1,8-14.65c.48-5.9,3.75-9,9.59-9.61,0-.11,0-.22,0-.32s0-.22,0-.33c.39-4,2.37-6.87,6.16-8.22A9,9,0,0,1,100,77.4c.53.53,1,1.1,1.64,1.76,2.89-3.6,6.34-5.67,10.9-4.44s6.74,4.54,7.05,9.14c5.47.25,9.46,4.14,9.56,9.62a9.45,9.45,0,0,1,7.85,14.8l.27.14a9.43,9.43,0,0,1,3.1,15.78c-1.81,1.68-3.5,3.49-5.26,5.23-.36.36-.78.66-1.26,1.06.8.76,1.44,1.35,2.06,2a6.75,6.75,0,0,1,1.9,3.26c.86,3.58-.3,6.58-2.8,9.12-3.1,3.16-6.24,6.28-9.39,9.4a9.28,9.28,0,0,1-13.53,0c-1.26-1.24-2.52-2.48-3.74-3.75a1.19,1.19,0,0,0-1.21-.4,28.53,28.53,0,0,1-11,0,1.27,1.27,0,0,0-1.28.44c-1.49,1.51-2.94,3.06-4.54,4.45a9.09,9.09,0,0,1-12.06-.17c-3.58-3.41-7.09-6.9-10.48-10.49a8.8,8.8,0,0,1,.28-12.58c.42-.38.87-.73,1.21-1-1.77-1.83-3.34-3.55-5-5.16C62.29,123.69,60.52,121.71,59.9,119Zm23.81.78c.06.23.12.46.19.7a9.16,9.16,0,0,1-7,11.6,7,7,0,0,0-4.31,2.46,10.69,10.69,0,0,0-1.24,1.29,5.73,5.73,0,0,0-.86,2.12,4,4,0,0,0,1.4,3.33q4.7,4.69,9.4,9.39a4.1,4.1,0,0,0,6.2,0c1.62-1.61,3.26-3.19,4.83-4.85a3.29,3.29,0,0,1,3.44-1c8.62,1.94,16.32,0,22.72-6.08S130.85,126.4,137,120.25a4.1,4.1,0,0,0,.47-5.49,4.18,4.18,0,0,0-5.38-1.19,2.63,2.63,0,0,1-3.6-.74,2.59,2.59,0,0,1,.45-3.65c1.13-1.14,2.29-2.24,3.39-3.41a4.19,4.19,0,0,0-6-5.84,2.49,2.49,0,0,1-3,.42A2.43,2.43,0,0,1,122,97.61a4.31,4.31,0,0,1,.89-1.6,4.17,4.17,0,0,0-2.23-6.77,4.1,4.1,0,0,0-3.9,1.08,2.57,2.57,0,0,1-4.34-1.17,2.79,2.79,0,0,1,.83-2.67,4.11,4.11,0,0,0,.38-5.05A4.2,4.2,0,0,0,109,79.72c-1.6.49-2.47,1.87-3.7,3,3.15,2.69,5.49,5.73,4.71,10.14s-3.5,6.81-7.72,7.82A9.45,9.45,0,0,1,90.91,112C89.33,116.78,88.47,117.7,83.71,119.74Zm13.56-16.89a3.79,3.79,0,0,0-1.11-2.8c-3.25-3.27-6.5-6.55-9.79-9.78a4.08,4.08,0,0,0-5.73,0A4.14,4.14,0,0,0,80.36,96l.22.24c3.18,3.19,6.35,6.38,9.56,9.55a4,4,0,0,0,4.64.89A4,4,0,0,0,97.27,102.84Zm7.66-11.45a4.16,4.16,0,0,0-1.35-3.12l-3.8-3.8c-1.27-1.27-2.5-2.57-3.81-3.79A4.17,4.17,0,0,0,90,86.56q3.89,4,7.89,7.89a3.87,3.87,0,0,0,4.53.74A4,4,0,0,0,104.93,91.39ZM74,98.71a4.17,4.17,0,0,0-3,7.1c2.51,2.56,5,5.08,7.6,7.61a4.18,4.18,0,1,0,5.93-5.9c-2.49-2.54-5-5-7.54-7.55A4,4,0,0,0,74,98.71Zm39.34,49.51c.94.92,1.77,1.74,2.61,2.54a4,4,0,0,0,5.84,0c3.25-3.2,6.49-6.42,9.66-9.7a7.56,7.56,0,0,0,1.4-2.51,2.12,2.12,0,0,0-.38-2.22c-.65-.73-1.35-1.4-2.06-2.12-.25.23-.45.41-.64.6-1.75,1.75-3.53,3.46-5.24,5.25A33,33,0,0,1,113.32,148.22ZM74.85,127.14a4.16,4.16,0,0,0,3.08-7q-2.84-2.91-5.75-5.76a4.17,4.17,0,1,0-5.94,5.86C68.13,122.15,70.07,124,72,126A3.89,3.89,0,0,0,74.85,127.14Z"/><path class="cls-5" d="M56.55,172.51c0,2.23,1.05,4,3.37,4a3,3,0,0,0,2.25-.9V176a3.27,3.27,0,0,1-2.25.8c-2.44,0-3.63-1.92-3.63-4.28s1.29-4.28,3.63-4.28a3.32,3.32,0,0,1,2.25.79v.33a3,3,0,0,0-2.25-.9C57.71,168.46,56.55,170.29,56.55,172.51Z"/><path class="cls-5" d="M70.73,172.51c0,2.36-1.29,4.28-3.63,4.28s-3.62-1.92-3.62-4.28,1.28-4.28,3.62-4.28S70.73,170.16,70.73,172.51Zm-.26,0c0-2.23-1.15-4.05-3.37-4.05s-3.36,1.83-3.36,4.05,1.14,4,3.36,4S70.48,174.74,70.48,172.51Z"/><path class="cls-5" d="M77.18,176.4v.24H72.72v-8.25h.22v8Z"/><path class="cls-5" d="M83.4,176.4v.24H78.95v-8.25h.22v8Z"/><path class="cls-5" d="M90,174.11H85.79l-1,2.53h-.25l3.2-8.25H88l3.19,8.25H91Zm-.09-.22-2-5.18-2,5.18Z"/><path class="cls-5" d="M98.22,174.46a2.09,2.09,0,0,1-2.4,2.18H92.93v-8.25h2.7c1.4,0,2.36.7,2.36,2.06a1.81,1.81,0,0,1-1.41,2A1.91,1.91,0,0,1,98.22,174.46Zm-5.06-5.84v3.7h2.59c1.28,0,2-.62,2-1.86s-.83-1.84-2.1-1.84Zm4.8,5.84c0-1.15-.71-1.91-2.1-1.91h-2.7v3.85h2.66C97.31,176.4,98,175.61,98,174.46Z"/><path class="cls-5" d="M106.95,172.51c0,2.36-1.29,4.28-3.63,4.28s-3.62-1.92-3.62-4.28,1.28-4.28,3.62-4.28S106.95,170.16,106.95,172.51Zm-.26,0c0-2.23-1.15-4.05-3.37-4.05s-3.36,1.83-3.36,4.05,1.14,4,3.36,4S106.69,174.74,106.69,172.51Z"/><path class="cls-5" d="M114.23,176.64l-2.43-3.36h-2.64v3.35h-.22v-8.25h2.64a2.31,2.31,0,0,1,2.59,2.45,2.24,2.24,0,0,1-2.1,2.42l2.45,3.38Zm-2.65-3.58a2.22,2.22,0,1,0,0-4.44h-2.42v4.44Z"/><path class="cls-5" d="M121.09,174.11H116.9l-1,2.53h-.25l3.2-8.25h.23l3.19,8.25h-.23Zm-.09-.22-2-5.18-2,5.18Z"/><path class="cls-5" d="M128.05,168.63h-2.51v8h-.22v-8h-2.51v-.24h5.24Z"/><path class="cls-5" d="M130,168.39v8.25h-.22v-8.25Z"/><path class="cls-5" d="M139.27,172.51c0,2.36-1.29,4.28-3.63,4.28s-3.62-1.92-3.62-4.28,1.28-4.28,3.62-4.28S139.27,170.16,139.27,172.51Zm-.26,0c0-2.23-1.15-4.05-3.37-4.05s-3.36,1.83-3.36,4.05,1.14,4,3.36,4S139,174.74,139,172.51Z"/><path class="cls-5" d="M147,168.39v8.25h-.22l-5.31-7.85v7.85h-.22v-8.25h.22l5.31,7.85v-7.85Z"/></svg>