<svg id="Calque_1" data-name="Calque 1" xmlns="http://www.w3.org/2000/svg" viewBox="0 0 195.84 266.4"><defs><style>.cls-1{fill:#9e8cc8;}.cls-2{font-size:26.4px;}.cls-2,.cls-3{fill:#241f20;font-family:DINCondensed-Bold, DIN Condensed;font-weight:700;}.cls-3{font-size:26.4px;}.cls-4,.cls-5{fill:none;stroke-miterlimit:10;}.cls-4{stroke:#000;stroke-width:0.75px;}.cls-5{stroke:#241f20;stroke-width:0.5px;}</style></defs><title>Plan de travail 30</title><path class="cls-1" d="M40.19,8.23C46,8.23,75,34.86,90.94,32.53c33.55-4.9,57.58,2.33,61.78,23.34,4,20.11,24.63,18.58,29.75,39.5s5.12,30.13,5.12,30.13V8.23H46"/><path class="cls-1" d="M156.36,258.17c-5.78,0-34.77-26.63-50.75-24.3-33.55,4.9-57.58-2.33-61.78-23.34C39.81,190.42,19.2,192,14.08,171S9,140.9,9,140.9V258.17H150.58"/><path class="cls-1" d="M78.88,153.82c-11.95-7.38-3.59-8.11-14-19.84-8.56-9.68-14.18-18.61-11-26.75,7.54-19.5,21.56-10.54,35.23-23.94,11.78-11.54,34.84-4.15,39.51,9.17s7.82,6.75,17.46,19.3c11.15,14.53-13,30.93-24.48,30.77S104.54,154,97.16,155.38C84.61,157.64,78.88,153.82,78.88,153.82Z"/><text class="cls-2" transform="translate(25.08 44.34) scale(0.95 1)">05</text><text class="cls-3" transform="translate(41.05 223.47) rotate(180) scale(0.91 1)">05</text><text class="cls-2" transform="translate(154.3 44.43) scale(0.95 1)">05</text><text class="cls-3" transform="translate(170.27 223.56) rotate(180) scale(0.91 1)">05</text><path class="cls-4" d="M59.33,119v-3.42A9.45,9.45,0,0,1,62,110.69c1.11-1,2.39-1.73,3.6-2.58a9.45,9.45,0,0,1,8-14.65c.48-5.9,3.75-9,9.59-9.61,0-.11,0-.22,0-.32s0-.22,0-.33c.39-4,2.37-6.87,6.16-8.22A9,9,0,0,1,99.42,77.4c.53.53,1,1.1,1.64,1.76,2.89-3.6,6.34-5.67,10.9-4.44s6.74,4.54,7.05,9.14c5.47.25,9.46,4.14,9.56,9.62a9.45,9.45,0,0,1,7.85,14.8l.27.14a9.43,9.43,0,0,1,3.1,15.78c-1.81,1.68-3.5,3.49-5.26,5.23-.36.36-.78.66-1.26,1.06.8.76,1.44,1.35,2.06,2a6.75,6.75,0,0,1,1.9,3.26c.86,3.58-.3,6.58-2.8,9.12-3.1,3.16-6.24,6.28-9.39,9.4a9.28,9.28,0,0,1-13.53,0c-1.26-1.24-2.52-2.48-3.74-3.75a1.19,1.19,0,0,0-1.21-.4,28.53,28.53,0,0,1-11,0,1.27,1.27,0,0,0-1.28.44c-1.49,1.51-2.94,3.06-4.54,4.45a9.09,9.09,0,0,1-12.06-.17c-3.58-3.41-7.09-6.9-10.48-10.49a8.8,8.8,0,0,1,.28-12.58c.42-.38.87-.73,1.21-1-1.77-1.83-3.34-3.55-5-5.16C61.72,123.69,59.95,121.71,59.33,119Zm23.81.78c.06.23.12.46.19.7a9.16,9.16,0,0,1-7,11.6,7,7,0,0,0-4.31,2.46,10.69,10.69,0,0,0-1.24,1.29A5.73,5.73,0,0,0,70,137.9a4,4,0,0,0,1.4,3.33q4.7,4.69,9.4,9.39a4.1,4.1,0,0,0,6.2,0c1.62-1.61,3.26-3.19,4.83-4.85a3.29,3.29,0,0,1,3.44-1c8.62,1.94,16.32,0,22.72-6.08s12.34-12.25,18.47-18.41a4.1,4.1,0,0,0,.47-5.49,4.18,4.18,0,0,0-5.38-1.19,2.63,2.63,0,0,1-3.6-.74,2.59,2.59,0,0,1,.45-3.65c1.13-1.14,2.29-2.24,3.39-3.41a4.19,4.19,0,0,0-6-5.84,2.49,2.49,0,0,1-3,.42,2.43,2.43,0,0,1-1.27-2.75,4.31,4.31,0,0,1,.89-1.6,4.17,4.17,0,0,0-2.23-6.77,4.1,4.1,0,0,0-3.9,1.08,2.57,2.57,0,0,1-4.34-1.17,2.79,2.79,0,0,1,.83-2.67,4.11,4.11,0,0,0,.38-5.05,4.2,4.2,0,0,0-4.71-1.71c-1.6.49-2.47,1.87-3.7,3,3.15,2.69,5.49,5.73,4.71,10.14s-3.5,6.81-7.72,7.82A9.45,9.45,0,0,1,90.34,112C88.76,116.78,87.9,117.7,83.14,119.74ZM96.7,102.84a3.79,3.79,0,0,0-1.11-2.8c-3.25-3.27-6.5-6.55-9.79-9.78a4.08,4.08,0,0,0-5.73,0A4.14,4.14,0,0,0,79.79,96l.22.24c3.18,3.19,6.35,6.38,9.56,9.55a4,4,0,0,0,4.64.89A4,4,0,0,0,96.7,102.84Zm7.66-11.45A4.16,4.16,0,0,0,103,88.27l-3.8-3.8c-1.27-1.27-2.5-2.57-3.81-3.79a4.17,4.17,0,0,0-5.91,5.88q3.89,4,7.89,7.89a3.87,3.87,0,0,0,4.53.74A4,4,0,0,0,104.35,91.39Zm-31,7.32a4.17,4.17,0,0,0-3,7.1c2.51,2.56,5,5.08,7.6,7.61a4.18,4.18,0,1,0,5.93-5.9c-2.49-2.54-5-5-7.54-7.55A4,4,0,0,0,73.4,98.71Zm39.34,49.51c.94.92,1.77,1.74,2.61,2.54a4,4,0,0,0,5.84,0c3.25-3.2,6.49-6.42,9.66-9.7a7.56,7.56,0,0,0,1.4-2.51,2.12,2.12,0,0,0-.38-2.22c-.65-.73-1.35-1.4-2.06-2.12-.25.23-.45.41-.64.6-1.75,1.75-3.53,3.46-5.24,5.25A33,33,0,0,1,112.75,148.22ZM74.28,127.14a4.16,4.16,0,0,0,3.08-7q-2.84-2.91-5.75-5.76a4.17,4.17,0,1,0-5.94,5.86c1.89,1.94,3.83,3.84,5.75,5.75A3.89,3.89,0,0,0,74.28,127.14Z"/><path class="cls-5" d="M56,172.51c0,2.23,1.05,4,3.37,4a3,3,0,0,0,2.25-.9V176a3.27,3.27,0,0,1-2.25.8c-2.44,0-3.63-1.92-3.63-4.28s1.29-4.28,3.63-4.28a3.32,3.32,0,0,1,2.25.79v.33a3,3,0,0,0-2.25-.9C57.14,168.46,56,170.29,56,172.51Z"/><path class="cls-5" d="M70.16,172.51c0,2.36-1.29,4.28-3.63,4.28s-3.62-1.92-3.62-4.28,1.28-4.28,3.62-4.28S70.16,170.16,70.16,172.51Zm-.26,0c0-2.23-1.15-4.05-3.37-4.05s-3.36,1.83-3.36,4.05,1.14,4,3.36,4S69.91,174.74,69.91,172.51Z"/><path class="cls-5" d="M76.61,176.4v.24H72.15v-8.25h.22v8Z"/><path class="cls-5" d="M82.83,176.4v.24H78.38v-8.25h.22v8Z"/><path class="cls-5" d="M89.41,174.11H85.22l-1,2.53H84l3.2-8.25h.23l3.19,8.25H90.4Zm-.09-.22-2-5.18-2,5.18Z"/><path class="cls-5" d="M97.65,174.46a2.09,2.09,0,0,1-2.4,2.18H92.36v-8.25h2.7c1.4,0,2.36.7,2.36,2.06a1.81,1.81,0,0,1-1.41,2A1.91,1.91,0,0,1,97.65,174.46Zm-5.06-5.84v3.7h2.59c1.28,0,2-.62,2-1.86s-.83-1.84-2.1-1.84Zm4.8,5.84c0-1.15-.71-1.91-2.1-1.91h-2.7v3.85h2.66C96.74,176.4,97.39,175.61,97.39,174.46Z"/><path class="cls-5" d="M106.38,172.51c0,2.36-1.29,4.28-3.63,4.28s-3.62-1.92-3.62-4.28,1.28-4.28,3.62-4.28S106.38,170.16,106.38,172.51Zm-.26,0c0-2.23-1.15-4.05-3.37-4.05s-3.36,1.83-3.36,4.05,1.14,4,3.36,4S106.12,174.74,106.12,172.51Z"/><path class="cls-5" d="M113.66,176.64l-2.43-3.36h-2.64v3.35h-.22v-8.25H111a2.31,2.31,0,0,1,2.59,2.45,2.24,2.24,0,0,1-2.1,2.42l2.45,3.38ZM111,173.06a2.22,2.22,0,1,0,0-4.44h-2.42v4.44Z"/><path class="cls-5" d="M120.52,174.11h-4.19l-1,2.53h-.25l3.2-8.25h.23l3.19,8.25h-.23Zm-.09-.22-2-5.18-2,5.18Z"/><path class="cls-5" d="M127.48,168.63H125v8h-.22v-8h-2.51v-.24h5.24Z"/><path class="cls-5" d="M129.47,168.39v8.25h-.22v-8.25Z"/><path class="cls-5" d="M138.7,172.51c0,2.36-1.29,4.28-3.63,4.28s-3.62-1.92-3.62-4.28,1.28-4.28,3.62-4.28S138.7,170.16,138.7,172.51Zm-.26,0c0-2.23-1.15-4.05-3.37-4.05s-3.36,1.83-3.36,4.05,1.14,4,3.36,4S138.45,174.74,138.45,172.51Z"/><path class="cls-5" d="M146.45,168.39v8.25h-.22l-5.31-7.85v7.85h-.22v-8.25h.22l5.31,7.85v-7.85Z"/></svg>