<svg id="Calque_1" data-name="Calque 1" xmlns="http://www.w3.org/2000/svg" viewBox="0 0 195.84 266.4"><defs><style>.cls-1{fill:#9e8cc8;}.cls-2{font-size:26.4px;}.cls-2,.cls-3{fill:#241f20;font-family:DINCondensed-Bold, DIN Condensed;font-weight:700;}.cls-3{font-size:26.4px;}.cls-4,.cls-5{fill:none;stroke-miterlimit:10;}.cls-4{stroke:#000;stroke-width:0.75px;}.cls-5{stroke:#241f20;stroke-width:0.5px;}</style></defs><title>Plan de travail 36</title><path class="cls-1" d="M40.43,8.23c5.78,0,34.77,26.63,50.75,24.3,33.55-4.9,57.58,2.33,61.78,23.34,4,20.11,24.63,18.58,29.75,39.5s5.12,30.13,5.12,30.13V8.23H46.21"/><path class="cls-1" d="M156.6,258.17c-5.78,0-34.77-26.63-50.75-24.3-33.55,4.9-57.58-2.33-61.78-23.34C40,190.42,19.44,192,14.32,171S9.2,140.9,9.2,140.9V258.17H150.82"/><path class="cls-1" d="M79.12,153.82c-11.95-7.38-3.59-8.11-14-19.84-8.56-9.68-14.18-18.61-11-26.75,7.54-19.5,21.56-10.54,35.23-23.94,11.78-11.54,34.84-4.15,39.51,9.17s7.82,6.75,17.46,19.3c11.15,14.53-13,30.93-24.48,30.77S104.78,154,97.4,155.38C84.85,157.64,79.12,153.82,79.12,153.82Z"/><text class="cls-2" transform="translate(25.32 44.34) scale(0.95 1)">06</text><text class="cls-3" transform="translate(41.29 223.47) rotate(180) scale(0.91 1)">06</text><text class="cls-2" transform="translate(154.54 44.43) scale(0.95 1)">06</text><text class="cls-3" transform="translate(170.51 223.56) rotate(180) scale(0.91 1)">06</text><path class="cls-4" d="M87.33,131H76a3.79,3.79,0,0,1-4.06-3.76c-.24-3.79,1-6.8,4.56-8.64a23,23,0,0,1,11.26-3,22.6,22.6,0,0,1,11.75,3.83,7.25,7.25,0,0,1,3.21,5.59,14.31,14.31,0,0,1,0,2.41A3.73,3.73,0,0,1,99,131C95.09,131,91.21,131,87.33,131Z"/><path class="cls-4" d="M64.43,141.23l-2.16-2.06a1.68,1.68,0,0,1-.5-2,1.74,1.74,0,0,1,1.8-1.08H76.83a1.73,1.73,0,0,1,2,1.92c0,4.45,0,8.89,0,13.34a1.72,1.72,0,0,1-1.05,1.74,1.67,1.67,0,0,1-2-.46l-2.07-2.11c-.23.21-.43.38-.61.56-1.61,1.61-3.22,3.22-4.83,4.83a1.77,1.77,0,0,1-2.91,0q-3.22-3.2-6.42-6.42a1.75,1.75,0,0,1,0-2.85C60.73,144.91,62.52,143.13,64.43,141.23Z"/><path class="cls-4" d="M125.08,80.56l5.24-5.24c1.26-1.26,2-1.26,3.25,0l6.08,6.08c1.19,1.2,1.19,2,0,3.2l-5.3,5.27c.7.67,1.36,1.32,2,2a1.77,1.77,0,0,1,.6,2.08A1.84,1.84,0,0,1,135,95c-4.31,0-8.63,0-12.94,0-1.49,0-2.12-.61-2.12-2.08,0-4.34,0-8.68,0-13A1.81,1.81,0,0,1,121,78a1.75,1.75,0,0,1,2.09.57C123.72,79.18,124.36,79.82,125.08,80.56Z"/><path class="cls-4" d="M64.41,89.85l-5.33-5.33c-1.17-1.18-1.18-2,0-3.14l6.2-6.19c1.11-1.1,1.93-1.11,3,0,1.76,1.76,3.51,3.53,5.4,5.43.68-.71,1.32-1.38,1.95-2.06a1.75,1.75,0,0,1,2.08-.6,1.79,1.79,0,0,1,1.08,1.88c0,4.37,0,8.73,0,13.1a1.76,1.76,0,0,1-2,2H63.6a1.76,1.76,0,0,1-1.81-1.06,1.71,1.71,0,0,1,.52-2Z"/><path class="cls-4" d="M134.35,141.24l5.33,5.33c1.16,1.16,1.15,2,0,3.14l-6.14,6.14c-1.16,1.16-2,1.15-3.14,0L125,150.47l-1.93,2.08a1.74,1.74,0,0,1-2.09.58,1.81,1.81,0,0,1-1.06-1.89c0-4.37,0-8.73,0-13.1a1.76,1.76,0,0,1,2-2c4.37,0,8.73,0,13.1,0a1.79,1.79,0,0,1,1.88,1.08,1.77,1.77,0,0,1-.59,2.09C135.71,139.9,135.07,140.54,134.35,141.24Z"/><path class="cls-4" d="M115.53,131H108c-1.54,0-2.22-.88-2-2.39a12.24,12.24,0,0,0-1.62-8.94c-1-1.6-.62-2.61,1.2-3.19,5.93-1.89,11.43-.64,16.77,2.18,3.57,1.89,4.84,5.36,4.36,9a3.67,3.67,0,0,1-3.81,3.29Z"/><path class="cls-4" d="M87.34,96.69a8.56,8.56,0,1,1-8.55,8.6A8.57,8.57,0,0,1,87.34,96.69Z"/><path class="cls-4" d="M111.34,113.81a8.56,8.56,0,1,1,8.61-8.46A8.58,8.58,0,0,1,111.34,113.81Z"/><path class="cls-5" d="M87.32,168.16v8.4H87.1v-8l-3.53,5.73H83.5L80,168.59v8h-.23v-8.4H80l3.57,5.78,3.57-5.78Z"/><path class="cls-5" d="M94.49,176.32v.24H89.81v-8.4h4.65v.23H90v3.82h4.2v.23H90v3.89Z"/><path class="cls-5" d="M101.2,176.32v.24H96.52v-8.4h4.65v.23H96.75v3.82h4.2v.23h-4.2v3.89Z"/><path class="cls-5" d="M107.88,168.4h-2.55v8.16h-.23V168.4h-2.55v-.24h5.33Z"/><path class="cls-5" d="M118.05,168.16v5.54c0,1.92-.88,3-2.68,3s-2.68-1.09-2.68-3v-5.54h.23v5.54c0,1.78.79,2.77,2.45,2.77s2.45-1,2.45-2.77v-5.54Z"/><path class="cls-5" d="M125.86,170.66a2.36,2.36,0,0,1-2.63,2.49h-2.46v3.41h-.23v-8.4h2.69A2.35,2.35,0,0,1,125.86,170.66Zm-.27,0a2.11,2.11,0,0,0-2.36-2.27h-2.46v4.52h2.46A2.1,2.1,0,0,0,125.59,170.66Z"/></svg>