<svg id="Calque_1" data-name="Calque 1" xmlns="http://www.w3.org/2000/svg" viewBox="0 0 195.84 266.4"><defs><style>.cls-1{fill:#fafaaa;}.cls-2{font-size:26.4px;}.cls-2,.cls-3{fill:#241f20;font-family:DINCondensed-Bold, DIN Condensed;font-weight:700;}.cls-3{font-size:26.4px;}.cls-4,.cls-5{fill:none;stroke-miterlimit:10;}.cls-4{stroke:#000;stroke-width:0.75px;}.cls-5{stroke:#241f20;stroke-width:0.5px;}</style></defs><title>Plan de travail 37</title><path class="cls-1" d="M38.94,8.23c5.78,0,34.77,26.63,50.75,24.3,33.55-4.9,57.58,2.33,61.78,23.34,4,20.11,24.63,18.58,29.75,39.5s5.12,30.13,5.12,30.13V8.23H44.72"/><path class="cls-1" d="M155.11,258.17c-5.78,0-34.77-26.63-50.75-24.3-33.55,4.9-57.58-2.33-61.78-23.34-4-20.11-24.63-18.58-29.75-39.5S7.71,140.9,7.71,140.9V258.17H149.33"/><path class="cls-1" d="M77.63,153.82c-11.95-7.38-3.59-8.11-14-19.84-8.56-9.68-14.18-18.61-11-26.75,7.54-19.5,21.56-10.54,35.23-23.94,11.78-11.54,34.84-4.15,39.51,9.17s7.82,6.75,17.46,19.3c11.15,14.53-13,30.93-24.48,30.77S103.29,154,95.91,155.38C83.36,157.64,77.63,153.82,77.63,153.82Z"/><text class="cls-2" transform="translate(23.83 44.34) scale(0.95 1)">07</text><text class="cls-3" transform="translate(39.8 223.47) rotate(180) scale(0.91 1)">07</text><text class="cls-2" transform="translate(153.05 44.43) scale(0.95 1)">07</text><text class="cls-3" transform="translate(169.02 223.56) rotate(180) scale(0.91 1)">07</text><path class="cls-4" d="M129.31,74.83h1.75a1.21,1.21,0,0,0,.26.15,5.1,5.1,0,0,1,3.81,3.87c.45,1.71.89,3.43,1.35,5.14.51,1.88,1,3.75,1.58,5.63v.8a2.4,2.4,0,0,1-1.91,1.46c-8.75,2-17.49,4-26.23,6l-29.87,6.77c-.86.19-1.71.41-2.57.61l0,.14h.87q28.66,0,57.31,0a2.27,2.27,0,0,1,2.37,1.3v42a1.39,1.39,0,0,0-.12.29,8.44,8.44,0,0,1-8.69,7.35q-30.26,0-60.52,0a9.71,9.71,0,0,1-2.28-.25A8.41,8.41,0,0,1,60,147.58q0-18.41,0-36.82a8,8,0,0,0-.24-1.88c-.93-3.75-1.9-7.49-2.81-11.24a6,6,0,0,1-.18-2.11c.3-2.38,1.82-3.85,4.41-4.46l24.64-5.84,35.92-8.51C124.24,76.1,126.77,75.46,129.31,74.83Zm-66,47.56v.9q0,12,0,23.93c0,3.58,2.1,5.67,5.69,5.67q30,0,60,0a5.4,5.4,0,0,0,5.69-5.71c-.09-8,0-15.9,0-23.85v-1Zm59.93-31.08-.54-.57c-2.73-2.74-5.48-5.47-8.19-8.23a1.15,1.15,0,0,0-1.25-.35c-2.54.63-5.09,1.23-7.64,1.84l-4.09,1c.05.13.06.19.09.23q4.32,4.34,8.66,8.66a1,1,0,0,0,.77.21C115.09,93.18,119.11,92.26,123.25,91.32ZM106.6,95.1a2.13,2.13,0,0,0-.19-.29q-4.27-4.28-8.55-8.54a1.05,1.05,0,0,0-.83-.21c-1.27.26-2.53.58-3.79.88L85,88.9c.24.26.41.45.59.64,2.4,2.4,4.84,4.76,7.18,7.22a2.61,2.61,0,0,0,2.94.87C99.27,96.69,102.89,95.94,106.6,95.1ZM90,98.86a3,3,0,0,0-.23-.31C87,95.76,84.22,93,81.4,90.2a1.32,1.32,0,0,0-1.05-.2c-3.43.79-6.84,1.62-10.26,2.43l-1.6.39c2.95,2.95,5.79,5.79,8.65,8.62a1,1,0,0,0,.76.16c2.07-.44,4.13-.92,6.19-1.38Zm33.35,9.87h-.81c-3.87,0-7.73,0-11.6,0a1,1,0,0,0-1.08.68c-1.44,2.94-2.92,5.87-4.39,8.8-.1.21-.18.42-.31.73H106c3.87,0,7.73,0,11.6,0a1,1,0,0,0,1.08-.68c1.43-2.92,2.89-5.83,4.35-8.74C123.12,109.3,123.22,109.07,123.37,108.74Zm-33.92,0c-4.34,0-8.53,0-12.71,0a1.07,1.07,0,0,0-.72.55c-1.53,3-3,6-4.52,9-.09.17-.14.36-.24.61,4.3,0,8.51,0,12.72,0,.22,0,.52-.31.64-.54,1-2,2-4,3-6Zm-1.22,10.13a4.06,4.06,0,0,0,.45.06c4.05,0,8.1,0,12.15,0a1.14,1.14,0,0,0,.79-.57c1.52-3,3-6,4.48-8.93.09-.18.16-.37.27-.63l-.76,0c-3.87,0-7.73,0-11.6,0a1.08,1.08,0,0,0-1.13.72c-1.42,2.9-2.87,5.78-4.31,8.66C88.46,118.34,88.36,118.58,88.23,118.87Zm46-30.05c-.79-3-1.55-5.89-2.32-8.78-.43-1.63-1.1-2-2.72-1.64L122.64,80l-4.8,1.16c3.12,3.11,6.12,6.1,9.13,9.08a.62.62,0,0,0,.48.16C129.69,89.86,131.93,89.34,134.25,88.82Zm.34,19.92c-2.3,0-4.5,0-6.69,0a1,1,0,0,0-1,.64c-1.46,3-2.95,5.92-4.42,8.88-.1.2-.17.4-.27.63h12.4Zm-61.22-6.08c0-.11,0-.17-.07-.21Q69.09,98.23,64.87,94a.8.8,0,0,0-.62-.2c-1,.2-2,.43-2.93.71a1.6,1.6,0,0,0-1.23,1.94,14.83,14.83,0,0,0,.34,1.47l1.84,7.24Zm-1,6.13h-9v10.14c1.15,0,2.23,0,3.31,0a1,1,0,0,0,1-.65c1.45-2.94,2.92-5.87,4.38-8.81C72.21,109.28,72.29,109.06,72.4,108.79Z"/><path class="cls-5" d="M76.77,172.44c0,2.69-1.53,4.12-4.13,4.12h-2v-8.25h2C75.23,168.31,76.77,169.74,76.77,172.44Zm-.26,0c0-2.56-1.4-3.9-3.87-3.9H70.85v7.79h1.78C75.11,176.32,76.51,175,76.51,172.44Z"/><path class="cls-5" d="M85.55,172.44c0,2.36-1.29,4.28-3.63,4.28s-3.62-1.92-3.62-4.28,1.28-4.28,3.62-4.28S85.55,170.08,85.55,172.44Zm-.26,0c0-2.23-1.15-4.05-3.37-4.05s-3.36,1.83-3.36,4.05,1.14,4,3.36,4S85.29,174.66,85.29,172.44Z"/><path class="cls-5" d="M92.8,168.31v5.44c0,1.89-.86,3-2.63,3s-2.63-1.07-2.63-3v-5.44h.22v5.44c0,1.74.77,2.72,2.41,2.72s2.41-1,2.41-2.72v-5.44Z"/><path class="cls-5" d="M100.52,174.38a2.09,2.09,0,0,1-2.4,2.18H95.24v-8.25h2.7c1.4,0,2.36.7,2.36,2.06a1.82,1.82,0,0,1-1.41,2A1.91,1.91,0,0,1,100.52,174.38Zm-5.06-5.84v3.7H98c1.28,0,2-.62,2-1.86s-.83-1.84-2.1-1.84Zm4.8,5.84c0-1.15-.7-1.91-2.1-1.91h-2.7v3.85h2.66C99.62,176.32,100.26,175.54,100.26,174.38Z"/><path class="cls-5" d="M106.91,176.32v.24h-4.46v-8.25h.22v8Z"/><path class="cls-5" d="M113.49,174H109.3l-1,2.53h-.25l3.2-8.25h.23l3.19,8.25h-.23Zm-.09-.22-2-5.18-2,5.18Z"/><path class="cls-5" d="M122,172.14v3.66a4,4,0,0,1-2.53.91c-2.44,0-3.63-1.72-3.63-4.28,0-2.36,1.29-4.28,3.63-4.28a3.39,3.39,0,0,1,2.28.79v.33a3.1,3.1,0,0,0-2.28-.9c-2.22,0-3.37,1.83-3.37,4.05,0,2.43,1.05,4,3.37,4a3.68,3.68,0,0,0,2.31-.77v-3.57Z"/><path class="cls-5" d="M128.86,176.32v.24h-4.6v-8.25h4.57v.22h-4.34v3.75h4.12v.22h-4.12v3.82Z"/></svg>