<svg id="Calque_1" data-name="Calque 1" xmlns="http://www.w3.org/2000/svg" viewBox="0 0 195.84 266.4"><defs><style>.cls-1{fill:#fafaaa;}.cls-2{font-size:26.4px;}.cls-2,.cls-3{fill:#241f20;font-family:DINCondensed-Bold, DIN Condensed;font-weight:700;}.cls-3{font-size:26.4px;}.cls-4,.cls-5{fill:none;stroke-miterlimit:10;}.cls-4{stroke:#000;stroke-width:0.75px;}.cls-5{stroke:#241f20;stroke-width:0.5px;}</style></defs><title>Plan de travail 43</title><path class="cls-1" d="M39.32,8.23c5.78,0,34.77,26.63,50.75,24.3,33.55-4.9,57.58,2.33,61.78,23.34,4,20.11,24.63,18.58,29.75,39.5s5.12,30.13,5.12,30.13V8.23H45.1"/><path class="cls-1" d="M155.5,258.17c-5.78,0-34.77-26.63-50.75-24.3-33.55,4.9-57.58-2.33-61.78-23.34-4-20.11-24.63-18.58-29.75-39.5S8.1,140.9,8.1,140.9V258.17H149.72"/><path class="cls-1" d="M78,153.82c-11.95-7.38-3.59-8.11-14-19.84-8.56-9.68-14.18-18.61-11-26.75,7.54-19.5,21.56-10.54,35.23-23.94,11.78-11.54,34.84-4.15,39.51,9.17s7.82,6.75,17.46,19.3c11.15,14.53-13,30.93-24.48,30.77S103.67,154,96.3,155.38C83.75,157.64,78,153.82,78,153.82Z"/><text class="cls-2" transform="translate(24.22 44.34) scale(0.95 1)">08</text><text class="cls-3" transform="translate(40.19 223.47) rotate(180) scale(0.91 1)">08</text><text class="cls-2" transform="translate(153.44 44.43) scale(0.95 1)">08</text><text class="cls-3" transform="translate(169.4 223.56) rotate(180) scale(0.91 1)">08</text><path class="cls-4" d="M64.39,152.56V81.35a1.64,1.64,0,0,1,1.8-1c.42,0,.84,0,1.27,0h5.21c0-1.26,0-2.44,0-3.62a1.9,1.9,0,0,1,1-1.91H84.1a1.77,1.77,0,0,1,1,1.82c-.05,1.21,0,2.42,0,3.65h30.35c0-1.22,0-2.39,0-3.55a1.91,1.91,0,0,1,1-1.93h10.49a1.76,1.76,0,0,1,1,1.82c-.05,1.21,0,2.42,0,3.72h.94c1.93,0,3.87,0,5.8,0a1.35,1.35,0,0,1,1.53,1.51c0,.26,0,.53,0,.79q0,19.46,0,38.93a1.1,1.1,0,0,0,.61,1.14,17.84,17.84,0,0,1,8.76,18.81c-2,11.92-15.84,18.41-26.33,12.4a3.59,3.59,0,0,0-1.7-.45q-25.5,0-51,0A2.15,2.15,0,0,1,64.39,152.56Zm50.47-1.91a17.31,17.31,0,0,1-3.76-6,1,1,0,0,0-1.18-.82q-17.44,0-34.88,0h-.93v-40h52.37v16.35l6.82.82V97H67.21v53.66ZM128,123.13A15.17,15.17,0,1,0,143,138.39,15.17,15.17,0,0,0,128,123.13Zm-55.29-40H67.2V94.07h66.12V83.15h-5.49c0,1.26,0,2.47,0,3.68s-.46,1.81-1.82,1.81h-8.74c-1.39,0-1.84-.47-1.85-1.87,0-1.21,0-2.41,0-3.62H85.07c0,1.31,0,2.57,0,3.84s-.5,1.65-1.65,1.65q-4.53,0-9.06,0c-1.19,0-1.69-.52-1.69-1.71S72.67,84.45,72.67,83.16Zm26.18,48.28H89.26V141h9.58Zm-12.39,0H76.84V141h9.61ZM101.67,119v9.55h9.57V119Zm-2.83,0H89.26v9.53h9.58Zm-22,0v9.53h9.59V119Zm46.81-12.39h-9.57v9.52h9.57Zm-12.41,9.52v-9.52h-9.58v9.52Zm-22,0h9.59v-9.5H89.26Zm-2.83,0v-9.52H76.85v9.52ZM101.66,141h8.46a18.29,18.29,0,0,1,1.14-9.52h-9.6ZM125,85.8V77.63h-6.79V85.8ZM82.29,77.64H75.47v8.15h6.82Zm31.79,49.16a18.31,18.31,0,0,1,9.56-5.94V119h-9.56Z"/><path class="cls-4" d="M127.27,141.65c.19-.26.36-.48.52-.72l6.85-9.84a5.5,5.5,0,0,1,.47-.64,1.36,1.36,0,0,1,2.23,1.5,4,4,0,0,1-.37.61l-8,11.53c-.83,1.19-1.52,1.29-2.61.39-2-1.66-4.06-3.32-6.08-5a1.38,1.38,0,1,1,1.67-2.18c1.59,1.28,3.16,2.58,4.73,3.87Z"/><path class="cls-5" d="M70.11,172.44c0,2.23,1.05,4,3.37,4a3,3,0,0,0,2.25-.9v.33a3.27,3.27,0,0,1-2.25.8c-2.44,0-3.63-1.92-3.63-4.28s1.29-4.28,3.63-4.28a3.32,3.32,0,0,1,2.25.79v.33a3,3,0,0,0-2.25-.9C71.27,168.38,70.11,170.21,70.11,172.44Z"/><path class="cls-5" d="M84.29,172.44c0,2.36-1.29,4.28-3.63,4.28s-3.62-1.92-3.62-4.28,1.28-4.28,3.62-4.28S84.29,170.08,84.29,172.44Zm-.26,0c0-2.23-1.15-4.05-3.37-4.05s-3.36,1.83-3.36,4.05,1.14,4,3.36,4S84,174.66,84,172.44Z"/><path class="cls-5" d="M92,168.31v8.25h-.22l-5.31-7.85v7.85h-.22v-8.25h.22l5.31,7.85v-7.85Z"/><path class="cls-5" d="M100.31,168.31l-3.19,8.25h-.23l-3.19-8.25h.23L97,176.25l3.08-7.94Z"/><path class="cls-5" d="M106.56,176.32v.24H102v-8.25h4.57v.22h-4.34v3.75h4.12v.22h-4.12v3.82Z"/><path class="cls-5" d="M114.31,168.31v8.25h-.22l-5.31-7.85v7.85h-.22v-8.25h.22l5.31,7.85v-7.85Z"/><path class="cls-5" d="M121.31,168.55H118.8v8h-.22v-8h-2.51v-.24h5.24Z"/><path class="cls-5" d="M123.3,168.31v8.25h-.22v-8.25Z"/><path class="cls-5" d="M132.54,172.44c0,2.36-1.29,4.28-3.63,4.28s-3.62-1.92-3.62-4.28,1.28-4.28,3.62-4.28S132.54,170.08,132.54,172.44Zm-.26,0c0-2.23-1.15-4.05-3.37-4.05s-3.36,1.83-3.36,4.05,1.14,4,3.36,4S132.28,174.66,132.28,172.44Z"/><path class="cls-5" d="M140.28,168.31v8.25h-.22l-5.31-7.85v7.85h-.22v-8.25h.22l5.31,7.85v-7.85Z"/></svg>