<svg id="Calque_1" data-name="Calque 1" xmlns="http://www.w3.org/2000/svg" viewBox="0 0 195.84 266.4"><defs><style>.cls-1{fill:#f3b0d4;}.cls-2{font-size:26.4px;}.cls-2,.cls-3{fill:#241f20;font-family:DINCondensed-Bold, DIN Condensed;font-weight:700;}.cls-3{font-size:26.4px;}.cls-4,.cls-5{fill:none;stroke-miterlimit:10;}.cls-4{stroke:#000;stroke-width:0.75px;}.cls-5{stroke:#241f20;stroke-width:0.5px;}</style></defs><title>Plan de travail 51</title><path class="cls-1" d="M39.83,8.23c5.78,0,34.77,26.63,50.75,24.3,33.55-4.9,57.58,2.33,61.78,23.34,4,20.11,24.63,18.58,29.75,39.5s5.12,30.13,5.12,30.13V8.23H45.61"/><path class="cls-1" d="M156,258.17c-5.78,0-34.77-26.63-50.75-24.3-33.55,4.9-57.58-2.33-61.78-23.34-4-20.11-24.63-18.58-29.75-39.5S8.61,140.9,8.61,140.9V258.17H150.23"/><path class="cls-1" d="M78.53,153.82c-11.95-7.38-3.59-8.11-14-19.84-8.56-9.68-14.18-18.61-11-26.75,7.54-19.5,21.56-10.54,35.23-23.94,11.78-11.54,34.84-4.15,39.51,9.17s7.82,6.75,17.46,19.3c11.15,14.53-13,30.93-24.48,30.77S104.19,154,96.81,155.38C84.26,157.64,78.53,153.82,78.53,153.82Z"/><text class="cls-2" transform="translate(24.73 44.34) scale(0.95 1)">09</text><text class="cls-3" transform="translate(40.7 223.47) rotate(180) scale(0.91 1)">09</text><text class="cls-2" transform="translate(153.95 44.43) scale(0.95 1)">09</text><text class="cls-3" transform="translate(169.92 223.56) rotate(180) scale(0.91 1)">09</text><path class="cls-4" d="M60.17,96c.73-1.05,1.71-1.29,2.32-.49a2.3,2.3,0,0,1,.37,1.32q0,11.63,0,23.26,0,14.33,0,28.66c0,2.93,1.64,4.57,4.57,4.57h32c0-1,0-1.95,0-2.89,0-.19-.33-.45-.56-.53a28.48,28.48,0,0,0-10.29-2,87.8,87.8,0,0,0-20.89,2.55c-1.42.35-2.1-.18-2.1-1.68q0-29.34,0-58.67c0-1.24.27-1.6,1.45-1.9a88.07,88.07,0,0,1,21.76-2.64,31.25,31.25,0,0,1,12,2.55,2,2,0,0,1,1.38,2.12q0,25,0,50.1v1.12c1.54-.84,2.94-1.62,4.36-2.37a134.26,134.26,0,0,1,18.11-8.2.77.77,0,0,0,.58-.87q0-25.64,0-51.29c0-.18,0-.35-.06-.65-1.26.54-2.44,1-3.61,1.56a148.55,148.55,0,0,0-15.22,8c-.23.14-.45.28-.68.41a1.36,1.36,0,0,1-1.93-.46,1.32,1.32,0,0,1,.54-1.85q1.79-1.1,3.62-2.13A131.8,131.8,0,0,1,125.62,75c1.51-.58,2.31-.06,2.31,1.55q0,27.31,0,54.62c0,1.14-.22,1.5-1.23,1.85a139.92,139.92,0,0,0-24.39,11.56c-2,1.14-2.89.37-2.88-1.69.06-17.12,0-34.25.05-51.37a1.24,1.24,0,0,0-1-1.41,30.69,30.69,0,0,0-11-1.84A96.09,96.09,0,0,0,69.2,90.45c-.74.16-.94.44-.94,1.2q0,27.43,0,54.86v1c1.24-.24,2.42-.49,3.59-.71a88.3,88.3,0,0,1,17.28-1.56,30.68,30.68,0,0,1,11,2.3,1.86,1.86,0,0,0,1.43,0,42.63,42.63,0,0,1,17.26-2.23,83.62,83.62,0,0,1,14,2c.12,0,.25,0,.44.07v-.91q0-27.43,0-54.86c0-.72-.17-1.08-.93-1.08a3.18,3.18,0,0,1-1-.22,1.33,1.33,0,0,1-.9-1.5,1.26,1.26,0,0,1,1.36-1.08,19.39,19.39,0,0,1,3.25.66c.38.12.65.68.88,1.09.11.2,0,.52,0,.78q0,29.14,0,58.28c0,.21,0,.42,0,.63a1.35,1.35,0,0,1-1.8,1.32,69.87,69.87,0,0,0-11.67-2.2c-6.58-.72-13.1-.64-19.45,1.54-.7.24-1.07.52-1,1.31a15.79,15.79,0,0,1,0,1.82,2.22,2.22,0,0,0,.07.33h32a4.12,4.12,0,0,0,4.47-4.51q0-25.88,0-51.76c0-1.35.45-2,1.37-2s1.34.67,1.34,2q0,25.72,0,51.45c0,4.07-1.79,6.39-5.74,7.42a.65.65,0,0,0-.14.08H66l-.6-.17a6.75,6.75,0,0,1-5-4.6c-.11-.32-.21-.63-.31-1Z"/><path class="cls-4" d="M85.74,131.47c2.33.29,4.66.56,7,.9A1.33,1.33,0,0,1,94,134c-.16.8-.88,1.16-1.86,1a37.57,37.57,0,0,0-14.26.17c-.78.14-1.55.32-2.33.49a1.36,1.36,0,0,1-1.78-1A1.33,1.33,0,0,1,74.89,133,60.4,60.4,0,0,1,85.74,131.47Z"/><path class="cls-4" d="M94,125.59a1.31,1.31,0,0,1-1.59,1.32c-5.66-1.21-11.25-.65-16.82.57-1,.22-1.66-.15-1.84-1s.26-1.41,1.22-1.63a41.37,41.37,0,0,1,17.37-.74C93.55,124.36,94,124.78,94,125.59Z"/><path class="cls-4" d="M85.09,117.89l-9.15,1.39c-.21,0-.41.1-.62.12a1.3,1.3,0,0,1-1.55-1,1.26,1.26,0,0,1,1-1.58c1.41-.34,2.83-.64,4.27-.86A37.89,37.89,0,0,1,92.4,116c.18,0,.36.07.54.13a1.34,1.34,0,1,1-.56,2.62c-1.36-.19-2.71-.43-4.08-.54-1-.09-2.11,0-3.17,0Z"/><path class="cls-4" d="M92.57,102.45c-1.65-.19-3.3-.46-5-.54a42.49,42.49,0,0,0-12,1.18c-.6.14-1.23.17-1.58-.39a1.72,1.72,0,0,1-.23-1.3,1.61,1.61,0,0,1,1-.88,41,41,0,0,1,17.75-.71,3.45,3.45,0,0,1,.46.11,1.32,1.32,0,0,1,.93,1.54A1.19,1.19,0,0,1,92.57,102.45Z"/><path class="cls-4" d="M92.9,110.67c-1.49-.2-2.69-.41-3.89-.53a41.82,41.82,0,0,0-13.22,1,4.06,4.06,0,0,1-.54.1,1.3,1.3,0,0,1-1.5-1.09,1.26,1.26,0,0,1,1-1.5c1.33-.33,2.68-.61,4-.83a39.08,39.08,0,0,1,13-.09,9.59,9.59,0,0,1,1.31.3,1.29,1.29,0,0,1,.92,1.54A1.25,1.25,0,0,1,92.9,110.67Z"/><path class="cls-4" d="M121.14,107.32a1.41,1.41,0,0,1-1,1.23l-11.79,5.24a1.4,1.4,0,0,1-2-.49,1.3,1.3,0,0,1,.66-1.86c4-1.81,8-3.61,12-5.36A1.38,1.38,0,0,1,121.14,107.32Z"/><path class="cls-4" d="M119.68,122.18a1.34,1.34,0,0,1,.52,2.61c-1.59.65-3.21,1.23-4.77,1.93-2.33,1.05-4.62,2.21-7,3.26a2.17,2.17,0,0,1-1.54.06,1.34,1.34,0,0,1-.63-1.13,2,2,0,0,1,.89-1.25q3.45-1.76,7-3.35c1.56-.71,3.17-1.3,4.77-1.93A5.46,5.46,0,0,1,119.68,122.18Z"/><path class="cls-4" d="M121.14,99.45c-.21.21-.53.75-1,1-3.89,1.78-7.8,3.49-11.7,5.23-.93.42-1.68.26-2.06-.48a1.35,1.35,0,0,1,.82-1.93c3.87-1.75,7.75-3.48,11.63-5.21a3,3,0,0,1,.76-.23C120.39,97.67,121.13,98.32,121.14,99.45Z"/><path class="cls-4" d="M119.65,114a1.36,1.36,0,0,1,1.46,1.07,1.34,1.34,0,0,1-.93,1.55c-1.25.5-2.53.93-3.75,1.48-2.62,1.19-5.21,2.44-7.82,3.65a2.69,2.69,0,0,1-1,.34,1.34,1.34,0,0,1-.59-2.52c1-.51,1.92-1,2.91-1.43q4.34-1.93,8.7-3.81A8.32,8.32,0,0,1,119.65,114Z"/><path class="cls-4" d="M107.73,97.78a1.39,1.39,0,0,1-1.43-1,1.27,1.27,0,0,1,.75-1.57c1.44-.72,2.87-1.46,4.34-2.12C113.8,92,116.23,91,118.66,90a5.21,5.21,0,0,1,.6-.21,1.36,1.36,0,1,1,.86,2.57c-1.45.58-2.92,1.1-4.33,1.74-2.41,1.08-4.78,2.24-7.17,3.37C108.29,97.57,107.94,97.69,107.73,97.78Z"/><path class="cls-5" d="M80.31,176.09v.24h-4.6v-8.25h4.57v.22H75.93v3.75h4.12v.22H75.93v3.82ZM79,165.44l-1,1.5h-.15l.81-1.5Z"/><path class="cls-5" d="M82.11,172.21c0,2.23,1.05,4,3.37,4a3,3,0,0,0,2.25-.9v.33a3.28,3.28,0,0,1-2.25.8c-2.44,0-3.63-1.92-3.63-4.28s1.29-4.28,3.63-4.28a3.32,3.32,0,0,1,2.25.79V169a3,3,0,0,0-2.25-.9C83.26,168.15,82.11,170,82.11,172.21Z"/><path class="cls-5" d="M95,176.33,92.59,173H89.94v3.35h-.22v-8.25h2.64a2.31,2.31,0,0,1,2.59,2.45,2.24,2.24,0,0,1-2.1,2.42l2.45,3.38Zm-2.65-3.58a2.22,2.22,0,1,0,0-4.44H89.94v4.44Z"/><path class="cls-5" d="M97.4,168.08v8.25h-.22v-8.25Z"/><path class="cls-5" d="M104.41,168.32H101.9v8h-.22v-8H99.17v-.24h5.24Z"/><path class="cls-5" d="M111.43,168.08v5.44c0,1.89-.86,3-2.63,3s-2.63-1.07-2.63-3v-5.44h.22v5.44c0,1.74.77,2.72,2.41,2.72s2.41-1,2.41-2.72v-5.44Z"/><path class="cls-5" d="M119.17,176.33,116.74,173H114.1v3.35h-.22v-8.25h2.64a2.31,2.31,0,0,1,2.59,2.45,2.24,2.24,0,0,1-2.1,2.42l2.45,3.38Zm-2.65-3.58a2.22,2.22,0,1,0,0-4.44H114.1v4.44Z"/><path class="cls-5" d="M125.93,176.09v.24h-4.6v-8.25h4.57v.22h-4.34v3.75h4.12v.22h-4.12v3.82Z"/></svg>