<svg id="Calque_1" data-name="Calque 1" xmlns="http://www.w3.org/2000/svg" xmlns:xlink="http://www.w3.org/1999/xlink" viewBox="0 0 195.84 266.4"><defs><style>.cls-1,.cls-31{fill:#080807;}.cls-1,.cls-2,.cls-22,.cls-29{stroke:#000;}.cls-1,.cls-13,.cls-2,.cls-22,.cls-23,.cls-29,.cls-8{stroke-miterlimit:10;}.cls-1,.cls-2{stroke-width:0.75px;}.cls-2,.cls-24{fill:#fff;}.cls-3{font-size:28.03px;}.cls-15,.cls-16,.cls-17,.cls-18,.cls-20,.cls-21,.cls-3,.cls-4{fill:#241f20;}.cls-15,.cls-16,.cls-17,.cls-18,.cls-20,.cls-21,.cls-3{font-family:DINCondensed-Bold, DIN Condensed;font-weight:700;}.cls-4{font-size:7.48px;}.cls-13,.cls-4,.cls-8{font-family:MADEFutureX-Line, MADE Future X;}.cls-5{letter-spacing:-0.01em;}.cls-6{letter-spacing:0em;}.cls-7{fill:url(#Dégradé_sans_nom_14);}.cls-8{font-size:5.89px;}.cls-13,.cls-22,.cls-23,.cls-29,.cls-8{fill:none;}.cls-13,.cls-8{stroke:#fff;stroke-width:0.5px;}.cls-9{fill:url(#Dégradé_sans_nom_14-2);}.cls-10{fill:url(#Dégradé_sans_nom_14-3);}.cls-11{fill:url(#Dégradé_sans_nom_14-4);}.cls-12{fill:url(#Dégradé_sans_nom_14-5);}.cls-13{font-size:6.26px;}.cls-14{letter-spacing:-0.01em;}.cls-15{font-size:2.71px;}.cls-16{font-size:2.73px;}.cls-17{font-size:2.75px;}.cls-18{font-size:2.73px;}.cls-19{fill:#eaa775;}.cls-20{font-size:4.64px;}.cls-21{font-size:4.64px;}.cls-22{stroke-width:0.25px;}.cls-23{stroke:#241f20;stroke-width:0.15px;}.cls-25{fill:#fafaaa;}.cls-26{fill:#f3b0d4;}.cls-27{fill:#fd86a0;}.cls-28{fill:#c8e999;}.cls-29{stroke-width:0.2px;}.cls-30{fill:#9e8cc8;}</style><linearGradient id="Dégradé_sans_nom_14" x1="23.64" y1="92.07" x2="62.87" y2="92.07" gradientUnits="userSpaceOnUse"><stop offset="0" stop-color="#3ebdee"/><stop offset="0.03" stop-color="#45b8eb"/><stop offset="0.36" stop-color="#8f86c5"/><stop offset="0.51" stop-color="#ac72b6"/><stop offset="0.55" stop-color="#b06aad"/><stop offset="0.75" stop-color="#bf4b86"/><stop offset="0.9" stop-color="#c9386f"/><stop offset="1" stop-color="#cc3166"/></linearGradient><linearGradient id="Dégradé_sans_nom_14-2" x1="23.64" y1="125.23" x2="62.87" y2="125.23" xlink:href="#Dégradé_sans_nom_14"/><linearGradient id="Dégradé_sans_nom_14-3" x1="24.12" y1="159.32" x2="63.35" y2="159.32" xlink:href="#Dégradé_sans_nom_14"/><linearGradient id="Dégradé_sans_nom_14-4" x1="24.12" y1="192.48" x2="63.35" y2="192.48" xlink:href="#Dégradé_sans_nom_14"/><linearGradient id="Dégradé_sans_nom_14-5" x1="23.64" y1="225.65" x2="62.87" y2="225.65" xlink:href="#Dégradé_sans_nom_14"/></defs><title>Plan de travail 57</title><rect class="cls-1" x="8.63" y="8.15" width="178.58" height="249.45"/><rect class="cls-2" x="16.33" y="16.14" width="164.32" height="233.3" rx="12" ry="12"/><text class="cls-3" transform="translate(55.4 50) scale(0.95 1)">Aide de jeu</text><text class="cls-4" transform="translate(25.05 67.66) scale(0.95 1)">De la combinaison la plus <tspan class="cls-5" x="87.08" y="0">f</tspan><tspan x="89.62" y="0">orte à la plus </tspan><tspan class="cls-5" x="134.94" y="0">f</tspan><tspan class="cls-6" x="137.47" y="0">aible :</tspan></text><rect class="cls-7" x="23.64" y="80.27" width="39.23" height="23.59" rx="6.99" ry="6.99"/><text class="cls-8" transform="translate(26.56 93.15) scale(0.95 1)">Suite couleur</text><rect class="cls-9" x="23.64" y="113.44" width="39.23" height="23.59" rx="6.99" ry="6.99"/><rect class="cls-10" x="24.12" y="147.52" width="39.23" height="23.59" rx="6.99" ry="6.99"/><rect class="cls-11" x="24.12" y="180.69" width="39.23" height="23.59" rx="6.99" ry="6.99"/><rect class="cls-12" x="23.64" y="213.85" width="39.23" height="23.59" rx="6.99" ry="6.99"/><text class="cls-13" transform="translate(34.2 126.65) scale(0.95 1)">Brelan</text><text class="cls-13" transform="translate(33.05 160.94) scale(0.95 1)"><tspan class="cls-14">C</tspan><tspan x="4.09" y="0">ouleur</tspan></text><text class="cls-13" transform="translate(36.47 194.31) scale(0.95 1)">Suite</text><text class="cls-13" transform="translate(33.05 227.73) scale(0.95 1)">Somme</text><text class="cls-15" transform="translate(80.17 148.87) scale(0.95 1)">01</text><text class="cls-15" transform="translate(93.42 148.88) scale(0.95 1)">01</text><text class="cls-15" transform="translate(113.12 148.29) scale(0.95 1)">04</text><text class="cls-15" transform="translate(126.37 148.3) scale(0.95 1)">04</text><text class="cls-15" transform="translate(144.99 148.22) scale(0.95 1)">09</text><text class="cls-15" transform="translate(158.24 148.22) scale(0.95 1)">09</text><text class="cls-16" transform="translate(78.73 183.45) scale(0.95 1)">03</text><text class="cls-16" transform="translate(92.1 183.46) scale(0.95 1)">03</text><text class="cls-16" transform="translate(112.45 183.21) scale(0.95 1)">04</text><text class="cls-16" transform="translate(125.82 183.22) scale(0.95 1)">04</text><text class="cls-17" transform="translate(143.47 182.18) scale(0.95 1)">05</text><text class="cls-17" transform="translate(156.93 182.19) scale(0.95 1)">05</text><text class="cls-18" transform="translate(79.14 217.1) scale(0.95 1)">01</text><text class="cls-18" transform="translate(92.49 217.11) scale(0.95 1)">01</text><text class="cls-16" transform="translate(112.03 216.94) scale(0.95 1)">03</text><text class="cls-16" transform="translate(125.4 216.95) scale(0.95 1)">03</text><text class="cls-15" transform="translate(143.97 215.81) scale(0.95 1)">09</text><text class="cls-15" transform="translate(157.22 215.82) scale(0.95 1)">09</text><path class="cls-19" d="M80.28,80.52c1,0,6.1,4.68,8.91,4.27,5.89-.86,10.11.41,10.85,4.1.71,3.53,4.32,3.26,5.22,6.94a25.69,25.69,0,0,1,.9,5.29V80.52H81.3"/><path class="cls-19" d="M100.68,124.41c-1,0-6.1-4.68-8.91-4.27-5.89.86-10.11-.41-10.85-4.1-.71-3.53-4.32-3.26-5.22-6.94a25.69,25.69,0,0,1-.9-5.29v20.59H99.67"/><path class="cls-19" d="M87.08,106.08c-2.1-1.3-.63-1.42-2.45-3.48-1.5-1.7-2.49-3.27-1.94-4.7,1.32-3.42,3.79-1.85,6.19-4.2,2.07-2,6.12-.73,6.94,1.61s1.37,1.18,3.07,3.39c2,2.55-2.28,5.43-4.3,5.4s-3,2-4.3,2.26A4.61,4.61,0,0,1,87.08,106.08Z"/><text class="cls-20" transform="translate(77.63 86.86) scale(0.95 1)">02</text><text class="cls-21" transform="translate(80.43 118.31) rotate(180) scale(0.91 1)">02</text><text class="cls-20" transform="translate(100.32 86.88) scale(0.95 1)">02</text><text class="cls-21" transform="translate(103.12 118.33) rotate(180) scale(0.91 1)">02</text><path class="cls-22" d="M87.62,106.74a.56.56,0,0,1-.39-.61c0-.74,0-1.47,0-2.21,0-.4.18-.58.58-.58h6.29c.4,0,.58.18.58.58,0,.74,0,1.48,0,2.21a.56.56,0,0,1-.39.61Z"/><path class="cls-22" d="M91,92h3.18a.49.49,0,0,1,.54.53c0,1.47,0,2.94,0,4.41a4.48,4.48,0,0,1-1.23,3,3.38,3.38,0,0,1-5.14-.22,4.74,4.74,0,0,1-1-2.51,8.39,8.39,0,0,1,0-.92c0-1.26,0-2.51,0-3.77a.5.5,0,0,1,.38-.55.87.87,0,0,1,.2,0Z"/><path class="cls-22" d="M94.91,98.6c.08-.35.15-.68.23-1a.13.13,0,0,1,.07-.08,1.4,1.4,0,0,0,.88-1.31c0-.87,0-1.75,0-2.65h-.87v-1l.06,0h1.32a.48.48,0,0,1,.49.51c0,.93,0,1.87,0,2.8a2.89,2.89,0,0,1-.62,1.87A2.51,2.51,0,0,1,94.91,98.6Z"/><path class="cls-22" d="M86.69,92.59v1H85.8c0,.06,0,.1,0,.14,0,.68,0,1.36,0,2a4.12,4.12,0,0,0,.13.92,1.23,1.23,0,0,0,.74.83.2.2,0,0,1,.13.17c.06.31.14.62.22.95a2.46,2.46,0,0,1-1.68-1,3,3,0,0,1-.51-1.75c0-.92,0-1.85,0-2.77a.48.48,0,0,1,.48-.52h1.4Z"/><path class="cls-22" d="M91,102.6H90c-.2,0-.29-.09-.29-.29s0-.43,0-.65.09-.23.25-.2l.68.13a3.62,3.62,0,0,0,1.36-.12c.23,0,.3,0,.3.24s0,.4,0,.6a.24.24,0,0,1-.27.27Z"/><path class="cls-23" d="M85.68,109.34c0,.4.18.72.59.72a.52.52,0,0,0,.4-.16V110a.57.57,0,0,1-.4.14c-.43,0-.64-.34-.64-.76s.23-.76.64-.76a.58.58,0,0,1,.4.14v.06a.53.53,0,0,0-.4-.16C85.88,108.61,85.68,108.94,85.68,109.34Z"/><path class="cls-23" d="M88.17,109.34c0,.42-.23.76-.64.76s-.63-.34-.63-.76.22-.76.63-.76S88.17,108.92,88.17,109.34Zm0,0c0-.4-.2-.72-.59-.72s-.59.33-.59.72.2.72.59.72S88.12,109.74,88.12,109.34Z"/><path class="cls-23" d="M89.53,108.6v1.47h0l-.93-1.4v1.4h0V108.6h0l.93,1.4v-1.4Z"/><path class="cls-23" d="M89.92,109.34c0,.4.18.72.59.72a.52.52,0,0,0,.4-.16V110a.57.57,0,0,1-.4.14c-.43,0-.64-.34-.64-.76s.23-.76.64-.76a.58.58,0,0,1,.4.14v.06a.53.53,0,0,0-.4-.16C90.12,108.61,89.92,108.94,89.92,109.34Z"/><path class="cls-23" d="M92.41,109.34c0,.42-.23.76-.64.76s-.63-.34-.63-.76.22-.76.63-.76S92.41,108.92,92.41,109.34Zm0,0c0-.4-.2-.72-.59-.72s-.59.33-.59.72.2.72.59.72S92.37,109.74,92.37,109.34Z"/><path class="cls-23" d="M93.68,108.6v1c0,.34-.15.53-.46.53s-.46-.19-.46-.53v-1h0v1c0,.31.14.49.42.49s.42-.17.42-.49v-1Z"/><path class="cls-23" d="M95,110.08l-.43-.6h-.46v.6h0V108.6h.46A.41.41,0,0,1,95,109a.4.4,0,0,1-.37.43l.43.6Zm-.47-.64a.4.4,0,1,0,0-.79h-.42v.79Z"/><path class="cls-23" d="M96.29,109.71a.41.41,0,0,1-.46.39.73.73,0,0,1-.47-.15v0a.73.73,0,0,0,.47.15c.24,0,.41-.13.41-.35s-.2-.28-.43-.36-.44-.15-.44-.39a.39.39,0,0,1,.44-.39.77.77,0,0,1,.4.11v0a.7.7,0,0,0-.4-.12.35.35,0,0,0-.39.35c0,.21.19.26.41.34S96.29,109.44,96.29,109.71Z"/><path class="cls-19" d="M114.43,80.95c1,0,6.1,4.68,8.91,4.27,5.89-.86,10.11.41,10.85,4.1.71,3.53,4.32,3.26,5.22,6.94a25.69,25.69,0,0,1,.9,5.29V80.95H115.44"/><path class="cls-19" d="M134.82,124.83c-1,0-6.1-4.68-8.91-4.27-5.89.86-10.11-.41-10.85-4.1-.71-3.53-4.32-3.26-5.22-6.94a25.69,25.69,0,0,1-.9-5.29v20.59h24.86"/><path class="cls-19" d="M121.22,106.51c-2.1-1.3-.63-1.42-2.45-3.48-1.5-1.7-2.49-3.27-1.94-4.7,1.32-3.42,3.79-1.85,6.19-4.2,2.07-2,6.12-.73,6.94,1.61s1.37,1.18,3.07,3.39c2,2.55-2.28,5.43-4.3,5.4s-3,2-4.3,2.26A4.61,4.61,0,0,1,121.22,106.51Z"/><text class="cls-20" transform="translate(111.78 87.29) scale(0.95 1)">03</text><text class="cls-21" transform="translate(114.58 118.74) rotate(180) scale(0.91 1)">03</text><text class="cls-20" transform="translate(134.46 87.3) scale(0.95 1)">03</text><text class="cls-21" transform="translate(137.27 118.75) rotate(180) scale(0.91 1)">03</text><path class="cls-22" d="M117,99.69a.61.61,0,0,1,.65-.36c.45,0,.9,0,1.34,0a.49.49,0,1,1,0,1c-.45,0-.9,0-1.34,0a.61.61,0,0,1-.65-.36Z"/><path class="cls-22" d="M125.77,103.46c0,.33,0,.66,0,1a.49.49,0,1,1-1,0c0-.32,0-.64,0-1a.36.36,0,0,0,0-.06h-1.85a.47.47,0,0,1-.47-.46.48.48,0,0,1,.43-.5H126a1.08,1.08,0,1,0,.08-2.15h-1.57a2.05,2.05,0,0,1-1-3.83,1.92,1.92,0,0,1,1-.27h.35c0-.1,0-.18,0-.26,0-.27,0-.54,0-.81a.49.49,0,1,1,1,0c0,.35,0,.7,0,1.07h1.86a.47.47,0,0,1,.48.47.48.48,0,0,1-.45.5h-3.12a1.08,1.08,0,1,0-.06,2.15h1.59a2,2,0,0,1,.48,4A6.26,6.26,0,0,1,125.77,103.46Z"/><path class="cls-22" d="M118.56,95.42a1.05,1.05,0,0,1,.21.08l1.31.75a.49.49,0,1,1-.48.84l-1.32-.76a.48.48,0,0,1-.23-.57A.5.5,0,0,1,118.56,95.42Z"/><path class="cls-22" d="M132.55,95.91a.48.48,0,0,1-.24.41l-1.36.79a.48.48,0,1,1-.48-.84l1.35-.78A.49.49,0,0,1,132.55,95.91Z"/><path class="cls-22" d="M132.33,99.33h.75a.49.49,0,1,1,0,1h-1.51a.49.49,0,1,1,0-1Z"/><path class="cls-22" d="M120.35,103a.47.47,0,0,1-.24.38l-1.36.79a.48.48,0,1,1-.47-.85l1.35-.78A.49.49,0,0,1,120.35,103Z"/><path class="cls-22" d="M130.75,102.46a1,1,0,0,1,.21.07l1.32.76a.49.49,0,1,1-.49.84l-1.32-.76a.48.48,0,0,1-.24-.55A.5.5,0,0,1,130.75,102.46Z"/><path class="cls-22" d="M129.68,106.56a.5.5,0,0,1-.32.5.46.46,0,0,1-.55-.17c-.29-.48-.57-1-.83-1.45a.48.48,0,0,1,.83-.47c.29.47.56,1,.83,1.43A.56.56,0,0,1,129.68,106.56Z"/><path class="cls-22" d="M129.7,93a1.67,1.67,0,0,1-.1.27l-.74,1.29a.49.49,0,1,1-.84-.49l.76-1.32a.47.47,0,0,1,.56-.22A.52.52,0,0,1,129.7,93Z"/><path class="cls-22" d="M121.45,107.08c-.43,0-.69-.37-.52-.68.26-.5.55-1,.84-1.46a.46.46,0,0,1,.62-.13.47.47,0,0,1,.2.62c-.27.49-.54,1-.84,1.44C121.68,107,121.52,107,121.45,107.08Z"/><path class="cls-22" d="M122.64,94.35a.5.5,0,0,1-.36.51.47.47,0,0,1-.54-.22c-.18-.29-.34-.59-.51-.88L121,93.3a.49.49,0,0,1,.17-.68.48.48,0,0,1,.66.18c.26.45.52.9.78,1.35A.92.92,0,0,1,122.64,94.35Z"/><path class="cls-23" d="M119.86,110.15a.41.41,0,0,1-.46.39.75.75,0,0,1-.48-.15v0a.75.75,0,0,0,.48.15c.24,0,.42-.13.42-.35s-.21-.28-.44-.36-.45-.15-.45-.39.23-.39.45-.39a.79.79,0,0,1,.41.11v0a.72.72,0,0,0-.41-.12c-.2,0-.4.09-.4.35s.2.26.42.34S119.86,109.88,119.86,110.15Z"/><path class="cls-23" d="M121.16,109.48a.41.41,0,0,1-.46.44h-.43v.6h0V109h.47A.41.41,0,0,1,121.16,109.48Zm0,0a.37.37,0,0,0-.41-.4h-.43v.79h.43A.37.37,0,0,0,121.12,109.48Z"/><path class="cls-23" d="M122.71,109.78a.68.68,0,0,1-.65.76c-.42,0-.65-.34-.65-.76s.23-.76.65-.76A.68.68,0,0,1,122.71,109.78Zm0,0c0-.4-.21-.72-.6-.72s-.6.33-.6.72.2.72.6.72S122.67,110.17,122.67,109.78Z"/><path class="cls-23" d="M124.1,109v1.47h0l-.95-1.4v1.4h0V109h0l.95,1.4V109Z"/><path class="cls-23" d="M125.42,110.15a.41.41,0,0,1-.46.39.75.75,0,0,1-.48-.15v0a.75.75,0,0,0,.48.15c.24,0,.42-.13.42-.35s-.21-.28-.44-.36-.45-.15-.45-.39.23-.39.45-.39a.79.79,0,0,1,.41.11v0a.72.72,0,0,0-.41-.12c-.2,0-.4.09-.4.35s.2.26.42.34S125.42,109.88,125.42,110.15Z"/><path class="cls-23" d="M127,109.78a.68.68,0,0,1-.65.76c-.42,0-.65-.34-.65-.76s.23-.76.65-.76A.68.68,0,0,1,127,109.78Zm0,0c0-.4-.21-.72-.6-.72s-.6.33-.6.72.2.72.6.72S127,110.17,127,109.78Z"/><path class="cls-23" d="M128.3,110.51l-.43-.6h-.47v.6h0V109h.47a.41.41,0,0,1,.46.44.4.4,0,0,1-.38.43l.44.6Zm-.47-.64a.4.4,0,1,0,0-.79h-.43v.79Z"/><path class="cls-23" d="M128.73,109v1.47h0V109Z"/><path class="cls-23" d="M130.19,109v1.47h0l-.95-1.4v1.4h0V109h0l.95,1.4V109Z"/><path class="cls-23" d="M131.65,109.72v.66a.71.71,0,0,1-.45.16c-.44,0-.65-.31-.65-.76a.68.68,0,0,1,.65-.76.61.61,0,0,1,.41.14v.06a.56.56,0,0,0-.41-.16c-.4,0-.6.33-.6.72s.19.72.6.72a.66.66,0,0,0,.41-.14v-.64Z"/><path class="cls-19" d="M147.45,80.76c1,0,6.1,4.68,8.91,4.27,5.89-.86,10.11.41,10.85,4.1.71,3.53,4.32,3.26,5.22,6.94a25.69,25.69,0,0,1,.9,5.29V80.76H148.46"/><path class="cls-19" d="M167.84,124.64c-1,0-6.1-4.68-8.91-4.27-5.89.86-10.11-.41-10.85-4.1-.71-3.53-4.32-3.26-5.22-6.94a25.69,25.69,0,0,1-.9-5.29v20.59h24.86"/><path class="cls-19" d="M154.24,106.32c-2.1-1.3-.63-1.42-2.45-3.48-1.5-1.7-2.49-3.27-1.94-4.7,1.32-3.42,3.79-1.85,6.19-4.2,2.07-2,6.12-.73,6.94,1.61s1.37,1.18,3.07,3.39c2,2.55-2.28,5.43-4.3,5.4s-3,2-4.3,2.26A4.61,4.61,0,0,1,154.24,106.32Z"/><text class="cls-20" transform="translate(144.79 87.1) scale(0.95 1)">04</text><text class="cls-21" transform="translate(147.6 118.55) rotate(180) scale(0.91 1)">04</text><text class="cls-20" transform="translate(167.48 87.12) scale(0.95 1)">04</text><text class="cls-21" transform="translate(170.28 118.57) rotate(180) scale(0.91 1)">04</text><path class="cls-22" d="M160.62,92.41a.5.5,0,0,1,.32.55c0,.23,0,.46,0,.69a.42.42,0,0,1-.42.45.43.43,0,0,1-.42-.45c0-.23,0-.47,0-.7a.49.49,0,0,1,.34-.54Z"/><path class="cls-22" d="M158.37,101.5a1.4,1.4,0,0,1,.57,1.17,1.63,1.63,0,0,1-.67,1.12l.61.61a5,5,0,0,1,.39.41,1.26,1.26,0,0,1-.13,1.7,1.24,1.24,0,0,1-1.71,0c-.68-.65-1.34-1.33-2-2a1.35,1.35,0,0,1-.12-.17c-.12.13-.21.23-.3.33a1.26,1.26,0,0,1-1.82,0L152,103.51a1.26,1.26,0,0,1,0-1.85c.78-.78,1.57-1.55,2.33-2.35A8.66,8.66,0,0,0,156.6,95a.31.31,0,0,0,0-.18,1.24,1.24,0,0,1,0-1.28,1.27,1.27,0,0,1,2-.23l4.76,4.77a1.27,1.27,0,0,1-.78,2.17,1.29,1.29,0,0,1-.72-.15.35.35,0,0,0-.21,0,8.72,8.72,0,0,0-3.17,1.34Zm2.6-2.13-3.66-3.66a9.67,9.67,0,0,1-2,3.85l1.83,1.83A9.67,9.67,0,0,1,161,99.36Zm-6.29.84-.08.08-2,2a.44.44,0,0,0,0,.71l1.08,1.08a.44.44,0,0,0,.72,0l1.93-1.93.09-.1Zm8.2-1.27a1.25,1.25,0,0,0-.17-.27L158,94l-.06-.06a.41.41,0,0,0-.47-.05.38.38,0,0,0-.21.42.62.62,0,0,0,.16.29l4.69,4.7.09.09a.41.41,0,0,0,.44,0A.46.46,0,0,0,162.88,98.94Zm-7,4.86,2.08,2.08a.39.39,0,0,0,.4.11.42.42,0,0,0,.16-.73l-2-2-.07-.05Zm1.19-1.21.09.09.5.51c.6-.5.55-.73,0-1.16l-.16.14Z"/><path class="cls-22" d="M163.49,93.7a1.22,1.22,0,0,1-.15.27c-.27.29-.56.57-.84.85a.42.42,0,0,1-.6-.59l.86-.86a.4.4,0,0,1,.47-.08A.48.48,0,0,1,163.49,93.7Z"/><path class="cls-22" d="M163.47,96.64H163a.42.42,0,1,1,0-.84h.85a.42.42,0,0,1,.42.42.42.42,0,0,1-.42.42Z"/><path class="cls-22" d="M155.12,102a1.21,1.21,0,0,1-.14.26c-.19.21-.39.4-.6.6a.42.42,0,1,1-.59-.6l.59-.59a.42.42,0,0,1,.48-.09A.49.49,0,0,1,155.12,102Z"/><path class="cls-23" d="M154.27,109.25a.43.43,0,0,1-.48.46h-.45v.62h0v-1.53h.49A.43.43,0,0,1,154.27,109.25Zm0,0a.38.38,0,0,0-.43-.41h-.45v.82h.45A.38.38,0,0,0,154.22,109.25Z"/><path class="cls-23" d="M155.6,108.79v1c0,.35-.16.55-.49.55s-.49-.2-.49-.55v-1h0v1c0,.32.14.51.45.51s.45-.18.45-.51v-1Z"/><path class="cls-23" d="M157,109.92a.39.39,0,0,1-.44.4h-.54v-1.53h.5c.26,0,.44.13.44.38a.34.34,0,0,1-.26.37A.35.35,0,0,1,157,109.92Zm-.94-1.09v.69h.48c.24,0,.37-.12.37-.35s-.15-.34-.39-.34Zm.89,1.09c0-.21-.13-.35-.39-.35h-.5v.72h.49C156.86,110.28,157,110.14,157,109.92Z"/><path class="cls-23" d="M158.22,110.28v0h-.83v-1.53h0v1.49Z"/><path class="cls-23" d="M158.59,108.79v1.53h0v-1.53Z"/><path class="cls-23" d="M159,109.56c0,.41.2.75.63.75a.55.55,0,0,0,.42-.17v.06a.61.61,0,0,1-.42.15c-.45,0-.67-.36-.67-.79a.7.7,0,0,1,.67-.79.62.62,0,0,1,.42.15V109a.56.56,0,0,0-.42-.17C159.22,108.81,159,109.15,159,109.56Z"/><path class="cls-23" d="M160.46,108.79v1.53h0v-1.53Z"/><path class="cls-23" d="M161.76,108.84h-.47v1.49h0v-1.49h-.47v0h1Z"/><path class="cls-23" d="M162.94,110.28v0h-.85v-1.53h.85v0h-.81v.7h.76v0h-.76v.71Zm-.24-2-.19.28h0l.15-.28Z"/><rect class="cls-24" x="68.2" y="100.01" width="107.37" height="24.82"/><path class="cls-25" d="M80.27,114.68c1,0,6.1,4.68,8.91,4.27,5.89-.86,10.11.41,10.85,4.1.71,3.53,4.32,3.26,5.22,6.94a25.69,25.69,0,0,1,.9,5.29V114.68H81.29"/><path class="cls-25" d="M100.67,158.57c-1,0-6.1-4.68-8.91-4.27-5.89.86-10.11-.41-10.85-4.1-.71-3.53-4.32-3.26-5.22-6.94a25.69,25.69,0,0,1-.9-5.29v20.59H99.66"/><path class="cls-25" d="M87.07,140.24c-2.1-1.3-.63-1.42-2.45-3.48-1.5-1.7-2.49-3.27-1.94-4.7,1.32-3.42,3.79-1.85,6.19-4.2,2.07-2,6.12-.73,6.94,1.61s1.37,1.18,3.07,3.39c2,2.55-2.28,5.43-4.3,5.4s-3,2-4.3,2.26A4.61,4.61,0,0,1,87.07,140.24Z"/><text class="cls-20" transform="translate(77.62 121.02) scale(0.95 1)">03</text><text class="cls-21" transform="translate(80.42 152.47) rotate(180) scale(0.91 1)">02</text><text class="cls-20" transform="translate(100.31 121.04) scale(0.95 1)">03</text><text class="cls-21" transform="translate(103.11 152.49) rotate(180) scale(0.91 1)">02</text><path class="cls-22" d="M87.61,140.9a.56.56,0,0,1-.39-.61c0-.74,0-1.47,0-2.21,0-.4.18-.58.58-.58h6.29c.4,0,.58.18.58.58,0,.74,0,1.48,0,2.21a.56.56,0,0,1-.39.61Z"/><path class="cls-22" d="M90.95,126.18h3.18a.49.49,0,0,1,.54.53c0,1.47,0,2.94,0,4.41a4.48,4.48,0,0,1-1.23,3,3.38,3.38,0,0,1-5.14-.22,4.74,4.74,0,0,1-1-2.51,8.39,8.39,0,0,1,0-.92c0-1.26,0-2.51,0-3.77a.5.5,0,0,1,.38-.55.87.87,0,0,1,.2,0Z"/><path class="cls-22" d="M94.9,132.76c.08-.35.15-.68.23-1a.13.13,0,0,1,.07-.08,1.4,1.4,0,0,0,.88-1.31c0-.87,0-1.75,0-2.65h-.87v-1l.06,0h1.32a.48.48,0,0,1,.49.51c0,.93,0,1.87,0,2.8a2.89,2.89,0,0,1-.62,1.87A2.51,2.51,0,0,1,94.9,132.76Z"/><path class="cls-22" d="M86.68,126.75v1h-.89c0,.06,0,.1,0,.14,0,.68,0,1.36,0,2a4.12,4.12,0,0,0,.13.92,1.23,1.23,0,0,0,.74.83.2.2,0,0,1,.13.17c.06.31.14.62.22.95a2.46,2.46,0,0,1-1.68-1A3,3,0,0,1,84.8,130c0-.92,0-1.85,0-2.77a.48.48,0,0,1,.48-.52h1.4Z"/><path class="cls-22" d="M90.95,136.76h-1c-.2,0-.29-.09-.29-.29s0-.43,0-.65.09-.23.25-.2l.68.13a3.62,3.62,0,0,0,1.36-.12c.23,0,.3,0,.3.24s0,.4,0,.6a.24.24,0,0,1-.27.27Z"/><path class="cls-23" d="M85.67,143.5c0,.4.18.72.59.72a.52.52,0,0,0,.4-.16v.06a.57.57,0,0,1-.4.14c-.43,0-.64-.34-.64-.76s.23-.76.64-.76a.58.58,0,0,1,.4.14v.06a.53.53,0,0,0-.4-.16C85.87,142.77,85.67,143.1,85.67,143.5Z"/><path class="cls-23" d="M88.16,143.5c0,.42-.23.76-.64.76s-.63-.34-.63-.76.22-.76.63-.76S88.16,143.08,88.16,143.5Zm0,0c0-.4-.2-.72-.59-.72s-.59.33-.59.72.2.72.59.72S88.11,143.9,88.11,143.5Z"/><path class="cls-23" d="M89.52,142.76v1.47h0l-.93-1.4v1.4h0v-1.47h0l.93,1.4v-1.4Z"/><path class="cls-23" d="M89.91,143.5c0,.4.18.72.59.72a.52.52,0,0,0,.4-.16v.06a.57.57,0,0,1-.4.14c-.43,0-.64-.34-.64-.76s.23-.76.64-.76a.58.58,0,0,1,.4.14v.06a.53.53,0,0,0-.4-.16C90.11,142.77,89.91,143.1,89.91,143.5Z"/><path class="cls-23" d="M92.4,143.5c0,.42-.23.76-.64.76s-.63-.34-.63-.76.22-.76.63-.76S92.4,143.08,92.4,143.5Zm0,0c0-.4-.2-.72-.59-.72s-.59.33-.59.72.2.72.59.72S92.36,143.9,92.36,143.5Z"/><path class="cls-23" d="M93.67,142.76v1c0,.34-.15.53-.46.53s-.46-.19-.46-.53v-1h0v1c0,.31.14.49.42.49s.42-.17.42-.49v-1Z"/><path class="cls-23" d="M95,144.24l-.43-.6h-.46v.6h0v-1.47h.46a.41.41,0,0,1,.45.44.4.4,0,0,1-.37.43l.43.6Zm-.47-.64a.4.4,0,1,0,0-.79h-.42v.79Z"/><path class="cls-23" d="M96.28,143.87a.41.41,0,0,1-.46.39.73.73,0,0,1-.47-.15v0a.73.73,0,0,0,.47.15c.24,0,.41-.13.41-.35s-.2-.28-.43-.36-.44-.15-.44-.39a.39.39,0,0,1,.44-.39.77.77,0,0,1,.4.11v0a.7.7,0,0,0-.4-.12.35.35,0,0,0-.39.35c0,.21.19.26.41.34S96.28,143.6,96.28,143.87Z"/><path class="cls-26" d="M114.42,115.1c1,0,6.1,4.68,8.91,4.27,5.89-.86,10.11.41,10.85,4.1.71,3.53,4.32,3.26,5.22,6.94a25.69,25.69,0,0,1,.9,5.29V115.1H115.43"/><path class="cls-26" d="M134.81,159c-1,0-6.1-4.68-8.91-4.27-5.89.86-10.11-.41-10.85-4.1-.71-3.53-4.32-3.26-5.22-6.94a25.69,25.69,0,0,1-.9-5.29V159H133.8"/><path class="cls-26" d="M121.21,140.67c-2.1-1.3-.63-1.42-2.45-3.48-1.5-1.7-2.49-3.27-1.94-4.7,1.32-3.42,3.79-1.85,6.19-4.2,2.07-2,6.12-.73,6.94,1.61s1.37,1.18,3.07,3.39c2,2.55-2.28,5.43-4.3,5.4s-3,2-4.3,2.26A4.61,4.61,0,0,1,121.21,140.67Z"/><text class="cls-20" transform="translate(111.76 121.45) scale(0.95 1)">03</text><text class="cls-21" transform="translate(114.57 152.9) rotate(180) scale(0.91 1)">03</text><text class="cls-20" transform="translate(134.45 121.46) scale(0.95 1)">03</text><text class="cls-21" transform="translate(137.26 152.91) rotate(180) scale(0.91 1)">03</text><path class="cls-22" d="M117,133.85a.61.61,0,0,1,.65-.36c.45,0,.9,0,1.34,0a.49.49,0,1,1,0,1c-.45,0-.9,0-1.34,0a.61.61,0,0,1-.65-.36Z"/><path class="cls-22" d="M125.76,137.62c0,.33,0,.66,0,1a.49.49,0,1,1-1,0c0-.32,0-.64,0-1a.36.36,0,0,0,0-.06h-1.85a.47.47,0,0,1-.47-.46.48.48,0,0,1,.43-.5H126a1.08,1.08,0,1,0,.08-2.15h-1.57a2.05,2.05,0,0,1-1-3.83,1.92,1.92,0,0,1,1-.27h.35c0-.1,0-.18,0-.26,0-.27,0-.54,0-.81a.49.49,0,1,1,1,0c0,.35,0,.7,0,1.07h1.86a.47.47,0,0,1,.48.47.48.48,0,0,1-.45.5h-3.12a1.08,1.08,0,1,0-.06,2.15h1.59a2,2,0,0,1,.48,4A6.26,6.26,0,0,1,125.76,137.62Z"/><path class="cls-22" d="M118.55,129.58a1.05,1.05,0,0,1,.21.08l1.31.75a.49.49,0,1,1-.48.84l-1.32-.76a.48.48,0,0,1-.23-.57A.5.5,0,0,1,118.55,129.58Z"/><path class="cls-22" d="M132.54,130.07a.48.48,0,0,1-.24.41l-1.36.79a.48.48,0,1,1-.48-.84l1.35-.78A.49.49,0,0,1,132.54,130.07Z"/><path class="cls-22" d="M132.32,133.49h.75a.49.49,0,1,1,0,1h-1.51a.49.49,0,1,1,0-1Z"/><path class="cls-22" d="M120.34,137.15a.47.47,0,0,1-.24.38l-1.36.79a.48.48,0,1,1-.47-.85l1.35-.78A.49.49,0,0,1,120.34,137.15Z"/><path class="cls-22" d="M130.74,136.62a1,1,0,0,1,.21.07l1.32.76a.49.49,0,1,1-.49.84l-1.32-.76a.48.48,0,0,1-.24-.55A.5.5,0,0,1,130.74,136.62Z"/><path class="cls-22" d="M129.67,140.72a.5.5,0,0,1-.32.5.46.46,0,0,1-.55-.17c-.29-.48-.57-1-.83-1.45a.48.48,0,0,1,.83-.47c.29.47.56,1,.83,1.43A.56.56,0,0,1,129.67,140.72Z"/><path class="cls-22" d="M129.68,127.2a1.67,1.67,0,0,1-.1.27l-.74,1.29a.49.49,0,1,1-.84-.49l.76-1.32a.47.47,0,0,1,.56-.22A.52.52,0,0,1,129.68,127.2Z"/><path class="cls-22" d="M121.44,141.24c-.43,0-.69-.37-.52-.68.26-.5.55-1,.84-1.46a.46.46,0,0,1,.62-.13.47.47,0,0,1,.2.62c-.27.49-.54,1-.84,1.44C121.67,141.15,121.51,141.2,121.44,141.24Z"/><path class="cls-22" d="M122.63,128.51a.5.5,0,0,1-.36.51.47.47,0,0,1-.54-.22c-.18-.29-.34-.59-.51-.88l-.27-.46a.49.49,0,0,1,.17-.68.48.48,0,0,1,.66.18c.26.45.52.9.78,1.35A.92.92,0,0,1,122.63,128.51Z"/><path class="cls-23" d="M119.85,144.31a.41.41,0,0,1-.46.39.75.75,0,0,1-.48-.15v0a.75.75,0,0,0,.48.15c.24,0,.42-.13.42-.35s-.21-.28-.44-.36-.45-.15-.45-.39.23-.39.45-.39a.79.79,0,0,1,.41.11v0a.72.72,0,0,0-.41-.12c-.2,0-.4.09-.4.35s.2.26.42.34S119.85,144,119.85,144.31Z"/><path class="cls-23" d="M121.15,143.64a.41.41,0,0,1-.46.44h-.43v.6h0V143.2h.47A.41.41,0,0,1,121.15,143.64Zm0,0a.37.37,0,0,0-.41-.4h-.43V144h.43A.37.37,0,0,0,121.11,143.64Z"/><path class="cls-23" d="M122.7,143.94a.68.68,0,0,1-.65.76c-.42,0-.65-.34-.65-.76s.23-.76.65-.76A.68.68,0,0,1,122.7,143.94Zm0,0c0-.4-.21-.72-.6-.72s-.6.33-.6.72.2.72.6.72S122.66,144.33,122.66,143.94Z"/><path class="cls-23" d="M124.09,143.2v1.47h0l-.95-1.4v1.4h0V143.2h0l.95,1.4v-1.4Z"/><path class="cls-23" d="M125.41,144.31a.41.41,0,0,1-.46.39.75.75,0,0,1-.48-.15v0a.75.75,0,0,0,.48.15c.24,0,.42-.13.42-.35s-.21-.28-.44-.36-.45-.15-.45-.39.23-.39.45-.39a.79.79,0,0,1,.41.11v0a.72.72,0,0,0-.41-.12c-.2,0-.4.09-.4.35s.2.26.42.34S125.41,144,125.41,144.31Z"/><path class="cls-23" d="M127,143.94a.68.68,0,0,1-.65.76c-.42,0-.65-.34-.65-.76s.23-.76.65-.76A.68.68,0,0,1,127,143.94Zm0,0c0-.4-.21-.72-.6-.72s-.6.33-.6.72.2.72.6.72S126.94,144.33,126.94,143.94Z"/><path class="cls-23" d="M128.29,144.67l-.43-.6h-.47v.6h0V143.2h.47a.41.41,0,0,1,.46.44.4.4,0,0,1-.38.43l.44.6Zm-.47-.64a.4.4,0,1,0,0-.79h-.43V144Z"/><path class="cls-23" d="M128.72,143.2v1.47h0V143.2Z"/><path class="cls-23" d="M130.18,143.2v1.47h0l-.95-1.4v1.4h0V143.2h0l.95,1.4v-1.4Z"/><path class="cls-23" d="M131.64,143.88v.66a.71.71,0,0,1-.45.16c-.44,0-.65-.31-.65-.76a.68.68,0,0,1,.65-.76.61.61,0,0,1,.41.14v.06a.56.56,0,0,0-.41-.16c-.4,0-.6.33-.6.72s.19.72.6.72a.66.66,0,0,0,.41-.14v-.64Z"/><path class="cls-27" d="M147.44,114.92c1,0,6.1,4.68,8.91,4.27,5.89-.86,10.11.41,10.85,4.1.71,3.53,4.32,3.26,5.22,6.94a25.69,25.69,0,0,1,.9,5.29V114.92H148.45"/><path class="cls-27" d="M167.83,158.8c-1,0-6.1-4.68-8.91-4.27-5.89.86-10.11-.41-10.85-4.1-.71-3.53-4.32-3.26-5.22-6.94a25.69,25.69,0,0,1-.9-5.29V158.8h24.86"/><path class="cls-27" d="M154.23,140.48c-2.1-1.3-.63-1.42-2.45-3.48-1.5-1.7-2.49-3.27-1.94-4.7,1.32-3.42,3.79-1.85,6.19-4.2,2.07-2,6.12-.73,6.94,1.61s1.37,1.18,3.07,3.39c2,2.55-2.28,5.43-4.3,5.4s-3,2-4.3,2.26A4.61,4.61,0,0,1,154.23,140.48Z"/><text class="cls-20" transform="translate(144.78 121.26) scale(0.95 1)">03</text><text class="cls-21" transform="translate(147.59 152.71) rotate(180) scale(0.91 1)">04</text><text class="cls-20" transform="translate(167.47 121.28) scale(0.95 1)">03</text><text class="cls-21" transform="translate(170.27 152.73) rotate(180) scale(0.91 1)">04</text><path class="cls-22" d="M160.61,126.57a.5.5,0,0,1,.32.55c0,.23,0,.46,0,.69a.42.42,0,0,1-.42.45.43.43,0,0,1-.42-.45c0-.23,0-.47,0-.7a.49.49,0,0,1,.34-.54Z"/><path class="cls-22" d="M158.36,135.65a1.4,1.4,0,0,1,.57,1.17,1.63,1.63,0,0,1-.67,1.12l.61.61a5,5,0,0,1,.39.41,1.26,1.26,0,0,1-.13,1.7,1.24,1.24,0,0,1-1.71,0c-.68-.65-1.34-1.33-2-2a1.35,1.35,0,0,1-.12-.17c-.12.13-.21.23-.3.33a1.26,1.26,0,0,1-1.82,0L152,137.67a1.26,1.26,0,0,1,0-1.85c.78-.78,1.57-1.55,2.33-2.35a8.66,8.66,0,0,0,2.24-4.3.31.31,0,0,0,0-.18,1.24,1.24,0,0,1,0-1.28,1.27,1.27,0,0,1,2-.23l4.76,4.77a1.27,1.27,0,0,1-.78,2.17,1.29,1.29,0,0,1-.72-.15.35.35,0,0,0-.21,0,8.72,8.72,0,0,0-3.17,1.34Zm2.6-2.13-3.66-3.66a9.67,9.67,0,0,1-2,3.85l1.83,1.83A9.67,9.67,0,0,1,161,133.52Zm-6.29.84-.08.08-2,2a.44.44,0,0,0,0,.71l1.08,1.08a.44.44,0,0,0,.72,0l1.93-1.93.09-.1Zm8.2-1.27a1.25,1.25,0,0,0-.17-.27l-4.7-4.71-.06-.06a.41.41,0,0,0-.47-.05.38.38,0,0,0-.21.42.62.62,0,0,0,.16.29l4.69,4.7.09.09a.41.41,0,0,0,.44,0A.46.46,0,0,0,162.87,133.09Zm-7,4.86L158,140a.39.39,0,0,0,.4.11.42.42,0,0,0,.16-.73l-2-2-.07-.05Zm1.19-1.21.09.09.5.51c.6-.5.55-.73,0-1.16l-.16.14Z"/><path class="cls-22" d="M163.48,127.86a1.22,1.22,0,0,1-.15.27c-.27.29-.56.57-.84.85a.42.42,0,0,1-.6-.59l.86-.86a.4.4,0,0,1,.47-.08A.48.48,0,0,1,163.48,127.86Z"/><path class="cls-22" d="M163.46,130.8H163a.42.42,0,1,1,0-.84h.85a.42.42,0,0,1,.42.42.42.42,0,0,1-.42.42Z"/><path class="cls-22" d="M155.11,136.18a1.21,1.21,0,0,1-.14.26c-.19.21-.39.4-.6.6a.42.42,0,1,1-.59-.6l.59-.59a.42.42,0,0,1,.48-.09A.49.49,0,0,1,155.11,136.18Z"/><path class="cls-23" d="M154.26,143.41a.43.43,0,0,1-.48.46h-.45v.62h0V143h.49A.43.43,0,0,1,154.26,143.41Zm0,0a.38.38,0,0,0-.43-.41h-.45v.82h.45A.38.38,0,0,0,154.21,143.41Z"/><path class="cls-23" d="M155.59,143v1c0,.35-.16.55-.49.55s-.49-.2-.49-.55v-1h0v1c0,.32.14.51.45.51s.45-.18.45-.51v-1Z"/><path class="cls-23" d="M157,144.08a.39.39,0,0,1-.44.4H156V143h.5c.26,0,.44.13.44.38a.34.34,0,0,1-.26.37A.35.35,0,0,1,157,144.08Zm-.94-1.09v.69h.48c.24,0,.37-.12.37-.35s-.15-.34-.39-.34Zm.89,1.09c0-.21-.13-.35-.39-.35h-.5v.72h.49C156.85,144.44,157,144.3,157,144.08Z"/><path class="cls-23" d="M158.21,144.44v0h-.83V143h0v1.49Z"/><path class="cls-23" d="M158.58,143v1.53h0V143Z"/><path class="cls-23" d="M159,143.72c0,.41.2.75.63.75a.55.55,0,0,0,.42-.17v.06a.61.61,0,0,1-.42.15c-.45,0-.67-.36-.67-.79a.7.7,0,0,1,.67-.79.62.62,0,0,1,.42.15v.06a.56.56,0,0,0-.42-.17C159.21,143,159,143.31,159,143.72Z"/><path class="cls-23" d="M160.45,143v1.53h0V143Z"/><path class="cls-23" d="M161.75,143h-.47v1.49h0V143h-.47v0h1Z"/><path class="cls-23" d="M162.93,144.44v0h-.85V143h.85v0h-.81v.7h.76v0h-.76v.71Zm-.24-2-.19.28h0l.15-.28Z"/><rect class="cls-24" x="68.19" y="134.17" width="107.37" height="24.82"/><path class="cls-28" d="M80.45,148.58c1,0,6.1,4.68,8.91,4.27,5.89-.86,10.11.41,10.85,4.1.71,3.53,4.32,3.26,5.22,6.94a25.69,25.69,0,0,1,.9,5.29V148.58H81.47"/><path class="cls-28" d="M100.85,192.46c-1,0-6.1-4.68-8.91-4.27-5.89.86-10.11-.41-10.85-4.1-.71-3.53-4.32-3.26-5.22-6.94a25.69,25.69,0,0,1-.9-5.29v20.59H99.84"/><path class="cls-28" d="M87.25,174.14c-2.1-1.3-.63-1.42-2.45-3.48-1.5-1.7-2.49-3.27-1.94-4.7,1.32-3.42,3.79-1.85,6.19-4.2,2.07-2,6.12-.73,6.94,1.61s1.37,1.18,3.07,3.39c2,2.55-2.28,5.43-4.3,5.4s-3,2-4.3,2.26A4.61,4.61,0,0,1,87.25,174.14Z"/><text class="cls-20" transform="translate(77.8 154.92) scale(0.95 1)">03</text><text class="cls-21" transform="translate(80.6 186.37) rotate(180) scale(0.91 1)">02</text><text class="cls-20" transform="translate(100.49 154.93) scale(0.95 1)">03</text><text class="cls-21" transform="translate(103.29 186.38) rotate(180) scale(0.91 1)">02</text><path class="cls-22" d="M87.79,174.8a.56.56,0,0,1-.39-.61c0-.74,0-1.47,0-2.21,0-.4.18-.58.58-.58h6.29c.4,0,.58.18.58.58,0,.74,0,1.48,0,2.21a.56.56,0,0,1-.39.61Z"/><path class="cls-22" d="M91.13,160.07h3.18a.49.49,0,0,1,.54.53c0,1.47,0,2.94,0,4.41a4.48,4.48,0,0,1-1.23,3,3.38,3.38,0,0,1-5.14-.22,4.74,4.74,0,0,1-1-2.51,8.39,8.39,0,0,1,0-.92c0-1.26,0-2.51,0-3.77a.5.5,0,0,1,.38-.55.87.87,0,0,1,.2,0Z"/><path class="cls-22" d="M95.08,166.65c.08-.35.15-.68.23-1a.13.13,0,0,1,.07-.08,1.4,1.4,0,0,0,.88-1.31c0-.87,0-1.75,0-2.65H95.4v-1l.06,0h1.32a.48.48,0,0,1,.49.51c0,.93,0,1.87,0,2.8a2.89,2.89,0,0,1-.62,1.87A2.51,2.51,0,0,1,95.08,166.65Z"/><path class="cls-22" d="M86.86,160.65v1H86c0,.06,0,.1,0,.14,0,.68,0,1.36,0,2a4.12,4.12,0,0,0,.13.92,1.23,1.23,0,0,0,.74.83.2.2,0,0,1,.13.17c.06.31.14.62.22.95a2.46,2.46,0,0,1-1.68-1,3,3,0,0,1-.51-1.75c0-.92,0-1.85,0-2.77a.48.48,0,0,1,.48-.52h1.4Z"/><path class="cls-22" d="M91.13,170.66h-1c-.2,0-.29-.09-.29-.29s0-.43,0-.65.09-.23.25-.2l.68.13a3.62,3.62,0,0,0,1.36-.12c.23,0,.3,0,.3.24s0,.4,0,.6a.24.24,0,0,1-.27.27Z"/><path class="cls-23" d="M85.85,177.39c0,.4.18.72.59.72a.52.52,0,0,0,.4-.16V178a.57.57,0,0,1-.4.14c-.43,0-.64-.34-.64-.76s.23-.76.64-.76a.58.58,0,0,1,.4.14v.06a.53.53,0,0,0-.4-.16C86,176.67,85.85,177,85.85,177.39Z"/><path class="cls-23" d="M88.34,177.39c0,.42-.23.76-.64.76s-.63-.34-.63-.76.22-.76.63-.76S88.34,177,88.34,177.39Zm0,0c0-.4-.2-.72-.59-.72s-.59.33-.59.72.2.72.59.72S88.29,177.79,88.29,177.39Z"/><path class="cls-23" d="M89.7,176.66v1.47h0l-.93-1.4v1.4h0v-1.47h0l.93,1.4v-1.4Z"/><path class="cls-23" d="M90.09,177.39c0,.4.18.72.59.72a.52.52,0,0,0,.4-.16V178a.57.57,0,0,1-.4.14c-.43,0-.64-.34-.64-.76s.23-.76.64-.76a.58.58,0,0,1,.4.14v.06a.53.53,0,0,0-.4-.16C90.29,176.67,90.09,177,90.09,177.39Z"/><path class="cls-23" d="M92.58,177.39c0,.42-.23.76-.64.76s-.63-.34-.63-.76.22-.76.63-.76S92.58,177,92.58,177.39Zm0,0c0-.4-.2-.72-.59-.72s-.59.33-.59.72.2.72.59.72S92.54,177.79,92.54,177.39Z"/><path class="cls-23" d="M93.85,176.66v1c0,.34-.15.53-.46.53s-.46-.19-.46-.53v-1h0v1c0,.31.14.49.42.49s.42-.17.42-.49v-1Z"/><path class="cls-23" d="M95.21,178.13l-.43-.6h-.46v.6h0v-1.47h.46a.41.41,0,0,1,.45.44.4.4,0,0,1-.37.43l.43.6Zm-.47-.64a.4.4,0,1,0,0-.79h-.42v.79Z"/><path class="cls-23" d="M96.46,177.77a.41.41,0,0,1-.46.39.73.73,0,0,1-.47-.15v0a.73.73,0,0,0,.47.15c.24,0,.41-.13.41-.35s-.2-.28-.43-.36-.44-.15-.44-.39a.39.39,0,0,1,.44-.39.77.77,0,0,1,.4.11v0a.7.7,0,0,0-.4-.12.35.35,0,0,0-.39.35c0,.21.19.26.41.34S96.46,177.5,96.46,177.77Z"/><path class="cls-28" d="M114.6,149c1,0,6.1,4.68,8.91,4.27,5.89-.86,10.11.41,10.85,4.1.71,3.53,4.32,3.26,5.22,6.94a25.69,25.69,0,0,1,.9,5.29V149H115.61"/><path class="cls-28" d="M135,192.88c-1,0-6.1-4.68-8.91-4.27-5.89.86-10.11-.41-10.85-4.1-.71-3.53-4.32-3.26-5.22-6.94a25.69,25.69,0,0,1-.9-5.29v20.59H134"/><path class="cls-28" d="M121.39,174.56c-2.1-1.3-.63-1.42-2.45-3.48-1.5-1.7-2.49-3.27-1.94-4.7,1.32-3.42,3.79-1.85,6.19-4.2,2.07-2,6.12-.73,6.94,1.61s1.37,1.18,3.07,3.39c2,2.55-2.28,5.43-4.3,5.4s-3,2-4.3,2.26A4.61,4.61,0,0,1,121.39,174.56Z"/><text class="cls-20" transform="translate(111.95 155.34) scale(0.95 1)">03</text><text class="cls-21" transform="translate(114.75 186.79) rotate(180) scale(0.91 1)">03</text><text class="cls-20" transform="translate(134.63 155.36) scale(0.95 1)">03</text><text class="cls-21" transform="translate(137.44 186.81) rotate(180) scale(0.91 1)">03</text><path class="cls-23" d="M120,178.21a.41.41,0,0,1-.46.39.75.75,0,0,1-.48-.15v0a.75.75,0,0,0,.48.15c.24,0,.42-.13.42-.35s-.21-.28-.44-.36-.45-.15-.45-.39.23-.39.45-.39a.79.79,0,0,1,.41.11v0a.72.72,0,0,0-.41-.12c-.2,0-.4.09-.4.35s.2.26.42.34S120,177.94,120,178.21Z"/><path class="cls-23" d="M121.33,177.53a.41.41,0,0,1-.46.44h-.43v.6h0v-1.47h.47A.41.41,0,0,1,121.33,177.53Zm0,0a.37.37,0,0,0-.41-.4h-.43v.79h.43A.37.37,0,0,0,121.29,177.53Z"/><path class="cls-23" d="M122.88,177.83a.68.68,0,0,1-.65.76c-.42,0-.65-.34-.65-.76s.23-.76.65-.76A.68.68,0,0,1,122.88,177.83Zm0,0c0-.4-.21-.72-.6-.72s-.6.33-.6.72.2.72.6.72S122.84,178.23,122.84,177.83Z"/><path class="cls-23" d="M124.27,177.09v1.47h0l-.95-1.4v1.4h0v-1.47h0l.95,1.4v-1.4Z"/><path class="cls-23" d="M125.59,178.21a.41.41,0,0,1-.46.39.75.75,0,0,1-.48-.15v0a.75.75,0,0,0,.48.15c.24,0,.42-.13.42-.35s-.21-.28-.44-.36-.45-.15-.45-.39.23-.39.45-.39a.79.79,0,0,1,.41.11v0a.72.72,0,0,0-.41-.12c-.2,0-.4.09-.4.35s.2.26.42.34S125.59,177.94,125.59,178.21Z"/><path class="cls-23" d="M127.17,177.83a.68.68,0,0,1-.65.76c-.42,0-.65-.34-.65-.76s.23-.76.65-.76A.68.68,0,0,1,127.17,177.83Zm0,0c0-.4-.21-.72-.6-.72s-.6.33-.6.72.2.72.6.72S127.12,178.23,127.12,177.83Z"/><path class="cls-23" d="M128.47,178.57,128,178h-.47v.6h0v-1.47H128a.41.41,0,0,1,.46.44.4.4,0,0,1-.38.43l.44.6Zm-.47-.64a.4.4,0,1,0,0-.79h-.43v.79Z"/><path class="cls-23" d="M128.9,177.09v1.47h0v-1.47Z"/><path class="cls-23" d="M130.36,177.09v1.47h0l-.95-1.4v1.4h0v-1.47h0l.95,1.4v-1.4Z"/><path class="cls-23" d="M131.82,177.78v.66a.71.71,0,0,1-.45.16c-.44,0-.65-.31-.65-.76a.68.68,0,0,1,.65-.76.61.61,0,0,1,.41.14v.06a.56.56,0,0,0-.41-.16c-.4,0-.6.33-.6.72s.19.72.6.72a.66.66,0,0,0,.41-.14v-.64Z"/><path class="cls-28" d="M147.62,148.81c1,0,6.1,4.68,8.91,4.27,5.89-.86,10.11.41,10.85,4.1.71,3.53,4.32,3.26,5.22,6.94a25.69,25.69,0,0,1,.9,5.29V148.81H148.63"/><path class="cls-28" d="M168,192.7c-1,0-6.1-4.68-8.91-4.27-5.89.86-10.11-.41-10.85-4.1-.71-3.53-4.32-3.26-5.22-6.94a25.69,25.69,0,0,1-.9-5.29V192.7H167"/><path class="cls-28" d="M154.41,174.38c-2.1-1.3-.63-1.42-2.45-3.48-1.5-1.7-2.49-3.27-1.94-4.7,1.32-3.42,3.79-1.85,6.19-4.2,2.07-2,6.12-.73,6.94,1.61s1.37,1.18,3.07,3.39c2,2.55-2.28,5.43-4.3,5.4s-3,2-4.3,2.26A4.61,4.61,0,0,1,154.41,174.38Z"/><text class="cls-20" transform="translate(144.96 155.15) scale(0.95 1)">03</text><text class="cls-21" transform="translate(147.77 186.6) rotate(180) scale(0.91 1)">04</text><text class="cls-20" transform="translate(167.65 155.17) scale(0.95 1)">03</text><text class="cls-21" transform="translate(170.46 186.62) rotate(180) scale(0.91 1)">04</text><path class="cls-22" d="M160.79,160.47a.5.5,0,0,1,.32.55c0,.23,0,.46,0,.69a.42.42,0,0,1-.42.45.43.43,0,0,1-.42-.45c0-.23,0-.47,0-.7a.49.49,0,0,1,.34-.54Z"/><path class="cls-22" d="M158.54,169.55a1.4,1.4,0,0,1,.57,1.17,1.63,1.63,0,0,1-.67,1.12l.61.61a5,5,0,0,1,.39.41,1.26,1.26,0,0,1-.13,1.7,1.24,1.24,0,0,1-1.71,0c-.68-.65-1.34-1.33-2-2a1.35,1.35,0,0,1-.12-.17c-.12.13-.21.23-.3.33a1.26,1.26,0,0,1-1.82,0l-1.16-1.16a1.26,1.26,0,0,1,0-1.85c.78-.78,1.57-1.55,2.33-2.35a8.66,8.66,0,0,0,2.24-4.3.31.31,0,0,0,0-.18,1.24,1.24,0,0,1,0-1.28,1.27,1.27,0,0,1,2-.23l4.76,4.77a1.27,1.27,0,0,1-.78,2.17,1.29,1.29,0,0,1-.72-.15.35.35,0,0,0-.21,0,8.72,8.72,0,0,0-3.17,1.34Zm2.6-2.13-3.66-3.66a9.67,9.67,0,0,1-2,3.85l1.83,1.83A9.67,9.67,0,0,1,161.14,167.42Zm-6.29.84-.08.08-2,2a.44.44,0,0,0,0,.71l1.08,1.08a.44.44,0,0,0,.72,0l1.93-1.93.09-.1Zm8.2-1.27a1.25,1.25,0,0,0-.17-.27l-4.7-4.71-.06-.06a.41.41,0,0,0-.47-.05.38.38,0,0,0-.21.42.62.62,0,0,0,.16.29l4.69,4.7.09.09a.41.41,0,0,0,.44,0A.46.46,0,0,0,163.05,167Zm-7,4.86,2.08,2.08a.39.39,0,0,0,.4.11.42.42,0,0,0,.16-.73l-2-2-.07-.05Zm1.19-1.21.09.09.5.51c.6-.5.55-.73,0-1.16l-.16.14Z"/><path class="cls-22" d="M163.66,161.76a1.22,1.22,0,0,1-.15.27c-.27.29-.56.57-.84.85a.42.42,0,0,1-.6-.59l.86-.86a.4.4,0,0,1,.47-.08A.48.48,0,0,1,163.66,161.76Z"/><path class="cls-22" d="M163.64,164.69h-.42a.42.42,0,1,1,0-.84h.85a.42.42,0,0,1,.42.42.42.42,0,0,1-.42.42Z"/><path class="cls-22" d="M155.29,170.07a1.21,1.21,0,0,1-.14.26c-.19.21-.39.4-.6.6a.42.42,0,1,1-.59-.6l.59-.59a.42.42,0,0,1,.48-.09A.49.49,0,0,1,155.29,170.07Z"/><path class="cls-23" d="M154.44,177.3a.43.43,0,0,1-.48.46h-.45v.62h0v-1.53H154A.43.43,0,0,1,154.44,177.3Zm0,0a.38.38,0,0,0-.43-.41h-.45v.82H154A.38.38,0,0,0,154.39,177.3Z"/><path class="cls-23" d="M155.77,176.85v1c0,.35-.16.55-.49.55s-.49-.2-.49-.55v-1h0v1c0,.32.14.51.45.51s.45-.18.45-.51v-1Z"/><path class="cls-23" d="M157.2,178a.39.39,0,0,1-.44.4h-.54v-1.53h.5c.26,0,.44.13.44.38a.34.34,0,0,1-.26.37A.35.35,0,0,1,157.2,178Zm-.94-1.09v.69h.48c.24,0,.37-.12.37-.35s-.15-.34-.39-.34Zm.89,1.09c0-.21-.13-.35-.39-.35h-.5v.72h.49C157,178.34,157.15,178.19,157.15,178Z"/><path class="cls-23" d="M158.39,178.34v0h-.83v-1.53h0v1.49Z"/><path class="cls-23" d="M158.76,176.85v1.53h0v-1.53Z"/><path class="cls-23" d="M159.18,177.62c0,.41.2.75.63.75a.55.55,0,0,0,.42-.17v.06a.61.61,0,0,1-.42.15c-.45,0-.67-.36-.67-.79a.7.7,0,0,1,.67-.79.62.62,0,0,1,.42.15V177a.56.56,0,0,0-.42-.17C159.39,176.86,159.18,177.2,159.18,177.62Z"/><path class="cls-23" d="M160.63,176.85v1.53h0v-1.53Z"/><path class="cls-23" d="M161.93,176.89h-.47v1.49h0v-1.49H161v0h1Z"/><path class="cls-23" d="M163.11,178.34v0h-.85v-1.53h.85v0h-.81v.7h.76v0h-.76v.71Zm-.24-2-.19.28h0l.15-.28Z"/><path class="cls-29" d="M117.5,163.85c.14-.2.32-.24.43-.09a.43.43,0,0,1,.07.25q0,2.18,0,4.36,0,2.68,0,5.37a.77.77,0,0,0,.86.86h6c0-.19,0-.37,0-.54s-.06-.08-.11-.1a5.33,5.33,0,0,0-1.93-.37,16.45,16.45,0,0,0-3.91.48c-.27.07-.39,0-.39-.31q0-5.5,0-11c0-.23.05-.3.27-.36a16.5,16.5,0,0,1,4.08-.49,5.86,5.86,0,0,1,2.25.48.37.37,0,0,1,.26.4q0,4.69,0,9.39v.21l.82-.44a25.15,25.15,0,0,1,3.39-1.54.14.14,0,0,0,.11-.16q0-4.8,0-9.61s0-.07,0-.12l-.68.29a27.83,27.83,0,0,0-2.85,1.5l-.13.08a.26.26,0,0,1-.36-.09.25.25,0,0,1,.1-.35l.68-.4a24.69,24.69,0,0,1,3.32-1.61c.28-.11.43,0,.43.29q0,5.12,0,10.23c0,.21,0,.28-.23.35A26.21,26.21,0,0,0,125.4,173c-.37.21-.54.07-.54-.32,0-3.21,0-6.42,0-9.62a.23.23,0,0,0-.18-.26,5.75,5.75,0,0,0-2.07-.34,18,18,0,0,0-3.42.41c-.14,0-.18.08-.18.22q0,5.14,0,10.28v.18l.67-.13a16.54,16.54,0,0,1,3.24-.29,5.75,5.75,0,0,1,2.07.43.35.35,0,0,0,.27,0,8,8,0,0,1,3.23-.42,15.67,15.67,0,0,1,2.63.38h.08v-.17q0-5.14,0-10.28c0-.14,0-.2-.17-.2a.6.6,0,0,1-.19,0,.25.25,0,0,1-.17-.28.24.24,0,0,1,.25-.2,3.63,3.63,0,0,1,.61.12c.07,0,.12.13.16.21s0,.1,0,.15q0,5.46,0,10.92s0,.08,0,.12a.25.25,0,0,1-.34.25,13.09,13.09,0,0,0-2.19-.41,8.29,8.29,0,0,0-3.64.29c-.13,0-.2.1-.18.25a3,3,0,0,1,0,.34.42.42,0,0,0,0,.06h6a.77.77,0,0,0,.84-.84q0-4.85,0-9.7c0-.25.08-.38.26-.37s.25.12.25.38q0,4.82,0,9.64a1.28,1.28,0,0,1-1.07,1.39H118.6l-.11,0a1.27,1.27,0,0,1-.93-.86l-.06-.18Z"/><path class="cls-29" d="M122.29,170.49l1.31.17a.25.25,0,0,1,.24.31c0,.15-.17.22-.35.18a7,7,0,0,0-2.67,0l-.44.09a.25.25,0,0,1-.33-.19.25.25,0,0,1,.21-.3A11.32,11.32,0,0,1,122.29,170.49Z"/><path class="cls-29" d="M123.84,169.39a.25.25,0,0,1-.3.25,7.36,7.36,0,0,0-3.15.11c-.18,0-.31,0-.34-.18s0-.26.23-.31a7.75,7.75,0,0,1,3.25-.14C123.76,169.16,123.84,169.24,123.84,169.39Z"/><path class="cls-29" d="M122.17,167.95l-1.71.26-.12,0A.24.24,0,0,1,120,168a.24.24,0,0,1,.18-.3c.26-.06.53-.12.8-.16a7.1,7.1,0,0,1,2.51,0l.1,0a.25.25,0,1,1-.11.49c-.25,0-.51-.08-.76-.1s-.4,0-.59,0Z"/><path class="cls-29" d="M123.57,165.06c-.31,0-.62-.09-.93-.1a8,8,0,0,0-2.24.22c-.11,0-.23,0-.3-.07a.32.32,0,0,1,0-.24.3.3,0,0,1,.19-.17,7.68,7.68,0,0,1,3.33-.13l.09,0a.25.25,0,0,1,.18.29A.22.22,0,0,1,123.57,165.06Z"/><path class="cls-29" d="M123.63,166.6l-.73-.1a7.84,7.84,0,0,0-2.48.2l-.1,0a.24.24,0,0,1-.28-.2.24.24,0,0,1,.18-.28c.25-.06.5-.11.76-.16a7.32,7.32,0,0,1,2.44,0l.25.06a.24.24,0,0,1,.17.29A.23.23,0,0,1,123.63,166.6Z"/><path class="cls-29" d="M128.92,166a.26.26,0,0,1-.18.23l-2.21,1a.26.26,0,0,1-.37-.09.24.24,0,0,1,.12-.35l2.25-1A.26.26,0,0,1,128.92,166Z"/><path class="cls-29" d="M128.65,168.75a.25.25,0,0,1,.1.49c-.3.12-.6.23-.89.36l-1.3.61a.41.41,0,0,1-.29,0,.25.25,0,0,1-.12-.21.37.37,0,0,1,.17-.23q.65-.33,1.31-.63c.29-.13.59-.24.89-.36Z"/><path class="cls-29" d="M128.92,164.49s-.1.14-.18.18l-2.19,1c-.17.08-.31,0-.39-.09a.25.25,0,0,1,.15-.36l2.18-1,.14,0C128.78,164.16,128.92,164.28,128.92,164.49Z"/><path class="cls-29" d="M128.65,167.23a.25.25,0,0,1,.27.2.25.25,0,0,1-.17.29c-.23.09-.47.17-.7.28l-1.46.68a.5.5,0,0,1-.19.06.25.25,0,0,1-.11-.47l.55-.27,1.63-.71Z"/><path class="cls-29" d="M126.41,164.18a.26.26,0,0,1-.27-.19.24.24,0,0,1,.14-.29c.27-.14.54-.27.81-.4l1.36-.58.11,0a.25.25,0,1,1,.16.48c-.27.11-.55.21-.81.33l-1.34.63Z"/><rect class="cls-24" x="68.37" y="168.07" width="107.37" height="24.82"/><path class="cls-27" d="M80.34,182.52c1,0,6.1,4.68,8.91,4.27,5.89-.86,10.11.41,10.85,4.1.71,3.53,4.32,3.26,5.22,6.94a25.69,25.69,0,0,1,.9,5.29V182.52H81.35"/><path class="cls-27" d="M100.74,226.4c-1,0-6.1-4.68-8.91-4.27-5.89.86-10.11-.41-10.85-4.1-.71-3.53-4.32-3.26-5.22-6.94a25.69,25.69,0,0,1-.9-5.29V226.4H99.72"/><path class="cls-27" d="M87.13,208.08c-2.1-1.3-.63-1.42-2.45-3.48-1.5-1.7-2.49-3.27-1.94-4.7,1.32-3.42,3.79-1.85,6.19-4.2,2.07-2,6.12-.73,6.94,1.61s1.37,1.18,3.07,3.39c2,2.55-2.28,5.43-4.3,5.4s-3,2-4.3,2.26A4.61,4.61,0,0,1,87.13,208.08Z"/><text class="cls-20" transform="translate(77.69 188.86) scale(0.95 1)">03</text><text class="cls-21" transform="translate(80.49 220.31) rotate(180) scale(0.91 1)">02</text><text class="cls-20" transform="translate(100.37 188.87) scale(0.95 1)">03</text><text class="cls-21" transform="translate(103.18 220.32) rotate(180) scale(0.91 1)">02</text><path class="cls-22" d="M87.68,208.74a.56.56,0,0,1-.39-.61c0-.74,0-1.47,0-2.21,0-.4.18-.58.58-.58h6.29c.4,0,.58.18.58.58,0,.74,0,1.48,0,2.21a.56.56,0,0,1-.39.61Z"/><path class="cls-22" d="M91,194h3.18a.49.49,0,0,1,.54.53c0,1.47,0,2.94,0,4.41a4.48,4.48,0,0,1-1.23,3,3.38,3.38,0,0,1-5.14-.22,4.74,4.74,0,0,1-1-2.51,8.39,8.39,0,0,1,0-.92c0-1.26,0-2.51,0-3.77a.5.5,0,0,1,.38-.55.87.87,0,0,1,.2,0Z"/><path class="cls-22" d="M95,200.59c.08-.35.15-.68.23-1a.13.13,0,0,1,.07-.08,1.4,1.4,0,0,0,.88-1.31c0-.87,0-1.75,0-2.65h-.87v-1l.06,0h1.32a.48.48,0,0,1,.49.51c0,.93,0,1.87,0,2.8a2.89,2.89,0,0,1-.62,1.87A2.51,2.51,0,0,1,95,200.59Z"/><path class="cls-22" d="M86.75,194.59v1h-.89c0,.06,0,.1,0,.14,0,.68,0,1.36,0,2a4.12,4.12,0,0,0,.13.92,1.23,1.23,0,0,0,.74.83.2.2,0,0,1,.13.17c.06.31.14.62.22.95a2.46,2.46,0,0,1-1.68-1,3,3,0,0,1-.51-1.75c0-.92,0-1.85,0-2.77a.48.48,0,0,1,.48-.52h1.4Z"/><path class="cls-22" d="M91,204.6H90c-.2,0-.29-.09-.29-.29s0-.43,0-.65.09-.23.25-.2l.68.13a3.62,3.62,0,0,0,1.36-.12c.23,0,.3,0,.3.24s0,.4,0,.6a.24.24,0,0,1-.27.27Z"/><path class="cls-23" d="M85.73,211.33c0,.4.18.72.59.72a.52.52,0,0,0,.4-.16V212a.57.57,0,0,1-.4.14c-.43,0-.64-.34-.64-.76s.23-.76.64-.76a.58.58,0,0,1,.4.14v.06a.53.53,0,0,0-.4-.16C85.94,210.61,85.73,210.94,85.73,211.33Z"/><path class="cls-23" d="M88.22,211.33c0,.42-.23.76-.64.76s-.63-.34-.63-.76.22-.76.63-.76S88.22,210.91,88.22,211.33Zm0,0c0-.4-.2-.72-.59-.72s-.59.33-.59.72.2.72.59.72S88.18,211.73,88.18,211.33Z"/><path class="cls-23" d="M89.58,210.6v1.47h0l-.93-1.4v1.4h0V210.6h0l.93,1.4v-1.4Z"/><path class="cls-23" d="M90,211.33c0,.4.18.72.59.72a.52.52,0,0,0,.4-.16V212a.57.57,0,0,1-.4.14c-.43,0-.64-.34-.64-.76s.23-.76.64-.76a.58.58,0,0,1,.4.14v.06a.53.53,0,0,0-.4-.16C90.18,210.61,90,210.94,90,211.33Z"/><path class="cls-23" d="M92.47,211.33c0,.42-.23.76-.64.76s-.63-.34-.63-.76.22-.76.63-.76S92.47,210.91,92.47,211.33Zm0,0c0-.4-.2-.72-.59-.72s-.59.33-.59.72.2.72.59.72S92.42,211.73,92.42,211.33Z"/><path class="cls-23" d="M93.74,210.6v1c0,.34-.15.53-.46.53s-.46-.19-.46-.53v-1h0v1c0,.31.14.49.42.49s.42-.17.42-.49v-1Z"/><path class="cls-23" d="M95.1,212.07l-.43-.6h-.46v.6h0V210.6h.46a.41.41,0,0,1,.45.44.4.4,0,0,1-.37.43l.43.6Zm-.47-.64a.4.4,0,1,0,0-.79h-.42v.79Z"/><path class="cls-23" d="M96.35,211.71a.41.41,0,0,1-.46.39.73.73,0,0,1-.47-.15v0a.73.73,0,0,0,.47.15c.24,0,.41-.13.41-.35s-.2-.28-.43-.36-.44-.15-.44-.39a.39.39,0,0,1,.44-.39.77.77,0,0,1,.4.11v0a.7.7,0,0,0-.4-.12.35.35,0,0,0-.39.35c0,.21.19.26.41.34S96.35,211.44,96.35,211.71Z"/><path class="cls-19" d="M114.48,182.94c1,0,6.1,4.68,8.91,4.27,5.89-.86,10.11.41,10.85,4.1.71,3.53,4.32,3.26,5.22,6.94a25.69,25.69,0,0,1,.9,5.29V182.94H115.5"/><path class="cls-19" d="M134.88,226.82c-1,0-6.1-4.68-8.91-4.27-5.89.86-10.11-.41-10.85-4.1-.71-3.53-4.32-3.26-5.22-6.94a25.69,25.69,0,0,1-.9-5.29v20.59h24.86"/><path class="cls-19" d="M121.28,208.5c-2.1-1.3-.63-1.42-2.45-3.48-1.5-1.7-2.49-3.27-1.94-4.7,1.32-3.42,3.79-1.85,6.19-4.2,2.07-2,6.12-.73,6.94,1.61s1.37,1.18,3.07,3.39c2,2.55-2.28,5.43-4.3,5.4s-3,2-4.3,2.26A4.61,4.61,0,0,1,121.28,208.5Z"/><text class="cls-20" transform="translate(111.83 189.28) scale(0.95 1)">04</text><text class="cls-21" transform="translate(114.64 220.73) rotate(180) scale(0.91 1)">03</text><text class="cls-20" transform="translate(134.52 189.3) scale(0.95 1)">04</text><text class="cls-21" transform="translate(137.32 220.75) rotate(180) scale(0.91 1)">03</text><path class="cls-23" d="M119.92,212.15a.41.41,0,0,1-.46.39.75.75,0,0,1-.48-.15v0a.75.75,0,0,0,.48.15c.24,0,.42-.13.42-.35s-.21-.28-.44-.36-.45-.15-.45-.39.23-.39.45-.39a.79.79,0,0,1,.41.11v0a.72.72,0,0,0-.41-.12c-.2,0-.4.09-.4.35s.2.26.42.34S119.92,211.88,119.92,212.15Z"/><path class="cls-23" d="M121.22,211.47a.41.41,0,0,1-.46.44h-.43v.6h0V211h.47A.41.41,0,0,1,121.22,211.47Zm0,0a.37.37,0,0,0-.41-.4h-.43v.79h.43A.37.37,0,0,0,121.17,211.47Z"/><path class="cls-23" d="M122.77,211.77a.68.68,0,0,1-.65.76c-.42,0-.65-.34-.65-.76s.23-.76.65-.76A.68.68,0,0,1,122.77,211.77Zm0,0c0-.4-.21-.72-.6-.72s-.6.33-.6.72.2.72.6.72S122.72,212.17,122.72,211.77Z"/><path class="cls-23" d="M124.15,211v1.47h0l-.95-1.4v1.4h0V211h0l.95,1.4V211Z"/><path class="cls-23" d="M125.47,212.15a.41.41,0,0,1-.46.39.75.75,0,0,1-.48-.15v0a.75.75,0,0,0,.48.15c.24,0,.42-.13.42-.35s-.21-.28-.44-.36-.45-.15-.45-.39.23-.39.45-.39a.79.79,0,0,1,.41.11v0A.72.72,0,0,0,125,211c-.2,0-.4.09-.4.35s.2.26.42.34S125.47,211.88,125.47,212.15Z"/><path class="cls-23" d="M127.06,211.77a.68.68,0,0,1-.65.76c-.42,0-.65-.34-.65-.76s.23-.76.65-.76A.68.68,0,0,1,127.06,211.77Zm0,0c0-.4-.21-.72-.6-.72s-.6.33-.6.72.2.72.6.72S127,212.17,127,211.77Z"/><path class="cls-23" d="M128.36,212.51l-.43-.6h-.47v.6h0V211h.47a.41.41,0,0,1,.46.44.4.4,0,0,1-.38.43l.44.6Zm-.47-.64a.4.4,0,1,0,0-.79h-.43v.79Z"/><path class="cls-23" d="M128.78,211v1.47h0V211Z"/><path class="cls-23" d="M130.25,211v1.47h0l-.95-1.4v1.4h0V211h0l.95,1.4V211Z"/><path class="cls-23" d="M131.7,211.72v.66a.71.71,0,0,1-.45.16c-.44,0-.65-.31-.65-.76a.68.68,0,0,1,.65-.76.61.61,0,0,1,.41.14v.06a.56.56,0,0,0-.41-.16c-.4,0-.6.33-.6.72s.19.72.6.72a.66.66,0,0,0,.41-.14v-.64Z"/><path class="cls-25" d="M147.5,182.75c1,0,6.1,4.68,8.91,4.27,5.89-.86,10.11.41,10.85,4.1.71,3.53,4.32,3.26,5.22,6.94a25.69,25.69,0,0,1,.9,5.29V182.75H148.52"/><path class="cls-25" d="M167.9,226.64c-1,0-6.1-4.68-8.91-4.27-5.89.86-10.11-.41-10.85-4.1-.71-3.53-4.32-3.26-5.22-6.94A25.69,25.69,0,0,1,142,206v20.59h24.86"/><path class="cls-25" d="M154.3,208.32c-2.1-1.3-.63-1.42-2.45-3.48-1.5-1.7-2.49-3.27-1.94-4.7,1.32-3.42,3.79-1.85,6.19-4.2,2.07-2,6.12-.73,6.94,1.61s1.37,1.18,3.07,3.39c2,2.55-2.28,5.43-4.3,5.4s-3,2-4.3,2.26A4.61,4.61,0,0,1,154.3,208.32Z"/><text class="cls-20" transform="translate(144.85 189.1) scale(0.95 1)">05</text><text class="cls-21" transform="translate(147.66 220.54) rotate(180) scale(0.91 1)">04</text><text class="cls-20" transform="translate(167.54 189.11) scale(0.95 1)">05</text><text class="cls-21" transform="translate(170.34 220.56) rotate(180) scale(0.91 1)">04</text><path class="cls-22" d="M160.68,194.41a.5.5,0,0,1,.32.55c0,.23,0,.46,0,.69a.42.42,0,0,1-.42.45.43.43,0,0,1-.42-.45c0-.23,0-.47,0-.7a.49.49,0,0,1,.34-.54Z"/><path class="cls-22" d="M158.42,203.49a1.4,1.4,0,0,1,.57,1.17,1.63,1.63,0,0,1-.67,1.12l.61.61a5,5,0,0,1,.39.41,1.26,1.26,0,0,1-.13,1.7,1.24,1.24,0,0,1-1.71,0c-.68-.65-1.34-1.33-2-2a1.35,1.35,0,0,1-.12-.17c-.12.13-.21.23-.3.33a1.26,1.26,0,0,1-1.82,0l-1.16-1.16a1.26,1.26,0,0,1,0-1.85c.78-.78,1.57-1.55,2.33-2.35a8.66,8.66,0,0,0,2.24-4.3.31.31,0,0,0,0-.18,1.24,1.24,0,0,1,0-1.28,1.27,1.27,0,0,1,2-.23l4.76,4.77a1.27,1.27,0,0,1-.78,2.17,1.29,1.29,0,0,1-.72-.15.35.35,0,0,0-.21,0,8.72,8.72,0,0,0-3.17,1.34Zm2.6-2.13-3.66-3.66a9.67,9.67,0,0,1-2,3.85l1.83,1.83A9.67,9.67,0,0,1,161,201.36Zm-6.29.84-.08.08-2,2a.44.44,0,0,0,0,.71l1.08,1.08a.44.44,0,0,0,.72,0l1.93-1.93.09-.1Zm8.2-1.27a1.25,1.25,0,0,0-.17-.27l-4.7-4.71-.06-.06a.41.41,0,0,0-.47-.05.38.38,0,0,0-.21.42.62.62,0,0,0,.16.29l4.69,4.7.09.09a.41.41,0,0,0,.44,0A.46.46,0,0,0,162.94,200.93Zm-7,4.86,2.08,2.08a.39.39,0,0,0,.4.11.42.42,0,0,0,.16-.73l-2-2-.07-.05Zm1.19-1.21.09.09.5.51c.6-.5.55-.73,0-1.16l-.16.14Z"/><path class="cls-22" d="M163.55,195.7a1.22,1.22,0,0,1-.15.27c-.27.29-.56.57-.84.85a.42.42,0,0,1-.6-.59l.86-.86a.4.4,0,0,1,.47-.08A.48.48,0,0,1,163.55,195.7Z"/><path class="cls-22" d="M163.53,198.63h-.42a.42.42,0,1,1,0-.84h.85a.42.42,0,0,1,.42.42.42.42,0,0,1-.42.42Z"/><path class="cls-22" d="M155.18,204a1.21,1.21,0,0,1-.14.26c-.19.21-.39.4-.6.6a.42.42,0,1,1-.59-.6l.59-.59a.42.42,0,0,1,.48-.09A.49.49,0,0,1,155.18,204Z"/><path class="cls-23" d="M154.33,211.25a.43.43,0,0,1-.48.46h-.45v.62h0v-1.53h.49A.43.43,0,0,1,154.33,211.25Zm0,0a.38.38,0,0,0-.43-.41h-.45v.82h.45A.38.38,0,0,0,154.28,211.25Z"/><path class="cls-23" d="M155.65,210.79v1c0,.35-.16.55-.49.55s-.49-.2-.49-.55v-1h0v1c0,.32.14.51.45.51s.45-.18.45-.51v-1Z"/><path class="cls-23" d="M157.09,211.92a.39.39,0,0,1-.44.4h-.54v-1.53h.5c.26,0,.44.13.44.38a.34.34,0,0,1-.26.37A.35.35,0,0,1,157.09,211.92Zm-.94-1.09v.69h.48c.24,0,.37-.12.37-.35s-.15-.34-.39-.34Zm.89,1.09c0-.21-.13-.35-.39-.35h-.5v.72h.49C156.92,212.28,157,212.13,157,211.92Z"/><path class="cls-23" d="M158.27,212.28v0h-.83v-1.53h0v1.49Z"/><path class="cls-23" d="M158.64,210.79v1.53h0v-1.53Z"/><path class="cls-23" d="M159.06,211.56c0,.41.2.75.63.75a.55.55,0,0,0,.42-.17v.06a.61.61,0,0,1-.42.15c-.45,0-.67-.36-.67-.79a.7.7,0,0,1,.67-.79.62.62,0,0,1,.42.15V211a.56.56,0,0,0-.42-.17C159.28,210.8,159.06,211.14,159.06,211.56Z"/><path class="cls-23" d="M160.52,210.79v1.53h0v-1.53Z"/><path class="cls-23" d="M161.82,210.83h-.47v1.49h0v-1.49h-.47v0h1Z"/><path class="cls-23" d="M163,212.28v0h-.85v-1.53H163v0h-.81v.7H163v0h-.76v.71Zm-.24-2-.19.28h0l.15-.28Z"/><path class="cls-22" d="M118.24,202.14v-.59a1.64,1.64,0,0,1,.46-.84c.19-.17.41-.3.62-.45a1.64,1.64,0,0,1,1.38-2.54,1.66,1.66,0,0,1,1.66-1.67V196s0,0,0-.06a1.63,1.63,0,0,1,2.81-1l.28.31a1.73,1.73,0,0,1,1.89-.77,1.6,1.6,0,0,1,1.22,1.59,1.66,1.66,0,0,1,1.66,1.67,1.64,1.64,0,0,1,1.36,2.57l0,0a1.63,1.63,0,0,1,.54,2.74c-.31.29-.61.61-.91.91l-.22.18.36.34a1.17,1.17,0,0,1,.33.57,1.61,1.61,0,0,1-.48,1.58l-1.63,1.63a1.61,1.61,0,0,1-2.35,0l-.65-.65a.21.21,0,0,0-.21-.07,5,5,0,0,1-1.91,0,.22.22,0,0,0-.22.08c-.26.26-.51.53-.79.77a1.58,1.58,0,0,1-2.09,0c-.62-.59-1.23-1.2-1.82-1.82a1.53,1.53,0,0,1,0-2.18l.21-.18c-.31-.32-.58-.62-.87-.89A2.3,2.3,0,0,1,118.24,202.14Zm4.13.13,0,.12a1.59,1.59,0,0,1-1.21,2,1.22,1.22,0,0,0-.75.43,1.85,1.85,0,0,0-.21.22,1,1,0,0,0-.15.37.69.69,0,0,0,.24.58l1.63,1.63a.71.71,0,0,0,1.07,0c.28-.28.57-.55.84-.84a.57.57,0,0,1,.6-.17,4.11,4.11,0,0,0,3.94-1.05c1.09-1,2.14-2.12,3.2-3.19a.71.71,0,0,0,.08-1,.72.72,0,0,0-.93-.21.46.46,0,0,1-.62-.13.45.45,0,0,1,.08-.63c.2-.2.4-.39.59-.59a.73.73,0,0,0-1-1,.43.43,0,0,1-.52.07.42.42,0,0,1-.22-.48.75.75,0,0,1,.16-.28.72.72,0,0,0-.39-1.17.71.71,0,0,0-.68.19.45.45,0,0,1-.75-.2.48.48,0,0,1,.14-.46.71.71,0,0,0,.07-.88.73.73,0,0,0-.82-.3c-.28.08-.43.32-.64.52a1.82,1.82,0,0,1,.82,1.76,1.61,1.61,0,0,1-1.34,1.36,1.64,1.64,0,0,1-2,2A1.67,1.67,0,0,1,122.36,202.27Zm2.35-2.93a.66.66,0,0,0-.19-.49l-1.7-1.7a.71.71,0,0,0-1,0,.72.72,0,0,0,0,1l0,0,1.66,1.66a.68.68,0,0,0,.8.15A.69.69,0,0,0,124.71,199.34Zm1.33-2a.72.72,0,0,0-.23-.54l-.66-.66c-.22-.22-.43-.44-.66-.66a.72.72,0,0,0-1,1q.67.69,1.37,1.37a.67.67,0,0,0,.78.13A.69.69,0,0,0,126,197.36Zm-5.37,1.27a.72.72,0,0,0-.52,1.23l1.32,1.32a.72.72,0,1,0,1-1l-1.31-1.31A.7.7,0,0,0,120.68,198.63Zm6.82,8.58.45.44a.7.7,0,0,0,1,0c.56-.56,1.12-1.11,1.67-1.68a1.31,1.31,0,0,0,.24-.44.37.37,0,0,0-.07-.39c-.11-.13-.23-.24-.36-.37l-.11.1c-.3.3-.61.6-.91.91A5.72,5.72,0,0,1,127.5,207.21Zm-6.67-3.65a.72.72,0,0,0,.53-1.22l-1-1a.72.72,0,1,0-1,1l1,1A.67.67,0,0,0,120.83,203.56Z"/><rect class="cls-24" x="68.26" y="202.01" width="107.37" height="24.82"/><path class="cls-30" d="M80.45,216.81c1,0,6.1,4.68,8.91,4.27,5.89-.86,10.11.41,10.85,4.1.71,3.53,4.32,3.26,5.22,6.94a25.69,25.69,0,0,1,.9,5.29V216.81H81.47"/><path class="cls-30" d="M100.85,260.7c-1,0-6.1-4.68-8.91-4.27-5.89.86-10.11-.41-10.85-4.1-.71-3.53-4.32-3.26-5.22-6.94a25.69,25.69,0,0,1-.9-5.29V260.7H99.83"/><path class="cls-30" d="M87.25,242.38c-2.1-1.3-.63-1.42-2.45-3.48-1.5-1.7-2.49-3.27-1.94-4.7,1.32-3.42,3.79-1.85,6.19-4.2,2.07-2,6.12-.73,6.94,1.61S97.36,232.79,99,235c2,2.55-2.28,5.43-4.3,5.4s-3,2-4.3,2.26A4.61,4.61,0,0,1,87.25,242.38Z"/><text class="cls-20" transform="translate(77.8 223.15) scale(0.95 1)">01</text><text class="cls-21" transform="translate(80.6 254.6) rotate(180) scale(0.91 1)">02</text><text class="cls-20" transform="translate(100.49 223.17) scale(0.95 1)">01</text><text class="cls-21" transform="translate(103.29 254.62) rotate(180) scale(0.91 1)">02</text><path class="cls-23" d="M85.85,245.63c0,.4.18.72.59.72a.52.52,0,0,0,.4-.16v.06a.57.57,0,0,1-.4.14c-.43,0-.64-.34-.64-.76s.23-.76.64-.76a.58.58,0,0,1,.4.14v.06a.53.53,0,0,0-.4-.16C86,244.91,85.85,245.23,85.85,245.63Z"/><path class="cls-23" d="M88.34,245.63c0,.42-.23.76-.64.76s-.63-.34-.63-.76.22-.76.63-.76S88.34,245.21,88.34,245.63Zm0,0c0-.4-.2-.72-.59-.72s-.59.33-.59.72.2.72.59.72S88.29,246,88.29,245.63Z"/><path class="cls-23" d="M89.7,244.89v1.47h0l-.93-1.4v1.4h0v-1.47h0l.93,1.4v-1.4Z"/><path class="cls-23" d="M90.09,245.63c0,.4.18.72.59.72a.52.52,0,0,0,.4-.16v.06a.57.57,0,0,1-.4.14c-.43,0-.64-.34-.64-.76s.23-.76.64-.76a.58.58,0,0,1,.4.14v.06a.53.53,0,0,0-.4-.16C90.29,244.91,90.09,245.23,90.09,245.63Z"/><path class="cls-23" d="M92.58,245.63c0,.42-.23.76-.64.76s-.63-.34-.63-.76.22-.76.63-.76S92.58,245.21,92.58,245.63Zm0,0c0-.4-.2-.72-.59-.72s-.59.33-.59.72.2.72.59.72S92.53,246,92.53,245.63Z"/><path class="cls-23" d="M93.85,244.89v1c0,.34-.15.53-.46.53s-.46-.19-.46-.53v-1h0v1c0,.31.14.49.42.49s.42-.17.42-.49v-1Z"/><path class="cls-23" d="M95.21,246.37l-.43-.6h-.46v.6h0v-1.47h.46a.41.41,0,0,1,.45.44.4.4,0,0,1-.37.43l.43.6Zm-.47-.64a.4.4,0,1,0,0-.79h-.42v.79Z"/><path class="cls-23" d="M96.46,246a.41.41,0,0,1-.46.39.73.73,0,0,1-.47-.15v0a.73.73,0,0,0,.47.15c.24,0,.41-.13.41-.35s-.2-.28-.43-.36-.44-.15-.44-.39a.39.39,0,0,1,.44-.39.77.77,0,0,1,.4.11v0a.7.7,0,0,0-.4-.12.35.35,0,0,0-.39.35c0,.21.19.26.41.34S96.46,245.74,96.46,246Z"/><path class="cls-26" d="M114.6,217.24c1,0,6.1,4.68,8.91,4.27,5.89-.86,10.11.41,10.85,4.1.71,3.53,4.32,3.26,5.22,6.94a25.69,25.69,0,0,1,.9,5.29V217.24H115.61"/><path class="cls-26" d="M135,261.12c-1,0-6.1-4.68-8.91-4.27-5.89.86-10.11-.41-10.85-4.1-.71-3.53-4.32-3.26-5.22-6.94a25.69,25.69,0,0,1-.9-5.29v20.59H134"/><path class="cls-26" d="M121.39,242.8c-2.1-1.3-.63-1.42-2.45-3.48-1.5-1.7-2.49-3.27-1.94-4.7,1.32-3.42,3.79-1.85,6.19-4.2,2.07-2,6.12-.73,6.94,1.61s1.37,1.18,3.07,3.39c2,2.55-2.28,5.43-4.3,5.4s-3,2-4.3,2.26A4.61,4.61,0,0,1,121.39,242.8Z"/><text class="cls-20" transform="translate(111.94 223.58) scale(0.95 1)">03</text><text class="cls-21" transform="translate(114.75 255.03) rotate(180) scale(0.91 1)">03</text><text class="cls-20" transform="translate(134.63 223.59) scale(0.95 1)">03</text><text class="cls-21" transform="translate(137.44 255.04) rotate(180) scale(0.91 1)">03</text><path class="cls-23" d="M120,246.44a.41.41,0,0,1-.46.39.75.75,0,0,1-.48-.15v0a.75.75,0,0,0,.48.15c.24,0,.42-.13.42-.35s-.21-.28-.44-.36-.45-.15-.45-.39.23-.39.45-.39a.79.79,0,0,1,.41.11v0a.72.72,0,0,0-.41-.12c-.2,0-.4.09-.4.35s.2.26.42.34S120,246.17,120,246.44Z"/><path class="cls-23" d="M121.33,245.77a.41.41,0,0,1-.46.44h-.43v.6h0v-1.47h.47A.41.41,0,0,1,121.33,245.77Zm0,0a.37.37,0,0,0-.41-.4h-.43v.79h.43A.37.37,0,0,0,121.28,245.77Z"/><path class="cls-23" d="M122.88,246.07a.68.68,0,0,1-.65.76c-.42,0-.65-.34-.65-.76s.23-.76.65-.76A.68.68,0,0,1,122.88,246.07Zm0,0c0-.4-.21-.72-.6-.72s-.6.33-.6.72.2.72.6.72S122.84,246.47,122.84,246.07Z"/><path class="cls-23" d="M124.27,245.33v1.47h0l-.95-1.4v1.4h0v-1.47h0l.95,1.4v-1.4Z"/><path class="cls-23" d="M125.59,246.44a.41.41,0,0,1-.46.39.75.75,0,0,1-.48-.15v0a.75.75,0,0,0,.48.15c.24,0,.42-.13.42-.35s-.21-.28-.44-.36-.45-.15-.45-.39.23-.39.45-.39a.79.79,0,0,1,.41.11v0a.72.72,0,0,0-.41-.12c-.2,0-.4.09-.4.35s.2.26.42.34S125.59,246.17,125.59,246.44Z"/><path class="cls-23" d="M127.17,246.07a.68.68,0,0,1-.65.76c-.42,0-.65-.34-.65-.76s.23-.76.65-.76A.68.68,0,0,1,127.17,246.07Zm0,0c0-.4-.21-.72-.6-.72s-.6.33-.6.72.2.72.6.72S127.12,246.47,127.12,246.07Z"/><path class="cls-23" d="M128.47,246.81l-.43-.6h-.47v.6h0v-1.47H128a.41.41,0,0,1,.46.44.4.4,0,0,1-.38.43l.44.6Zm-.47-.64a.4.4,0,1,0,0-.79h-.43v.79Z"/><path class="cls-23" d="M128.9,245.33v1.47h0v-1.47Z"/><path class="cls-23" d="M130.36,245.33v1.47h0l-.95-1.4v1.4h0v-1.47h0l.95,1.4v-1.4Z"/><path class="cls-23" d="M131.82,246v.66a.71.71,0,0,1-.45.16c-.44,0-.65-.31-.65-.76a.68.68,0,0,1,.65-.76.61.61,0,0,1,.41.14v.06a.56.56,0,0,0-.41-.16c-.4,0-.6.33-.6.72s.19.72.6.72a.66.66,0,0,0,.41-.14V246Z"/><path class="cls-28" d="M147.62,217.05c1,0,6.1,4.68,8.91,4.27,5.89-.86,10.11.41,10.85,4.1.71,3.53,4.32,3.26,5.22,6.94a25.69,25.69,0,0,1,.9,5.29V217.05H148.63"/><path class="cls-28" d="M168,260.94c-1,0-6.1-4.68-8.91-4.27-5.89.86-10.11-.41-10.85-4.1-.71-3.53-4.32-3.26-5.22-6.94a25.69,25.69,0,0,1-.9-5.29v20.59H167"/><path class="cls-28" d="M154.41,242.61c-2.1-1.3-.63-1.42-2.45-3.48-1.5-1.7-2.49-3.27-1.94-4.7,1.32-3.42,3.79-1.85,6.19-4.2,2.07-2,6.12-.73,6.94,1.61s1.37,1.18,3.07,3.39c2,2.55-2.28,5.43-4.3,5.4s-3,2-4.3,2.26A4.61,4.61,0,0,1,154.41,242.61Z"/><text class="cls-20" transform="translate(144.96 223.39) scale(0.95 1)">06</text><text class="cls-21" transform="translate(147.77 254.84) rotate(180) scale(0.91 1)">04</text><text class="cls-20" transform="translate(167.65 223.41) scale(0.95 1)">06</text><text class="cls-21" transform="translate(170.45 254.86) rotate(180) scale(0.91 1)">04</text><path class="cls-23" d="M154.44,245.54a.43.43,0,0,1-.48.46h-.45v.62h0v-1.53H154A.43.43,0,0,1,154.44,245.54Zm0,0a.38.38,0,0,0-.43-.41h-.45V246H154A.38.38,0,0,0,154.39,245.54Z"/><path class="cls-23" d="M155.77,245.09v1c0,.35-.16.55-.49.55s-.49-.2-.49-.55v-1h0v1c0,.32.14.51.45.51s.45-.18.45-.51v-1Z"/><path class="cls-23" d="M157.2,246.21a.39.39,0,0,1-.44.4h-.54v-1.53h.5c.26,0,.44.13.44.38a.34.34,0,0,1-.26.37A.35.35,0,0,1,157.2,246.21Zm-.94-1.09v.69h.48c.24,0,.37-.12.37-.35s-.15-.34-.39-.34Zm.89,1.09c0-.21-.13-.35-.39-.35h-.5v.72h.49C157,246.58,157.15,246.43,157.15,246.21Z"/><path class="cls-23" d="M158.39,246.58v0h-.83v-1.53h0v1.49Z"/><path class="cls-23" d="M158.76,245.09v1.53h0v-1.53Z"/><path class="cls-23" d="M159.17,245.85c0,.41.2.75.63.75a.55.55,0,0,0,.42-.17v.06a.61.61,0,0,1-.42.15c-.45,0-.67-.36-.67-.79a.7.7,0,0,1,.67-.79.62.62,0,0,1,.42.15v.06a.56.56,0,0,0-.42-.17C159.39,245.1,159.17,245.44,159.17,245.85Z"/><path class="cls-23" d="M160.63,245.09v1.53h0v-1.53Z"/><path class="cls-23" d="M161.93,245.13h-.47v1.49h0v-1.49H161v0h1Z"/><path class="cls-23" d="M163.11,246.58v0h-.85v-1.53h.85v0h-.81v.7h.76v0h-.76v.71Zm-.24-2-.19.28h0l.15-.28Z"/><path class="cls-29" d="M150.36,232.25c.14-.2.32-.24.43-.09a.43.43,0,0,1,.07.25q0,2.18,0,4.36,0,2.68,0,5.37a.77.77,0,0,0,.86.86h6c0-.19,0-.37,0-.54s-.06-.08-.11-.1a5.33,5.33,0,0,0-1.93-.37,16.45,16.45,0,0,0-3.91.48c-.27.07-.39,0-.39-.31q0-5.5,0-11c0-.23.05-.3.27-.36a16.5,16.5,0,0,1,4.08-.49,5.86,5.86,0,0,1,2.25.48.37.37,0,0,1,.26.4q0,4.69,0,9.39v.21l.82-.44a25.15,25.15,0,0,1,3.39-1.54.14.14,0,0,0,.11-.16q0-4.8,0-9.61s0-.07,0-.12l-.68.29a27.83,27.83,0,0,0-2.85,1.5l-.13.08a.26.26,0,0,1-.36-.09.25.25,0,0,1,.1-.35l.68-.4a24.69,24.69,0,0,1,3.32-1.61c.28-.11.43,0,.43.29q0,5.12,0,10.23c0,.21,0,.28-.23.35a26.21,26.21,0,0,0-4.57,2.16c-.37.21-.54.07-.54-.32,0-3.21,0-6.42,0-9.62a.23.23,0,0,0-.18-.26,5.75,5.75,0,0,0-2.07-.34,18,18,0,0,0-3.42.41c-.14,0-.18.08-.18.22q0,5.14,0,10.28v.18l.67-.13a16.54,16.54,0,0,1,3.24-.29,5.75,5.75,0,0,1,2.07.43.35.35,0,0,0,.27,0,8,8,0,0,1,3.23-.42,15.67,15.67,0,0,1,2.63.38h.08v-.17q0-5.14,0-10.28c0-.14,0-.2-.17-.2a.6.6,0,0,1-.19,0,.25.25,0,0,1-.17-.28.24.24,0,0,1,.25-.2,3.63,3.63,0,0,1,.61.12c.07,0,.12.13.16.21s0,.1,0,.15q0,5.46,0,10.92s0,.08,0,.12a.25.25,0,0,1-.34.25,13.09,13.09,0,0,0-2.19-.41,8.29,8.29,0,0,0-3.64.29c-.13,0-.2.1-.18.25a3,3,0,0,1,0,.34.42.42,0,0,0,0,.06h6a.77.77,0,0,0,.84-.84q0-4.85,0-9.7c0-.25.08-.38.26-.37s.25.12.25.38q0,4.82,0,9.64a1.28,1.28,0,0,1-1.07,1.39H151.46l-.11,0a1.27,1.27,0,0,1-.93-.86l-.06-.18Z"/><path class="cls-29" d="M155.15,238.89l1.31.17a.25.25,0,0,1,.24.31c0,.15-.17.22-.35.18a7,7,0,0,0-2.67,0l-.44.09a.25.25,0,0,1-.33-.19.25.25,0,0,1,.21-.3A11.32,11.32,0,0,1,155.15,238.89Z"/><path class="cls-29" d="M156.7,237.79a.25.25,0,0,1-.3.25,7.36,7.36,0,0,0-3.15.11c-.18,0-.31,0-.34-.18s0-.26.23-.31a7.75,7.75,0,0,1,3.25-.14C156.61,237.56,156.7,237.64,156.7,237.79Z"/><path class="cls-29" d="M155,236.35l-1.71.26-.12,0a.24.24,0,0,1-.29-.19.24.24,0,0,1,.18-.3c.26-.06.53-.12.8-.16a7.1,7.1,0,0,1,2.51,0l.1,0a.25.25,0,1,1-.11.49c-.25,0-.51-.08-.76-.1s-.4,0-.59,0Z"/><path class="cls-29" d="M156.43,233.45c-.31,0-.62-.09-.93-.1a8,8,0,0,0-2.24.22c-.11,0-.23,0-.3-.07a.32.32,0,0,1,0-.24.3.3,0,0,1,.19-.17,7.68,7.68,0,0,1,3.33-.13l.09,0a.25.25,0,0,1,.18.29A.22.22,0,0,1,156.43,233.45Z"/><path class="cls-29" d="M156.49,235l-.73-.1a7.84,7.84,0,0,0-2.48.2l-.1,0a.24.24,0,0,1-.28-.2.24.24,0,0,1,.18-.28c.25-.06.5-.11.76-.16a7.32,7.32,0,0,1,2.44,0l.25.06a.24.24,0,0,1,.17.29A.23.23,0,0,1,156.49,235Z"/><path class="cls-29" d="M161.78,234.37a.26.26,0,0,1-.18.23l-2.21,1a.26.26,0,0,1-.37-.09.24.24,0,0,1,.12-.35l2.25-1A.26.26,0,0,1,161.78,234.37Z"/><path class="cls-29" d="M161.51,237.15a.25.25,0,0,1,.1.49c-.3.12-.6.23-.89.36l-1.3.61a.41.41,0,0,1-.29,0,.25.25,0,0,1-.12-.21.37.37,0,0,1,.17-.23q.65-.33,1.31-.63c.29-.13.59-.24.89-.36Z"/><path class="cls-29" d="M161.78,232.89s-.1.14-.18.18l-2.19,1c-.17.08-.31,0-.39-.09a.25.25,0,0,1,.15-.36l2.18-1,.14,0C161.64,232.56,161.78,232.68,161.78,232.89Z"/><path class="cls-29" d="M161.5,235.63a.25.25,0,0,1,.27.2.25.25,0,0,1-.17.29c-.23.09-.47.17-.7.28l-1.46.68a.5.5,0,0,1-.19.06.25.25,0,0,1-.11-.47l.55-.27,1.63-.71Z"/><path class="cls-29" d="M159.27,232.58a.26.26,0,0,1-.27-.19.24.24,0,0,1,.14-.29c.27-.14.54-.27.81-.4l1.36-.58.11,0a.25.25,0,1,1,.16.48c-.27.11-.55.21-.81.33l-1.34.63Z"/><path class="cls-22" d="M93.41,244.33l-5.64-5.64-3.95-3.94a.41.41,0,0,1-.11-.48c.46-1.37.91-2.74,1.38-4.1a.24.24,0,0,0-.07-.29l-1.23-1.23a.29.29,0,0,1-.09-.35.27.27,0,0,1,.45-.06l.79.79c.15.15.3.29.44.44a.19.19,0,0,0,.24.05l4.28-1.43a.41.41,0,0,1,.48.11l9.44,9.44.17.18V238l-.2.22-5.93,5.93-.15.16Zm-7.86-13.85,0,.13c-.4,1.2-.8,2.4-1.2,3.59a.28.28,0,0,0,.08.34l9,9a.6.6,0,0,1,.08.12l5.79-5.79-.07-.08-9.1-9.11a.19.19,0,0,0-.23-.06l-3,1-1,.32L87,231.06a1.36,1.36,0,1,1-.44.44ZM87,231.87a.78.78,0,0,0,.23,1,.85.85,0,0,0,1.09-.11.82.82,0,0,0,0-1.08.76.76,0,0,0-1-.17l.18.14c.13.12.25.24.37.37a.26.26,0,0,1,0,.37.27.27,0,0,1-.36,0l-.14-.13Z"/><path class="cls-22" d="M91.27,236.39l.73-.73,4.2,4.2-.73.73Z"/><path class="cls-22" d="M92.43,235.23l.72-.72,4.2,4.2-.72.72Z"/><path class="cls-22" d="M93.55,242.51l-4.19-4.18.73-.73,4.19,4.19Z"/><path class="cls-22" d="M95,241l-.35.34-4.21-4.21.36-.33Z"/><path class="cls-22" d="M98.14,237.95l-.34.32-4.21-4.21.34-.33Z"/><path class="cls-22" d="M117,235.37a.61.61,0,0,1,.65-.36c.45,0,.9,0,1.34,0a.49.49,0,1,1,0,1c-.45,0-.9,0-1.34,0a.61.61,0,0,1-.65-.36Z"/><path class="cls-22" d="M125.76,239.14c0,.33,0,.66,0,1a.49.49,0,1,1-1,0c0-.32,0-.64,0-1a.36.36,0,0,0,0-.06h-1.85a.47.47,0,0,1-.47-.46.48.48,0,0,1,.43-.5H126a1.08,1.08,0,1,0,.08-2.15h-1.57a2.05,2.05,0,0,1-1-3.83,1.92,1.92,0,0,1,1-.27h.35c0-.1,0-.18,0-.26,0-.27,0-.54,0-.81a.49.49,0,1,1,1,0c0,.35,0,.7,0,1.07h1.86a.47.47,0,0,1,.48.47.48.48,0,0,1-.45.5h-3.12a1.08,1.08,0,1,0-.06,2.15h1.59a2,2,0,0,1,.48,4A6.26,6.26,0,0,1,125.76,239.14Z"/><path class="cls-22" d="M118.55,231.1a1.05,1.05,0,0,1,.21.08l1.31.75a.49.49,0,1,1-.48.84l-1.32-.76a.48.48,0,0,1-.23-.57A.5.5,0,0,1,118.55,231.1Z"/><path class="cls-22" d="M132.53,231.59a.48.48,0,0,1-.24.41l-1.36.79a.48.48,0,1,1-.48-.84l1.35-.78A.49.49,0,0,1,132.53,231.59Z"/><path class="cls-22" d="M132.32,235h.75a.49.49,0,1,1,0,1h-1.51a.49.49,0,1,1,0-1Z"/><path class="cls-22" d="M120.34,238.67a.47.47,0,0,1-.24.38l-1.36.79a.48.48,0,1,1-.47-.85l1.35-.78A.49.49,0,0,1,120.34,238.67Z"/><path class="cls-22" d="M130.74,238.14a1,1,0,0,1,.21.07l1.32.76a.49.49,0,1,1-.49.84l-1.32-.76a.48.48,0,0,1-.24-.55A.5.5,0,0,1,130.74,238.14Z"/><path class="cls-22" d="M129.67,242.24a.5.5,0,0,1-.32.5.46.46,0,0,1-.55-.17c-.29-.48-.57-1-.83-1.45a.48.48,0,0,1,.83-.47c.29.47.56,1,.83,1.43A.56.56,0,0,1,129.67,242.24Z"/><path class="cls-22" d="M129.68,228.72a1.67,1.67,0,0,1-.1.27l-.74,1.29a.49.49,0,1,1-.84-.49l.76-1.32a.47.47,0,0,1,.56-.22A.52.52,0,0,1,129.68,228.72Z"/><path class="cls-22" d="M121.44,242.76c-.43,0-.69-.37-.52-.68.26-.5.55-1,.84-1.46a.46.46,0,0,1,.62-.13.47.47,0,0,1,.2.62c-.27.49-.54,1-.84,1.44C121.67,242.67,121.51,242.72,121.44,242.76Z"/><path class="cls-22" d="M122.63,230a.5.5,0,0,1-.36.51.47.47,0,0,1-.54-.22c-.18-.29-.34-.59-.51-.88l-.27-.46a.49.49,0,0,1,.17-.68.48.48,0,0,1,.66.18c.26.45.52.9.78,1.35A.92.92,0,0,1,122.63,230Z"/><rect class="cls-24" x="68.37" y="236.31" width="107.37" height="24.82"/><path class="cls-31" d="M67.46,249c102.42,0,104.79.77,108.28-2.4S177.51,258,177.51,258H67.46Z"/></svg>