<svg id="Calque_1" data-name="Calque 1" xmlns="http://www.w3.org/2000/svg" xmlns:xlink="http://www.w3.org/1999/xlink" viewBox="0 0 195.84 266.4"><defs><style>.cls-1,.cls-31{fill:#080807;}.cls-1,.cls-2,.cls-22,.cls-29{stroke:#000;}.cls-1,.cls-13,.cls-2,.cls-22,.cls-23,.cls-29,.cls-8{stroke-miterlimit:10;}.cls-1,.cls-2{stroke-width:0.75px;}.cls-2,.cls-24{fill:#fff;}.cls-3{font-size:28.03px;}.cls-15,.cls-16,.cls-17,.cls-18,.cls-20,.cls-21,.cls-3,.cls-4{fill:#241f20;}.cls-15,.cls-16,.cls-17,.cls-18,.cls-20,.cls-21,.cls-3{font-family:DINCondensed-Bold, DIN Condensed;font-weight:700;}.cls-4{font-size:7.48px;}.cls-13,.cls-4,.cls-8{font-family:MADEFutureX-Line, MADE Future X;}.cls-5{letter-spacing:-0.01em;}.cls-6{letter-spacing:0em;}.cls-7{fill:url(#Dégradé_sans_nom_14);}.cls-8{font-size:5.89px;}.cls-13,.cls-22,.cls-23,.cls-29,.cls-8{fill:none;}.cls-13,.cls-8{stroke:#fff;stroke-width:0.5px;}.cls-9{fill:url(#Dégradé_sans_nom_14-2);}.cls-10{fill:url(#Dégradé_sans_nom_14-3);}.cls-11{fill:url(#Dégradé_sans_nom_14-4);}.cls-12{fill:url(#Dégradé_sans_nom_14-5);}.cls-13{font-size:6.26px;}.cls-14{letter-spacing:-0.01em;}.cls-15{font-size:2.71px;}.cls-16{font-size:2.73px;}.cls-17{font-size:2.75px;}.cls-18{font-size:2.73px;}.cls-19{fill:#eaa775;}.cls-20{font-size:4.64px;}.cls-21{font-size:4.64px;}.cls-22{stroke-width:0.25px;}.cls-23{stroke:#241f20;stroke-width:0.15px;}.cls-25{fill:#fafaaa;}.cls-26{fill:#f3b0d4;}.cls-27{fill:#fd86a0;}.cls-28{fill:#c8e999;}.cls-29{stroke-width:0.2px;}.cls-30{fill:#9e8cc8;}</style><linearGradient id="Dégradé_sans_nom_14" x1="23.64" y1="93.18" x2="62.87" y2="93.18" gradientUnits="userSpaceOnUse"><stop offset="0" stop-color="#3ebdee"/><stop offset="0.03" stop-color="#45b8eb"/><stop offset="0.36" stop-color="#8f86c5"/><stop offset="0.51" stop-color="#ac72b6"/><stop offset="0.55" stop-color="#b06aad"/><stop offset="0.75" stop-color="#bf4b86"/><stop offset="0.9" stop-color="#c9386f"/><stop offset="1" stop-color="#cc3166"/></linearGradient><linearGradient id="Dégradé_sans_nom_14-2" x1="23.64" y1="126.35" x2="62.87" y2="126.35" xlink:href="#Dégradé_sans_nom_14"/><linearGradient id="Dégradé_sans_nom_14-3" x1="24.12" y1="160.43" x2="63.35" y2="160.43" xlink:href="#Dégradé_sans_nom_14"/><linearGradient id="Dégradé_sans_nom_14-4" x1="24.12" y1="193.6" x2="63.35" y2="193.6" xlink:href="#Dégradé_sans_nom_14"/><linearGradient id="Dégradé_sans_nom_14-5" x1="23.64" y1="226.77" x2="62.87" y2="226.77" xlink:href="#Dégradé_sans_nom_14"/></defs><title>Plan de travail 56</title><rect class="cls-1" x="8.63" y="9.27" width="178.58" height="249.45"/><rect class="cls-2" x="16.33" y="17.26" width="164.32" height="233.3" rx="12" ry="12"/><text class="cls-3" transform="translate(55.4 51.12) scale(0.95 1)">Aide de jeu</text><text class="cls-4" transform="translate(25.05 68.78) scale(0.95 1)">De la combinaison la plus <tspan class="cls-5" x="87.08" y="0">f</tspan><tspan x="89.62" y="0">orte à la plus </tspan><tspan class="cls-5" x="134.94" y="0">f</tspan><tspan class="cls-6" x="137.47" y="0">aible :</tspan></text><rect class="cls-7" x="23.64" y="81.39" width="39.23" height="23.59" rx="6.99" ry="6.99"/><text class="cls-8" transform="translate(26.56 94.27) scale(0.95 1)">Suite couleur</text><rect class="cls-9" x="23.64" y="114.56" width="39.23" height="23.59" rx="6.99" ry="6.99"/><rect class="cls-10" x="24.12" y="148.64" width="39.23" height="23.59" rx="6.99" ry="6.99"/><rect class="cls-11" x="24.12" y="181.8" width="39.23" height="23.59" rx="6.99" ry="6.99"/><rect class="cls-12" x="23.64" y="214.97" width="39.23" height="23.59" rx="6.99" ry="6.99"/><text class="cls-13" transform="translate(34.2 127.76) scale(0.95 1)">Brelan</text><text class="cls-13" transform="translate(33.05 162.06) scale(0.95 1)"><tspan class="cls-14">C</tspan><tspan x="4.09" y="0">ouleur</tspan></text><text class="cls-13" transform="translate(36.47 195.42) scale(0.95 1)">Suite</text><text class="cls-13" transform="translate(33.05 228.85) scale(0.95 1)">Somme</text><text class="cls-15" transform="translate(80.17 149.99) scale(0.95 1)">01</text><text class="cls-15" transform="translate(93.42 150) scale(0.95 1)">01</text><text class="cls-15" transform="translate(113.12 149.41) scale(0.95 1)">04</text><text class="cls-15" transform="translate(126.37 149.42) scale(0.95 1)">04</text><text class="cls-15" transform="translate(144.99 149.33) scale(0.95 1)">09</text><text class="cls-15" transform="translate(158.24 149.34) scale(0.95 1)">09</text><text class="cls-16" transform="translate(78.73 184.57) scale(0.95 1)">03</text><text class="cls-16" transform="translate(92.1 184.58) scale(0.95 1)">03</text><text class="cls-16" transform="translate(112.45 184.33) scale(0.95 1)">04</text><text class="cls-16" transform="translate(125.82 184.34) scale(0.95 1)">04</text><text class="cls-17" transform="translate(143.47 183.29) scale(0.95 1)">05</text><text class="cls-17" transform="translate(156.93 183.3) scale(0.95 1)">05</text><text class="cls-18" transform="translate(79.14 218.21) scale(0.95 1)">01</text><text class="cls-18" transform="translate(92.49 218.22) scale(0.95 1)">01</text><text class="cls-16" transform="translate(112.03 218.05) scale(0.95 1)">03</text><text class="cls-16" transform="translate(125.4 218.06) scale(0.95 1)">03</text><text class="cls-15" transform="translate(143.97 216.93) scale(0.95 1)">09</text><text class="cls-15" transform="translate(157.22 216.94) scale(0.95 1)">09</text><path class="cls-19" d="M80.28,81.64c1,0,6.1,4.68,8.91,4.27C95.08,85,99.3,86.31,100,90c.71,3.53,4.32,3.26,5.22,6.94a25.69,25.69,0,0,1,.9,5.29V81.64H81.3"/><path class="cls-19" d="M100.68,125.52c-1,0-6.1-4.68-8.91-4.27-5.89.86-10.11-.41-10.85-4.1-.71-3.53-4.32-3.26-5.22-6.94a25.69,25.69,0,0,1-.9-5.29v20.59H99.67"/><path class="cls-19" d="M87.08,107.2c-2.1-1.3-.63-1.42-2.45-3.48-1.5-1.7-2.49-3.27-1.94-4.7,1.32-3.42,3.79-1.85,6.19-4.2,2.07-2,6.12-.73,6.94,1.61s1.37,1.18,3.07,3.39c2,2.55-2.28,5.43-4.3,5.4s-3,2-4.3,2.26A4.61,4.61,0,0,1,87.08,107.2Z"/><text class="cls-20" transform="translate(77.63 87.98) scale(0.95 1)">02</text><text class="cls-21" transform="translate(80.43 119.43) rotate(180) scale(0.91 1)">02</text><text class="cls-20" transform="translate(100.32 87.99) scale(0.95 1)">02</text><text class="cls-21" transform="translate(103.12 119.44) rotate(180) scale(0.91 1)">02</text><path class="cls-22" d="M87.62,107.86a.56.56,0,0,1-.39-.61c0-.74,0-1.47,0-2.21,0-.4.18-.58.58-.58h6.29c.4,0,.58.18.58.58,0,.74,0,1.48,0,2.21a.56.56,0,0,1-.39.61Z"/><path class="cls-22" d="M91,93.14h3.18a.49.49,0,0,1,.54.53c0,1.47,0,2.94,0,4.41a4.48,4.48,0,0,1-1.23,3,3.38,3.38,0,0,1-5.14-.22,4.74,4.74,0,0,1-1-2.51,8.39,8.39,0,0,1,0-.92c0-1.26,0-2.51,0-3.77a.5.5,0,0,1,.38-.55.87.87,0,0,1,.2,0Z"/><path class="cls-22" d="M94.91,99.72c.08-.35.15-.68.23-1a.13.13,0,0,1,.07-.08,1.4,1.4,0,0,0,.88-1.31c0-.87,0-1.75,0-2.65h-.87v-1l.06,0h1.32a.48.48,0,0,1,.49.51c0,.93,0,1.87,0,2.8a2.89,2.89,0,0,1-.62,1.87A2.51,2.51,0,0,1,94.91,99.72Z"/><path class="cls-22" d="M86.69,93.71v1H85.8c0,.06,0,.1,0,.14,0,.68,0,1.36,0,2a4.12,4.12,0,0,0,.13.92,1.23,1.23,0,0,0,.74.83.2.2,0,0,1,.13.17c.06.31.14.62.22.95a2.46,2.46,0,0,1-1.68-1A3,3,0,0,1,84.81,97c0-.92,0-1.85,0-2.77a.48.48,0,0,1,.48-.52h1.4Z"/><path class="cls-22" d="M91,103.72H90c-.2,0-.29-.09-.29-.29s0-.43,0-.65.09-.23.25-.2l.68.13A3.62,3.62,0,0,0,92,102.6c.23,0,.3,0,.3.24s0,.4,0,.6a.24.24,0,0,1-.27.27Z"/><path class="cls-23" d="M85.68,110.46c0,.4.18.72.59.72a.52.52,0,0,0,.4-.16v.06a.57.57,0,0,1-.4.14c-.43,0-.64-.34-.64-.76s.23-.76.64-.76a.58.58,0,0,1,.4.14v.06a.53.53,0,0,0-.4-.16C85.88,109.73,85.68,110.06,85.68,110.46Z"/><path class="cls-23" d="M88.17,110.46c0,.42-.23.76-.64.76s-.63-.34-.63-.76.22-.76.63-.76S88.17,110,88.17,110.46Zm0,0c0-.4-.2-.72-.59-.72s-.59.33-.59.72.2.72.59.72S88.12,110.85,88.12,110.46Z"/><path class="cls-23" d="M89.53,109.72v1.47h0l-.93-1.4v1.4h0v-1.47h0l.93,1.4v-1.4Z"/><path class="cls-23" d="M89.92,110.46c0,.4.18.72.59.72a.52.52,0,0,0,.4-.16v.06a.57.57,0,0,1-.4.14c-.43,0-.64-.34-.64-.76s.23-.76.64-.76a.58.58,0,0,1,.4.14v.06a.53.53,0,0,0-.4-.16C90.12,109.73,89.92,110.06,89.92,110.46Z"/><path class="cls-23" d="M92.41,110.46c0,.42-.23.76-.64.76s-.63-.34-.63-.76.22-.76.63-.76S92.41,110,92.41,110.46Zm0,0c0-.4-.2-.72-.59-.72s-.59.33-.59.72.2.72.59.72S92.37,110.85,92.37,110.46Z"/><path class="cls-23" d="M93.68,109.72v1c0,.34-.15.53-.46.53s-.46-.19-.46-.53v-1h0v1c0,.31.14.49.42.49s.42-.17.42-.49v-1Z"/><path class="cls-23" d="M95,111.19l-.43-.6h-.46v.6h0v-1.47h.46a.41.41,0,0,1,.45.44.4.4,0,0,1-.37.43l.43.6Zm-.47-.64a.4.4,0,1,0,0-.79h-.42v.79Z"/><path class="cls-23" d="M96.29,110.83a.41.41,0,0,1-.46.39.73.73,0,0,1-.47-.15v0a.73.73,0,0,0,.47.15c.24,0,.41-.13.41-.35s-.2-.28-.43-.36-.44-.15-.44-.39a.39.39,0,0,1,.44-.39.77.77,0,0,1,.4.11v0a.7.7,0,0,0-.4-.12.35.35,0,0,0-.39.35c0,.21.19.26.41.34S96.29,110.56,96.29,110.83Z"/><path class="cls-19" d="M114.43,82.06c1,0,6.1,4.68,8.91,4.27,5.89-.86,10.11.41,10.85,4.1.71,3.53,4.32,3.26,5.22,6.94a25.69,25.69,0,0,1,.9,5.29V82.06H115.44"/><path class="cls-19" d="M134.82,125.95c-1,0-6.1-4.68-8.91-4.27-5.89.86-10.11-.41-10.85-4.1-.71-3.53-4.32-3.26-5.22-6.94a25.69,25.69,0,0,1-.9-5.29v20.59h24.86"/><path class="cls-19" d="M121.22,107.62c-2.1-1.3-.63-1.42-2.45-3.48-1.5-1.7-2.49-3.27-1.94-4.7,1.32-3.42,3.79-1.85,6.19-4.2,2.07-2,6.12-.73,6.94,1.61s1.37,1.18,3.07,3.39c2,2.55-2.28,5.43-4.3,5.4s-3,2-4.3,2.26A4.61,4.61,0,0,1,121.22,107.62Z"/><text class="cls-20" transform="translate(111.78 88.4) scale(0.95 1)">03</text><text class="cls-21" transform="translate(114.58 119.85) rotate(180) scale(0.91 1)">03</text><text class="cls-20" transform="translate(134.46 88.42) scale(0.95 1)">03</text><text class="cls-21" transform="translate(137.27 119.87) rotate(180) scale(0.91 1)">03</text><path class="cls-22" d="M117,100.8a.61.61,0,0,1,.65-.36c.45,0,.9,0,1.34,0a.49.49,0,1,1,0,1c-.45,0-.9,0-1.34,0a.61.61,0,0,1-.65-.36Z"/><path class="cls-22" d="M125.77,104.57c0,.33,0,.66,0,1a.49.49,0,1,1-1,0c0-.32,0-.64,0-1a.36.36,0,0,0,0-.06h-1.85a.47.47,0,0,1-.47-.46.48.48,0,0,1,.43-.5H126a1.08,1.08,0,1,0,.08-2.15h-1.57a2.05,2.05,0,0,1-1-3.83,1.92,1.92,0,0,1,1-.27h.35c0-.1,0-.18,0-.26,0-.27,0-.54,0-.81a.49.49,0,1,1,1,0c0,.35,0,.7,0,1.07h1.86a.47.47,0,0,1,.48.47.48.48,0,0,1-.45.5h-3.12a1.08,1.08,0,1,0-.06,2.15h1.59a2,2,0,0,1,.48,4A6.26,6.26,0,0,1,125.77,104.57Z"/><path class="cls-22" d="M118.56,96.54a1.05,1.05,0,0,1,.21.08l1.31.75a.49.49,0,1,1-.48.84l-1.32-.76a.48.48,0,0,1-.23-.57A.5.5,0,0,1,118.56,96.54Z"/><path class="cls-22" d="M132.55,97a.48.48,0,0,1-.24.41l-1.36.79a.48.48,0,1,1-.48-.84l1.35-.78A.49.49,0,0,1,132.55,97Z"/><path class="cls-22" d="M132.33,100.45h.75a.49.49,0,1,1,0,1h-1.51a.49.49,0,1,1,0-1Z"/><path class="cls-22" d="M120.35,104.1a.47.47,0,0,1-.24.38l-1.36.79a.48.48,0,1,1-.47-.85l1.35-.78A.49.49,0,0,1,120.35,104.1Z"/><path class="cls-22" d="M130.75,103.58a1,1,0,0,1,.21.07l1.32.76a.49.49,0,1,1-.49.84l-1.32-.76a.48.48,0,0,1-.24-.55A.5.5,0,0,1,130.75,103.58Z"/><path class="cls-22" d="M129.68,107.67a.5.5,0,0,1-.32.5.46.46,0,0,1-.55-.17c-.29-.48-.57-1-.83-1.45a.48.48,0,0,1,.83-.47c.29.47.56,1,.83,1.43A.56.56,0,0,1,129.68,107.67Z"/><path class="cls-22" d="M129.7,94.16a1.67,1.67,0,0,1-.1.27l-.74,1.29a.49.49,0,1,1-.84-.49l.76-1.32a.47.47,0,0,1,.56-.22A.52.52,0,0,1,129.7,94.16Z"/><path class="cls-22" d="M121.45,108.2c-.43,0-.69-.37-.52-.68.26-.5.55-1,.84-1.46a.46.46,0,0,1,.62-.13.47.47,0,0,1,.2.62c-.27.49-.54,1-.84,1.44C121.68,108.11,121.52,108.16,121.45,108.2Z"/><path class="cls-22" d="M122.64,95.47a.5.5,0,0,1-.36.51.47.47,0,0,1-.54-.22c-.18-.29-.34-.59-.51-.88l-.27-.46a.49.49,0,0,1,.17-.68.48.48,0,0,1,.66.18c.26.45.52.9.78,1.35A.92.92,0,0,1,122.64,95.47Z"/><path class="cls-23" d="M119.86,111.27a.41.41,0,0,1-.46.39.75.75,0,0,1-.48-.15v0a.75.75,0,0,0,.48.15c.24,0,.42-.13.42-.35s-.21-.28-.44-.36-.45-.15-.45-.39.23-.39.45-.39a.79.79,0,0,1,.41.11v0a.72.72,0,0,0-.41-.12c-.2,0-.4.09-.4.35s.2.26.42.34S119.86,111,119.86,111.27Z"/><path class="cls-23" d="M121.16,110.59a.41.41,0,0,1-.46.44h-.43v.6h0v-1.47h.47A.41.41,0,0,1,121.16,110.59Zm0,0a.37.37,0,0,0-.41-.4h-.43V111h.43A.37.37,0,0,0,121.12,110.59Z"/><path class="cls-23" d="M122.71,110.89a.68.68,0,0,1-.65.76c-.42,0-.65-.34-.65-.76s.23-.76.65-.76A.68.68,0,0,1,122.71,110.89Zm0,0c0-.4-.21-.72-.6-.72s-.6.33-.6.72.2.72.6.72S122.67,111.29,122.67,110.89Z"/><path class="cls-23" d="M124.1,110.16v1.47h0l-.95-1.4v1.4h0v-1.47h0l.95,1.4v-1.4Z"/><path class="cls-23" d="M125.42,111.27a.41.41,0,0,1-.46.39.75.75,0,0,1-.48-.15v0a.75.75,0,0,0,.48.15c.24,0,.42-.13.42-.35s-.21-.28-.44-.36-.45-.15-.45-.39.23-.39.45-.39a.79.79,0,0,1,.41.11v0a.72.72,0,0,0-.41-.12c-.2,0-.4.09-.4.35s.2.26.42.34S125.42,111,125.42,111.27Z"/><path class="cls-23" d="M127,110.89a.68.68,0,0,1-.65.76c-.42,0-.65-.34-.65-.76s.23-.76.65-.76A.68.68,0,0,1,127,110.89Zm0,0c0-.4-.21-.72-.6-.72s-.6.33-.6.72.2.72.6.72S127,111.29,127,110.89Z"/><path class="cls-23" d="M128.3,111.63l-.43-.6h-.47v.6h0v-1.47h.47a.41.41,0,0,1,.46.44.4.4,0,0,1-.38.43l.44.6Zm-.47-.64a.4.4,0,1,0,0-.79h-.43V111Z"/><path class="cls-23" d="M128.73,110.16v1.47h0v-1.47Z"/><path class="cls-23" d="M130.19,110.16v1.47h0l-.95-1.4v1.4h0v-1.47h0l.95,1.4v-1.4Z"/><path class="cls-23" d="M131.65,110.84v.66a.71.71,0,0,1-.45.16c-.44,0-.65-.31-.65-.76a.68.68,0,0,1,.65-.76.61.61,0,0,1,.41.14v.06a.56.56,0,0,0-.41-.16c-.4,0-.6.33-.6.72s.19.72.6.72a.66.66,0,0,0,.41-.14v-.64Z"/><path class="cls-19" d="M147.45,81.88c1,0,6.1,4.68,8.91,4.27,5.89-.86,10.11.41,10.85,4.1.71,3.53,4.32,3.26,5.22,6.94a25.69,25.69,0,0,1,.9,5.29V81.88H148.46"/><path class="cls-19" d="M167.84,125.76c-1,0-6.1-4.68-8.91-4.27-5.89.86-10.11-.41-10.85-4.1-.71-3.53-4.32-3.26-5.22-6.94a25.69,25.69,0,0,1-.9-5.29v20.59h24.86"/><path class="cls-19" d="M154.24,107.44c-2.1-1.3-.63-1.42-2.45-3.48-1.5-1.7-2.49-3.27-1.94-4.7,1.32-3.42,3.79-1.85,6.19-4.2,2.07-2,6.12-.73,6.94,1.61s1.37,1.18,3.07,3.39c2,2.55-2.28,5.43-4.3,5.4s-3,2-4.3,2.26A4.61,4.61,0,0,1,154.24,107.44Z"/><text class="cls-20" transform="translate(144.79 88.22) scale(0.95 1)">04</text><text class="cls-21" transform="translate(147.6 119.67) rotate(180) scale(0.91 1)">04</text><text class="cls-20" transform="translate(167.48 88.23) scale(0.95 1)">04</text><text class="cls-21" transform="translate(170.28 119.68) rotate(180) scale(0.91 1)">04</text><path class="cls-22" d="M160.62,93.53a.5.5,0,0,1,.32.55c0,.23,0,.46,0,.69a.42.42,0,0,1-.42.45.43.43,0,0,1-.42-.45c0-.23,0-.47,0-.7a.49.49,0,0,1,.34-.54Z"/><path class="cls-22" d="M158.37,102.61a1.4,1.4,0,0,1,.57,1.17,1.63,1.63,0,0,1-.67,1.12l.61.61a5,5,0,0,1,.39.41,1.26,1.26,0,0,1-.13,1.7,1.24,1.24,0,0,1-1.71,0c-.68-.65-1.34-1.33-2-2a1.35,1.35,0,0,1-.12-.17c-.12.13-.21.23-.3.33a1.26,1.26,0,0,1-1.82,0L152,104.63a1.26,1.26,0,0,1,0-1.85c.78-.78,1.57-1.55,2.33-2.35a8.66,8.66,0,0,0,2.24-4.3.31.31,0,0,0,0-.18,1.24,1.24,0,0,1,0-1.28,1.27,1.27,0,0,1,2-.23l4.76,4.77a1.27,1.27,0,0,1-.78,2.17,1.29,1.29,0,0,1-.72-.15.35.35,0,0,0-.21,0,8.72,8.72,0,0,0-3.17,1.34Zm2.6-2.13-3.66-3.66a9.67,9.67,0,0,1-2,3.85l1.83,1.83A9.67,9.67,0,0,1,161,100.48Zm-6.29.84-.08.08-2,2a.44.44,0,0,0,0,.71l1.08,1.08a.44.44,0,0,0,.72,0l1.93-1.93.09-.1Zm8.2-1.27a1.25,1.25,0,0,0-.17-.27L158,95.07l-.06-.06a.41.41,0,0,0-.47-.05.38.38,0,0,0-.21.42.62.62,0,0,0,.16.29l4.69,4.7.09.09a.41.41,0,0,0,.44,0A.46.46,0,0,0,162.88,100.05Zm-7,4.86L158,107a.39.39,0,0,0,.4.11.42.42,0,0,0,.16-.73l-2-2-.07-.05Zm1.19-1.21.09.09.5.51c.6-.5.55-.73,0-1.16l-.16.14Z"/><path class="cls-22" d="M163.49,94.82a1.22,1.22,0,0,1-.15.27c-.27.29-.56.57-.84.85a.42.42,0,0,1-.6-.59l.86-.86a.4.4,0,0,1,.47-.08A.48.48,0,0,1,163.49,94.82Z"/><path class="cls-22" d="M163.47,97.76H163a.42.42,0,1,1,0-.84h.85a.42.42,0,0,1,.42.42.42.42,0,0,1-.42.42Z"/><path class="cls-22" d="M155.12,103.14a1.21,1.21,0,0,1-.14.26c-.19.21-.39.4-.6.6a.42.42,0,1,1-.59-.6l.59-.59a.42.42,0,0,1,.48-.09A.49.49,0,0,1,155.12,103.14Z"/><path class="cls-23" d="M154.27,110.37a.43.43,0,0,1-.48.46h-.45v.62h0v-1.53h.49A.43.43,0,0,1,154.27,110.37Zm0,0a.38.38,0,0,0-.43-.41h-.45v.82h.45A.38.38,0,0,0,154.22,110.37Z"/><path class="cls-23" d="M155.6,109.91v1c0,.35-.16.55-.49.55s-.49-.2-.49-.55v-1h0v1c0,.32.14.51.45.51s.45-.18.45-.51v-1Z"/><path class="cls-23" d="M157,111a.39.39,0,0,1-.44.4h-.54v-1.53h.5c.26,0,.44.13.44.38a.34.34,0,0,1-.26.37A.35.35,0,0,1,157,111Zm-.94-1.09v.69h.48c.24,0,.37-.12.37-.35s-.15-.34-.39-.34ZM157,111c0-.21-.13-.35-.39-.35h-.5v.72h.49C156.86,111.4,157,111.25,157,111Z"/><path class="cls-23" d="M158.22,111.4v0h-.83v-1.53h0v1.49Z"/><path class="cls-23" d="M158.59,109.91v1.53h0v-1.53Z"/><path class="cls-23" d="M159,110.68c0,.41.2.75.63.75a.55.55,0,0,0,.42-.17v.06a.61.61,0,0,1-.42.15c-.45,0-.67-.36-.67-.79a.7.7,0,0,1,.67-.79.62.62,0,0,1,.42.15v.06a.56.56,0,0,0-.42-.17C159.22,109.92,159,110.26,159,110.68Z"/><path class="cls-23" d="M160.46,109.91v1.53h0v-1.53Z"/><path class="cls-23" d="M161.76,110h-.47v1.49h0V110h-.47v0h1Z"/><path class="cls-23" d="M162.94,111.4v0h-.85v-1.53h.85v0h-.81v.7h.76v0h-.76v.71Zm-.24-2-.19.28h0l.15-.28Z"/><rect class="cls-24" x="68.2" y="101.13" width="107.37" height="24.82"/><path class="cls-25" d="M80.27,115.8c1,0,6.1,4.68,8.91,4.27,5.89-.86,10.11.41,10.85,4.1.71,3.53,4.32,3.26,5.22,6.94a25.69,25.69,0,0,1,.9,5.29V115.8H81.29"/><path class="cls-25" d="M100.67,159.68c-1,0-6.1-4.68-8.91-4.27-5.89.86-10.11-.41-10.85-4.1-.71-3.53-4.32-3.26-5.22-6.94a25.69,25.69,0,0,1-.9-5.29v20.59H99.66"/><path class="cls-25" d="M87.07,141.36c-2.1-1.3-.63-1.42-2.45-3.48-1.5-1.7-2.49-3.27-1.94-4.7,1.32-3.42,3.79-1.85,6.19-4.2,2.07-2,6.12-.73,6.94,1.61s1.37,1.18,3.07,3.39c2,2.55-2.28,5.43-4.3,5.4s-3,2-4.3,2.26A4.61,4.61,0,0,1,87.07,141.36Z"/><text class="cls-20" transform="translate(77.62 122.14) scale(0.95 1)">03</text><text class="cls-21" transform="translate(80.42 153.59) rotate(180) scale(0.91 1)">02</text><text class="cls-20" transform="translate(100.31 122.15) scale(0.95 1)">03</text><text class="cls-21" transform="translate(103.11 153.6) rotate(180) scale(0.91 1)">02</text><path class="cls-22" d="M87.61,142a.56.56,0,0,1-.39-.61c0-.74,0-1.47,0-2.21,0-.4.18-.58.58-.58h6.29c.4,0,.58.18.58.58,0,.74,0,1.48,0,2.21a.56.56,0,0,1-.39.61Z"/><path class="cls-22" d="M90.95,127.3h3.18a.49.49,0,0,1,.54.53c0,1.47,0,2.94,0,4.41a4.48,4.48,0,0,1-1.23,3,3.38,3.38,0,0,1-5.14-.22,4.74,4.74,0,0,1-1-2.51,8.39,8.39,0,0,1,0-.92c0-1.26,0-2.51,0-3.77a.5.5,0,0,1,.38-.55.87.87,0,0,1,.2,0Z"/><path class="cls-22" d="M94.9,133.88c.08-.35.15-.68.23-1a.13.13,0,0,1,.07-.08,1.4,1.4,0,0,0,.88-1.31c0-.87,0-1.75,0-2.65h-.87v-1l.06,0h1.32a.48.48,0,0,1,.49.51c0,.93,0,1.87,0,2.8a2.89,2.89,0,0,1-.62,1.87A2.51,2.51,0,0,1,94.9,133.88Z"/><path class="cls-22" d="M86.68,127.87v1h-.89c0,.06,0,.1,0,.14,0,.68,0,1.36,0,2a4.12,4.12,0,0,0,.13.92,1.23,1.23,0,0,0,.74.83.2.2,0,0,1,.13.17c.06.31.14.62.22.95a2.46,2.46,0,0,1-1.68-1,3,3,0,0,1-.51-1.75c0-.92,0-1.85,0-2.77a.48.48,0,0,1,.48-.52h1.4Z"/><path class="cls-22" d="M90.95,137.88h-1c-.2,0-.29-.09-.29-.29s0-.43,0-.65.09-.23.25-.2l.68.13a3.62,3.62,0,0,0,1.36-.12c.23,0,.3,0,.3.24s0,.4,0,.6a.24.24,0,0,1-.27.27Z"/><path class="cls-23" d="M85.67,144.61c0,.4.18.72.59.72a.52.52,0,0,0,.4-.16v.06a.57.57,0,0,1-.4.14c-.43,0-.64-.34-.64-.76s.23-.76.64-.76a.58.58,0,0,1,.4.14v.06a.53.53,0,0,0-.4-.16C85.87,143.89,85.67,144.22,85.67,144.61Z"/><path class="cls-23" d="M88.16,144.61c0,.42-.23.76-.64.76s-.63-.34-.63-.76.22-.76.63-.76S88.16,144.19,88.16,144.61Zm0,0c0-.4-.2-.72-.59-.72s-.59.33-.59.72.2.72.59.72S88.11,145,88.11,144.61Z"/><path class="cls-23" d="M89.52,143.88v1.47h0l-.93-1.4v1.4h0v-1.47h0l.93,1.4v-1.4Z"/><path class="cls-23" d="M89.91,144.61c0,.4.18.72.59.72a.52.52,0,0,0,.4-.16v.06a.57.57,0,0,1-.4.14c-.43,0-.64-.34-.64-.76s.23-.76.64-.76a.58.58,0,0,1,.4.14v.06a.53.53,0,0,0-.4-.16C90.11,143.89,89.91,144.22,89.91,144.61Z"/><path class="cls-23" d="M92.4,144.61c0,.42-.23.76-.64.76s-.63-.34-.63-.76.22-.76.63-.76S92.4,144.19,92.4,144.61Zm0,0c0-.4-.2-.72-.59-.72s-.59.33-.59.72.2.72.59.72S92.36,145,92.36,144.61Z"/><path class="cls-23" d="M93.67,143.88v1c0,.34-.15.53-.46.53s-.46-.19-.46-.53v-1h0v1c0,.31.14.49.42.49s.42-.17.42-.49v-1Z"/><path class="cls-23" d="M95,145.35l-.43-.6h-.46v.6h0v-1.47h.46a.41.41,0,0,1,.45.44.4.4,0,0,1-.37.43l.43.6Zm-.47-.64a.4.4,0,1,0,0-.79h-.42v.79Z"/><path class="cls-23" d="M96.28,145a.41.41,0,0,1-.46.39.73.73,0,0,1-.47-.15v0a.73.73,0,0,0,.47.15c.24,0,.41-.13.41-.35s-.2-.28-.43-.36-.44-.15-.44-.39a.39.39,0,0,1,.44-.39.77.77,0,0,1,.4.11v0a.7.7,0,0,0-.4-.12.35.35,0,0,0-.39.35c0,.21.19.26.41.34S96.28,144.72,96.28,145Z"/><path class="cls-26" d="M114.42,116.22c1,0,6.1,4.68,8.91,4.27,5.89-.86,10.11.41,10.85,4.1.71,3.53,4.32,3.26,5.22,6.94a25.69,25.69,0,0,1,.9,5.29V116.22H115.43"/><path class="cls-26" d="M134.81,160.11c-1,0-6.1-4.68-8.91-4.27-5.89.86-10.11-.41-10.85-4.1-.71-3.53-4.32-3.26-5.22-6.94a25.69,25.69,0,0,1-.9-5.29v20.59H133.8"/><path class="cls-26" d="M121.21,141.78c-2.1-1.3-.63-1.42-2.45-3.48-1.5-1.7-2.49-3.27-1.94-4.7,1.32-3.42,3.79-1.85,6.19-4.2,2.07-2,6.12-.73,6.94,1.61s1.37,1.18,3.07,3.39c2,2.55-2.28,5.43-4.3,5.4s-3,2-4.3,2.26A4.61,4.61,0,0,1,121.21,141.78Z"/><text class="cls-20" transform="translate(111.76 122.56) scale(0.95 1)">03</text><text class="cls-21" transform="translate(114.57 154.01) rotate(180) scale(0.91 1)">03</text><text class="cls-20" transform="translate(134.45 122.58) scale(0.95 1)">03</text><text class="cls-21" transform="translate(137.26 154.03) rotate(180) scale(0.91 1)">03</text><path class="cls-22" d="M117,135a.61.61,0,0,1,.65-.36c.45,0,.9,0,1.34,0a.49.49,0,1,1,0,1c-.45,0-.9,0-1.34,0a.61.61,0,0,1-.65-.36Z"/><path class="cls-22" d="M125.76,138.73c0,.33,0,.66,0,1a.49.49,0,1,1-1,0c0-.32,0-.64,0-1a.36.36,0,0,0,0-.06h-1.85a.47.47,0,0,1-.47-.46.48.48,0,0,1,.43-.5H126a1.08,1.08,0,1,0,.08-2.15h-1.57a2.05,2.05,0,0,1-1-3.83,1.92,1.92,0,0,1,1-.27h.35c0-.1,0-.18,0-.26,0-.27,0-.54,0-.81a.49.49,0,1,1,1,0c0,.35,0,.7,0,1.07h1.86a.47.47,0,0,1,.48.47.48.48,0,0,1-.45.5h-3.12a1.08,1.08,0,1,0-.06,2.15h1.59a2,2,0,0,1,.48,4A6.26,6.26,0,0,1,125.76,138.73Z"/><path class="cls-22" d="M118.55,130.7a1.05,1.05,0,0,1,.21.08l1.31.75a.49.49,0,1,1-.48.84l-1.32-.76A.48.48,0,0,1,118,131,.5.5,0,0,1,118.55,130.7Z"/><path class="cls-22" d="M132.54,131.19a.48.48,0,0,1-.24.41l-1.36.79a.48.48,0,1,1-.48-.84l1.35-.78A.49.49,0,0,1,132.54,131.19Z"/><path class="cls-22" d="M132.32,134.61h.75a.49.49,0,1,1,0,1h-1.51a.49.49,0,1,1,0-1Z"/><path class="cls-22" d="M120.34,138.26a.47.47,0,0,1-.24.38l-1.36.79a.48.48,0,1,1-.47-.85l1.35-.78A.49.49,0,0,1,120.34,138.26Z"/><path class="cls-22" d="M130.74,137.74a1,1,0,0,1,.21.07l1.32.76a.49.49,0,1,1-.49.84l-1.32-.76a.48.48,0,0,1-.24-.55A.5.5,0,0,1,130.74,137.74Z"/><path class="cls-22" d="M129.67,141.83a.5.5,0,0,1-.32.5.46.46,0,0,1-.55-.17c-.29-.48-.57-1-.83-1.45a.48.48,0,0,1,.83-.47c.29.47.56,1,.83,1.43A.56.56,0,0,1,129.67,141.83Z"/><path class="cls-22" d="M129.68,128.32a1.67,1.67,0,0,1-.1.27l-.74,1.29a.49.49,0,1,1-.84-.49l.76-1.32a.47.47,0,0,1,.56-.22A.52.52,0,0,1,129.68,128.32Z"/><path class="cls-22" d="M121.44,142.36c-.43,0-.69-.37-.52-.68.26-.5.55-1,.84-1.46a.46.46,0,0,1,.62-.13.47.47,0,0,1,.2.62c-.27.49-.54,1-.84,1.44C121.67,142.27,121.51,142.32,121.44,142.36Z"/><path class="cls-22" d="M122.63,129.63a.5.5,0,0,1-.36.51.47.47,0,0,1-.54-.22c-.18-.29-.34-.59-.51-.88l-.27-.46a.49.49,0,0,1,.17-.68.48.48,0,0,1,.66.18c.26.45.52.9.78,1.35A.92.92,0,0,1,122.63,129.63Z"/><path class="cls-23" d="M119.85,145.43a.41.41,0,0,1-.46.39.75.75,0,0,1-.48-.15v0a.75.75,0,0,0,.48.15c.24,0,.42-.13.42-.35s-.21-.28-.44-.36-.45-.15-.45-.39.23-.39.45-.39a.79.79,0,0,1,.41.11v0a.72.72,0,0,0-.41-.12c-.2,0-.4.09-.4.35s.2.26.42.34S119.85,145.16,119.85,145.43Z"/><path class="cls-23" d="M121.15,144.75a.41.41,0,0,1-.46.44h-.43v.6h0v-1.47h.47A.41.41,0,0,1,121.15,144.75Zm0,0a.37.37,0,0,0-.41-.4h-.43v.79h.43A.37.37,0,0,0,121.11,144.75Z"/><path class="cls-23" d="M122.7,145.05a.68.68,0,0,1-.65.76c-.42,0-.65-.34-.65-.76s.23-.76.65-.76A.68.68,0,0,1,122.7,145.05Zm0,0c0-.4-.21-.72-.6-.72s-.6.33-.6.72.2.72.6.72S122.66,145.45,122.66,145.05Z"/><path class="cls-23" d="M124.09,144.32v1.47h0l-.95-1.4v1.4h0v-1.47h0l.95,1.4v-1.4Z"/><path class="cls-23" d="M125.41,145.43a.41.41,0,0,1-.46.39.75.75,0,0,1-.48-.15v0a.75.75,0,0,0,.48.15c.24,0,.42-.13.42-.35s-.21-.28-.44-.36-.45-.15-.45-.39.23-.39.45-.39a.79.79,0,0,1,.41.11v0a.72.72,0,0,0-.41-.12c-.2,0-.4.09-.4.35s.2.26.42.34S125.41,145.16,125.41,145.43Z"/><path class="cls-23" d="M127,145.05a.68.68,0,0,1-.65.76c-.42,0-.65-.34-.65-.76s.23-.76.65-.76A.68.68,0,0,1,127,145.05Zm0,0c0-.4-.21-.72-.6-.72s-.6.33-.6.72.2.72.6.72S126.94,145.45,126.94,145.05Z"/><path class="cls-23" d="M128.29,145.79l-.43-.6h-.47v.6h0v-1.47h.47a.41.41,0,0,1,.46.44.4.4,0,0,1-.38.43l.44.6Zm-.47-.64a.4.4,0,1,0,0-.79h-.43v.79Z"/><path class="cls-23" d="M128.72,144.32v1.47h0v-1.47Z"/><path class="cls-23" d="M130.18,144.32v1.47h0l-.95-1.4v1.4h0v-1.47h0l.95,1.4v-1.4Z"/><path class="cls-23" d="M131.64,145v.66a.71.71,0,0,1-.45.16c-.44,0-.65-.31-.65-.76a.68.68,0,0,1,.65-.76.61.61,0,0,1,.41.14v.06a.56.56,0,0,0-.41-.16c-.4,0-.6.33-.6.72s.19.72.6.72a.66.66,0,0,0,.41-.14V145Z"/><path class="cls-27" d="M147.44,116c1,0,6.1,4.68,8.91,4.27,5.89-.86,10.11.41,10.85,4.1.71,3.53,4.32,3.26,5.22,6.94a25.69,25.69,0,0,1,.9,5.29V116H148.45"/><path class="cls-27" d="M167.83,159.92c-1,0-6.1-4.68-8.91-4.27-5.89.86-10.11-.41-10.85-4.1-.71-3.53-4.32-3.26-5.22-6.94a25.69,25.69,0,0,1-.9-5.29v20.59h24.86"/><path class="cls-27" d="M154.23,141.6c-2.1-1.3-.63-1.42-2.45-3.48-1.5-1.7-2.49-3.27-1.94-4.7,1.32-3.42,3.79-1.85,6.19-4.2,2.07-2,6.12-.73,6.94,1.61s1.37,1.18,3.07,3.39c2,2.55-2.28,5.43-4.3,5.4s-3,2-4.3,2.26A4.61,4.61,0,0,1,154.23,141.6Z"/><text class="cls-20" transform="translate(144.78 122.38) scale(0.95 1)">03</text><text class="cls-21" transform="translate(147.59 153.83) rotate(180) scale(0.91 1)">04</text><text class="cls-20" transform="translate(167.47 122.39) scale(0.95 1)">03</text><text class="cls-21" transform="translate(170.27 153.84) rotate(180) scale(0.91 1)">04</text><path class="cls-22" d="M160.61,127.69a.5.5,0,0,1,.32.55c0,.23,0,.46,0,.69a.42.42,0,0,1-.42.45.43.43,0,0,1-.42-.45c0-.23,0-.47,0-.7a.49.49,0,0,1,.34-.54Z"/><path class="cls-22" d="M158.36,136.77a1.4,1.4,0,0,1,.57,1.17,1.63,1.63,0,0,1-.67,1.12l.61.61a5,5,0,0,1,.39.41,1.26,1.26,0,0,1-.13,1.7,1.24,1.24,0,0,1-1.71,0c-.68-.65-1.34-1.33-2-2a1.35,1.35,0,0,1-.12-.17c-.12.13-.21.23-.3.33a1.26,1.26,0,0,1-1.82,0L152,138.79a1.26,1.26,0,0,1,0-1.85c.78-.78,1.57-1.55,2.33-2.35a8.66,8.66,0,0,0,2.24-4.3.31.31,0,0,0,0-.18,1.24,1.24,0,0,1,0-1.28,1.27,1.27,0,0,1,2-.23l4.76,4.77a1.27,1.27,0,0,1-.78,2.17,1.29,1.29,0,0,1-.72-.15.35.35,0,0,0-.21,0,8.72,8.72,0,0,0-3.17,1.34Zm2.6-2.13L157.3,131a9.67,9.67,0,0,1-2,3.85l1.83,1.83A9.67,9.67,0,0,1,161,134.64Zm-6.29.84-.08.08-2,2a.44.44,0,0,0,0,.71l1.08,1.08a.44.44,0,0,0,.72,0l1.93-1.93.09-.1Zm8.2-1.27a1.25,1.25,0,0,0-.17-.27l-4.7-4.71-.06-.06a.41.41,0,0,0-.47-.05.38.38,0,0,0-.21.42.62.62,0,0,0,.16.29l4.69,4.7.09.09a.41.41,0,0,0,.44,0A.46.46,0,0,0,162.87,134.21Zm-7,4.86,2.08,2.08a.39.39,0,0,0,.4.11.42.42,0,0,0,.16-.73l-2-2-.07-.05Zm1.19-1.21.09.09.5.51c.6-.5.55-.73,0-1.16l-.16.14Z"/><path class="cls-22" d="M163.48,129a1.22,1.22,0,0,1-.15.27c-.27.29-.56.57-.84.85a.42.42,0,0,1-.6-.59l.86-.86a.4.4,0,0,1,.47-.08A.48.48,0,0,1,163.48,129Z"/><path class="cls-22" d="M163.46,131.92H163a.42.42,0,1,1,0-.84h.85a.42.42,0,0,1,.42.42.42.42,0,0,1-.42.42Z"/><path class="cls-22" d="M155.11,137.3a1.21,1.21,0,0,1-.14.26c-.19.21-.39.4-.6.6a.42.42,0,1,1-.59-.6l.59-.59a.42.42,0,0,1,.48-.09A.49.49,0,0,1,155.11,137.3Z"/><path class="cls-23" d="M154.26,144.53a.43.43,0,0,1-.48.46h-.45v.62h0v-1.53h.49A.43.43,0,0,1,154.26,144.53Zm0,0a.38.38,0,0,0-.43-.41h-.45v.82h.45A.38.38,0,0,0,154.21,144.53Z"/><path class="cls-23" d="M155.59,144.07v1c0,.35-.16.55-.49.55s-.49-.2-.49-.55v-1h0v1c0,.32.14.51.45.51s.45-.18.45-.51v-1Z"/><path class="cls-23" d="M157,145.2a.39.39,0,0,1-.44.4H156v-1.53h.5c.26,0,.44.13.44.38a.34.34,0,0,1-.26.37A.35.35,0,0,1,157,145.2Zm-.94-1.09v.69h.48c.24,0,.37-.12.37-.35s-.15-.34-.39-.34Zm.89,1.09c0-.21-.13-.35-.39-.35h-.5v.72h.49C156.85,145.56,157,145.41,157,145.2Z"/><path class="cls-23" d="M158.21,145.56v0h-.83v-1.53h0v1.49Z"/><path class="cls-23" d="M158.58,144.07v1.53h0v-1.53Z"/><path class="cls-23" d="M159,144.84c0,.41.2.75.63.75a.55.55,0,0,0,.42-.17v.06a.61.61,0,0,1-.42.15c-.45,0-.67-.36-.67-.79a.7.7,0,0,1,.67-.79.62.62,0,0,1,.42.15v.06a.56.56,0,0,0-.42-.17C159.21,144.08,159,144.42,159,144.84Z"/><path class="cls-23" d="M160.45,144.07v1.53h0v-1.53Z"/><path class="cls-23" d="M161.75,144.11h-.47v1.49h0v-1.49h-.47v0h1Z"/><path class="cls-23" d="M162.93,145.56v0h-.85v-1.53h.85v0h-.81v.7h.76v0h-.76v.71Zm-.24-2-.19.28h0l.15-.28Z"/><rect class="cls-24" x="68.19" y="135.29" width="107.37" height="24.82"/><path class="cls-28" d="M80.45,149.69c1,0,6.1,4.68,8.91,4.27,5.89-.86,10.11.41,10.85,4.1.71,3.53,4.32,3.26,5.22,6.94a25.69,25.69,0,0,1,.9,5.29V149.69H81.47"/><path class="cls-28" d="M100.85,193.58c-1,0-6.1-4.68-8.91-4.27-5.89.86-10.11-.41-10.85-4.1-.71-3.53-4.32-3.26-5.22-6.94A25.69,25.69,0,0,1,75,173v20.59H99.84"/><path class="cls-28" d="M87.25,175.26c-2.1-1.3-.63-1.42-2.45-3.48-1.5-1.7-2.49-3.27-1.94-4.7,1.32-3.42,3.79-1.85,6.19-4.2,2.07-2,6.12-.73,6.94,1.61s1.37,1.18,3.07,3.39c2,2.55-2.28,5.43-4.3,5.4s-3,2-4.3,2.26A4.61,4.61,0,0,1,87.25,175.26Z"/><text class="cls-20" transform="translate(77.8 156.03) scale(0.95 1)">03</text><text class="cls-21" transform="translate(80.6 187.48) rotate(180) scale(0.91 1)">02</text><text class="cls-20" transform="translate(100.49 156.05) scale(0.95 1)">03</text><text class="cls-21" transform="translate(103.29 187.5) rotate(180) scale(0.91 1)">02</text><path class="cls-22" d="M87.79,175.91a.56.56,0,0,1-.39-.61c0-.74,0-1.47,0-2.21,0-.4.18-.58.58-.58h6.29c.4,0,.58.18.58.58,0,.74,0,1.48,0,2.21a.56.56,0,0,1-.39.61Z"/><path class="cls-22" d="M91.13,161.19h3.18a.49.49,0,0,1,.54.53c0,1.47,0,2.94,0,4.41a4.48,4.48,0,0,1-1.23,3,3.38,3.38,0,0,1-5.14-.22,4.74,4.74,0,0,1-1-2.51,8.39,8.39,0,0,1,0-.92c0-1.26,0-2.51,0-3.77a.5.5,0,0,1,.38-.55.87.87,0,0,1,.2,0Z"/><path class="cls-22" d="M95.08,167.77c.08-.35.15-.68.23-1a.13.13,0,0,1,.07-.08,1.4,1.4,0,0,0,.88-1.31c0-.87,0-1.75,0-2.65H95.4v-1l.06,0h1.32a.48.48,0,0,1,.49.51c0,.93,0,1.87,0,2.8a2.89,2.89,0,0,1-.62,1.87A2.51,2.51,0,0,1,95.08,167.77Z"/><path class="cls-22" d="M86.86,161.76v1H86c0,.06,0,.1,0,.14,0,.68,0,1.36,0,2a4.12,4.12,0,0,0,.13.92,1.23,1.23,0,0,0,.74.83.2.2,0,0,1,.13.17c.06.31.14.62.22.95a2.46,2.46,0,0,1-1.68-1A3,3,0,0,1,85,165c0-.92,0-1.85,0-2.77a.48.48,0,0,1,.48-.52h1.4Z"/><path class="cls-22" d="M91.13,171.77h-1c-.2,0-.29-.09-.29-.29s0-.43,0-.65.09-.23.25-.2l.68.13a3.62,3.62,0,0,0,1.36-.12c.23,0,.3,0,.3.24s0,.4,0,.6a.24.24,0,0,1-.27.27Z"/><path class="cls-23" d="M85.85,178.51c0,.4.18.72.59.72a.52.52,0,0,0,.4-.16v.06a.57.57,0,0,1-.4.14c-.43,0-.64-.34-.64-.76s.23-.76.64-.76a.58.58,0,0,1,.4.14v.06a.53.53,0,0,0-.4-.16C86,177.79,85.85,178.11,85.85,178.51Z"/><path class="cls-23" d="M88.34,178.51c0,.42-.23.76-.64.76s-.63-.34-.63-.76.22-.76.63-.76S88.34,178.09,88.34,178.51Zm0,0c0-.4-.2-.72-.59-.72s-.59.33-.59.72.2.72.59.72S88.29,178.91,88.29,178.51Z"/><path class="cls-23" d="M89.7,177.77v1.47h0l-.93-1.4v1.4h0v-1.47h0l.93,1.4v-1.4Z"/><path class="cls-23" d="M90.09,178.51c0,.4.18.72.59.72a.52.52,0,0,0,.4-.16v.06a.57.57,0,0,1-.4.14c-.43,0-.64-.34-.64-.76s.23-.76.64-.76a.58.58,0,0,1,.4.14v.06a.53.53,0,0,0-.4-.16C90.29,177.79,90.09,178.11,90.09,178.51Z"/><path class="cls-23" d="M92.58,178.51c0,.42-.23.76-.64.76s-.63-.34-.63-.76.22-.76.63-.76S92.58,178.09,92.58,178.51Zm0,0c0-.4-.2-.72-.59-.72s-.59.33-.59.72.2.72.59.72S92.54,178.91,92.54,178.51Z"/><path class="cls-23" d="M93.85,177.77v1c0,.34-.15.53-.46.53s-.46-.19-.46-.53v-1h0v1c0,.31.14.49.42.49s.42-.17.42-.49v-1Z"/><path class="cls-23" d="M95.21,179.25l-.43-.6h-.46v.6h0v-1.47h.46a.41.41,0,0,1,.45.44.4.4,0,0,1-.37.43l.43.6Zm-.47-.64a.4.4,0,1,0,0-.79h-.42v.79Z"/><path class="cls-23" d="M96.46,178.88a.41.41,0,0,1-.46.39.73.73,0,0,1-.47-.15v0a.73.73,0,0,0,.47.15c.24,0,.41-.13.41-.35s-.2-.28-.43-.36-.44-.15-.44-.39a.39.39,0,0,1,.44-.39.77.77,0,0,1,.4.11v0a.7.7,0,0,0-.4-.12.35.35,0,0,0-.39.35c0,.21.19.26.41.34S96.46,178.62,96.46,178.88Z"/><path class="cls-28" d="M114.6,150.12c1,0,6.1,4.68,8.91,4.27,5.89-.86,10.11.41,10.85,4.1.71,3.53,4.32,3.26,5.22,6.94a25.69,25.69,0,0,1,.9,5.29V150.12H115.61"/><path class="cls-28" d="M135,194c-1,0-6.1-4.68-8.91-4.27-5.89.86-10.11-.41-10.85-4.1-.71-3.53-4.32-3.26-5.22-6.94a25.69,25.69,0,0,1-.9-5.29V194H134"/><path class="cls-28" d="M121.39,175.68c-2.1-1.3-.63-1.42-2.45-3.48-1.5-1.7-2.49-3.27-1.94-4.7,1.32-3.42,3.79-1.85,6.19-4.2,2.07-2,6.12-.73,6.94,1.61s1.37,1.18,3.07,3.39c2,2.55-2.28,5.43-4.3,5.4s-3,2-4.3,2.26A4.61,4.61,0,0,1,121.39,175.68Z"/><text class="cls-20" transform="translate(111.95 156.46) scale(0.95 1)">03</text><text class="cls-21" transform="translate(114.75 187.91) rotate(180) scale(0.91 1)">03</text><text class="cls-20" transform="translate(134.63 156.47) scale(0.95 1)">03</text><text class="cls-21" transform="translate(137.44 187.92) rotate(180) scale(0.91 1)">03</text><path class="cls-23" d="M120,179.32a.41.41,0,0,1-.46.39.75.75,0,0,1-.48-.15v0a.75.75,0,0,0,.48.15c.24,0,.42-.13.42-.35s-.21-.28-.44-.36-.45-.15-.45-.39.23-.39.45-.39a.79.79,0,0,1,.41.11v0a.72.72,0,0,0-.41-.12c-.2,0-.4.09-.4.35s.2.26.42.34S120,179.05,120,179.32Z"/><path class="cls-23" d="M121.33,178.65a.41.41,0,0,1-.46.44h-.43v.6h0v-1.47h.47A.41.41,0,0,1,121.33,178.65Zm0,0a.37.37,0,0,0-.41-.4h-.43V179h.43A.37.37,0,0,0,121.29,178.65Z"/><path class="cls-23" d="M122.88,178.95a.68.68,0,0,1-.65.76c-.42,0-.65-.34-.65-.76s.23-.76.65-.76A.68.68,0,0,1,122.88,178.95Zm0,0c0-.4-.21-.72-.6-.72s-.6.33-.6.72.2.72.6.72S122.84,179.35,122.84,178.95Z"/><path class="cls-23" d="M124.27,178.21v1.47h0l-.95-1.4v1.4h0v-1.47h0l.95,1.4v-1.4Z"/><path class="cls-23" d="M125.59,179.32a.41.41,0,0,1-.46.39.75.75,0,0,1-.48-.15v0a.75.75,0,0,0,.48.15c.24,0,.42-.13.42-.35s-.21-.28-.44-.36-.45-.15-.45-.39.23-.39.45-.39a.79.79,0,0,1,.41.11v0a.72.72,0,0,0-.41-.12c-.2,0-.4.09-.4.35s.2.26.42.34S125.59,179.05,125.59,179.32Z"/><path class="cls-23" d="M127.17,178.95a.68.68,0,0,1-.65.76c-.42,0-.65-.34-.65-.76s.23-.76.65-.76A.68.68,0,0,1,127.17,178.95Zm0,0c0-.4-.21-.72-.6-.72s-.6.33-.6.72.2.72.6.72S127.12,179.35,127.12,178.95Z"/><path class="cls-23" d="M128.47,179.68l-.43-.6h-.47v.6h0v-1.47H128a.41.41,0,0,1,.46.44.4.4,0,0,1-.38.43l.44.6ZM128,179a.4.4,0,1,0,0-.79h-.43V179Z"/><path class="cls-23" d="M128.9,178.21v1.47h0v-1.47Z"/><path class="cls-23" d="M130.36,178.21v1.47h0l-.95-1.4v1.4h0v-1.47h0l.95,1.4v-1.4Z"/><path class="cls-23" d="M131.82,178.9v.66a.71.71,0,0,1-.45.16c-.44,0-.65-.31-.65-.76a.68.68,0,0,1,.65-.76.61.61,0,0,1,.41.14v.06a.56.56,0,0,0-.41-.16c-.4,0-.6.33-.6.72s.19.72.6.72a.66.66,0,0,0,.41-.14v-.64Z"/><path class="cls-28" d="M147.62,149.93c1,0,6.1,4.68,8.91,4.27,5.89-.86,10.11.41,10.85,4.1.71,3.53,4.32,3.26,5.22,6.94a25.69,25.69,0,0,1,.9,5.29V149.93H148.63"/><path class="cls-28" d="M168,193.81c-1,0-6.1-4.68-8.91-4.27-5.89.86-10.11-.41-10.85-4.1-.71-3.53-4.32-3.26-5.22-6.94a25.69,25.69,0,0,1-.9-5.29v20.59H167"/><path class="cls-28" d="M154.41,175.49c-2.1-1.3-.63-1.42-2.45-3.48-1.5-1.7-2.49-3.27-1.94-4.7,1.32-3.42,3.79-1.85,6.19-4.2,2.07-2,6.12-.73,6.94,1.61s1.37,1.18,3.07,3.39c2,2.55-2.28,5.43-4.3,5.4s-3,2-4.3,2.26A4.61,4.61,0,0,1,154.41,175.49Z"/><text class="cls-20" transform="translate(144.96 156.27) scale(0.95 1)">03</text><text class="cls-21" transform="translate(147.77 187.72) rotate(180) scale(0.91 1)">04</text><text class="cls-20" transform="translate(167.65 156.29) scale(0.95 1)">03</text><text class="cls-21" transform="translate(170.46 187.74) rotate(180) scale(0.91 1)">04</text><path class="cls-22" d="M160.79,161.58a.5.5,0,0,1,.32.55c0,.23,0,.46,0,.69a.42.42,0,0,1-.42.45.43.43,0,0,1-.42-.45c0-.23,0-.47,0-.7a.49.49,0,0,1,.34-.54Z"/><path class="cls-22" d="M158.54,170.67a1.4,1.4,0,0,1,.57,1.17,1.63,1.63,0,0,1-.67,1.12l.61.61a5,5,0,0,1,.39.41,1.26,1.26,0,0,1-.13,1.7,1.24,1.24,0,0,1-1.71,0c-.68-.65-1.34-1.33-2-2a1.35,1.35,0,0,1-.12-.17c-.12.13-.21.23-.3.33a1.26,1.26,0,0,1-1.82,0l-1.16-1.16a1.26,1.26,0,0,1,0-1.85c.78-.78,1.57-1.55,2.33-2.35a8.66,8.66,0,0,0,2.24-4.3.31.31,0,0,0,0-.18,1.24,1.24,0,0,1,0-1.28,1.27,1.27,0,0,1,2-.23l4.76,4.77a1.27,1.27,0,0,1-.78,2.17,1.29,1.29,0,0,1-.72-.15.35.35,0,0,0-.21,0,8.72,8.72,0,0,0-3.17,1.34Zm2.6-2.13-3.66-3.66a9.67,9.67,0,0,1-2,3.85l1.83,1.83A9.67,9.67,0,0,1,161.14,168.53Zm-6.29.84-.08.08-2,2a.44.44,0,0,0,0,.71l1.08,1.08a.44.44,0,0,0,.72,0l1.93-1.93.09-.1Zm8.2-1.27a1.25,1.25,0,0,0-.17-.27l-4.7-4.71-.06-.06a.41.41,0,0,0-.47-.05.38.38,0,0,0-.21.42.62.62,0,0,0,.16.29l4.69,4.7.09.09a.41.41,0,0,0,.44,0A.46.46,0,0,0,163.05,168.11Zm-7,4.86,2.08,2.08a.39.39,0,0,0,.4.11.42.42,0,0,0,.16-.73l-2-2-.07-.05Zm1.19-1.21.09.09.5.51c.6-.5.55-.73,0-1.16l-.16.14Z"/><path class="cls-22" d="M163.66,162.87a1.22,1.22,0,0,1-.15.27c-.27.29-.56.57-.84.85a.42.42,0,0,1-.6-.59l.86-.86a.4.4,0,0,1,.47-.08A.48.48,0,0,1,163.66,162.87Z"/><path class="cls-22" d="M163.64,165.81h-.42a.42.42,0,1,1,0-.84h.85a.42.42,0,0,1,.42.42.42.42,0,0,1-.42.42Z"/><path class="cls-22" d="M155.29,171.19a1.21,1.21,0,0,1-.14.26c-.19.21-.39.4-.6.6a.42.42,0,1,1-.59-.6l.59-.59a.42.42,0,0,1,.48-.09A.49.49,0,0,1,155.29,171.19Z"/><path class="cls-23" d="M154.44,178.42a.43.43,0,0,1-.48.46h-.45v.62h0V178H154A.43.43,0,0,1,154.44,178.42Zm0,0A.38.38,0,0,0,154,178h-.45v.82H154A.38.38,0,0,0,154.39,178.42Z"/><path class="cls-23" d="M155.77,178v1c0,.35-.16.55-.49.55s-.49-.2-.49-.55v-1h0v1c0,.32.14.51.45.51s.45-.18.45-.51v-1Z"/><path class="cls-23" d="M157.2,179.09a.39.39,0,0,1-.44.4h-.54V178h.5c.26,0,.44.13.44.38a.34.34,0,0,1-.26.37A.35.35,0,0,1,157.2,179.09Zm-.94-1.09v.69h.48c.24,0,.37-.12.37-.35s-.15-.34-.39-.34Zm.89,1.09c0-.21-.13-.35-.39-.35h-.5v.72h.49C157,179.45,157.15,179.31,157.15,179.09Z"/><path class="cls-23" d="M158.39,179.45v0h-.83V178h0v1.49Z"/><path class="cls-23" d="M158.76,178v1.53h0V178Z"/><path class="cls-23" d="M159.18,178.73c0,.41.2.75.63.75a.55.55,0,0,0,.42-.17v.06a.61.61,0,0,1-.42.15c-.45,0-.67-.36-.67-.79a.7.7,0,0,1,.67-.79.62.62,0,0,1,.42.15v.06a.56.56,0,0,0-.42-.17C159.39,178,159.18,178.32,159.18,178.73Z"/><path class="cls-23" d="M160.63,178v1.53h0V178Z"/><path class="cls-23" d="M161.93,178h-.47v1.49h0V178H161v0h1Z"/><path class="cls-23" d="M163.11,179.45v0h-.85V178h.85v0h-.81v.7h.76v0h-.76v.71Zm-.24-2-.19.28h0l.15-.28Z"/><path class="cls-29" d="M117.5,165c.14-.2.32-.24.43-.09a.43.43,0,0,1,.07.25q0,2.18,0,4.36,0,2.68,0,5.37a.77.77,0,0,0,.86.86h6c0-.19,0-.37,0-.54s-.06-.08-.11-.1a5.33,5.33,0,0,0-1.93-.37,16.45,16.45,0,0,0-3.91.48c-.27.07-.39,0-.39-.31q0-5.5,0-11c0-.23.05-.3.27-.36a16.5,16.5,0,0,1,4.08-.49,5.86,5.86,0,0,1,2.25.48.37.37,0,0,1,.26.4q0,4.69,0,9.39v.21l.82-.44a25.15,25.15,0,0,1,3.39-1.54.14.14,0,0,0,.11-.16q0-4.8,0-9.61s0-.07,0-.12l-.68.29a27.83,27.83,0,0,0-2.85,1.5l-.13.08a.26.26,0,0,1-.36-.09.25.25,0,0,1,.1-.35l.68-.4a24.69,24.69,0,0,1,3.32-1.61c.28-.11.43,0,.43.29q0,5.12,0,10.23c0,.21,0,.28-.23.35a26.21,26.21,0,0,0-4.57,2.16c-.37.21-.54.07-.54-.32,0-3.21,0-6.42,0-9.62a.23.23,0,0,0-.18-.26,5.75,5.75,0,0,0-2.07-.34,18,18,0,0,0-3.42.41c-.14,0-.18.08-.18.22q0,5.14,0,10.28v.18l.67-.13a16.54,16.54,0,0,1,3.24-.29,5.75,5.75,0,0,1,2.07.43.35.35,0,0,0,.27,0,8,8,0,0,1,3.23-.42,15.67,15.67,0,0,1,2.63.38h.08v-.17q0-5.14,0-10.28c0-.14,0-.2-.17-.2a.6.6,0,0,1-.19,0,.25.25,0,0,1-.17-.28.24.24,0,0,1,.25-.2,3.63,3.63,0,0,1,.61.12c.07,0,.12.13.16.21s0,.1,0,.15q0,5.46,0,10.92s0,.08,0,.12a.25.25,0,0,1-.34.25,13.09,13.09,0,0,0-2.19-.41,8.29,8.29,0,0,0-3.64.29c-.13,0-.2.1-.18.25a3,3,0,0,1,0,.34.42.42,0,0,0,0,.06h6a.77.77,0,0,0,.84-.84q0-4.85,0-9.7c0-.25.08-.38.26-.37s.25.12.25.38q0,4.82,0,9.64a1.28,1.28,0,0,1-1.07,1.39H118.6l-.11,0a1.27,1.27,0,0,1-.93-.86l-.06-.18Z"/><path class="cls-29" d="M122.29,171.61l1.31.17a.25.25,0,0,1,.24.31c0,.15-.17.22-.35.18a7,7,0,0,0-2.67,0l-.44.09a.25.25,0,0,1-.33-.19.25.25,0,0,1,.21-.3A11.32,11.32,0,0,1,122.29,171.61Z"/><path class="cls-29" d="M123.84,170.51a.25.25,0,0,1-.3.25,7.36,7.36,0,0,0-3.15.11c-.18,0-.31,0-.34-.18s0-.26.23-.31a7.75,7.75,0,0,1,3.25-.14C123.76,170.28,123.84,170.36,123.84,170.51Z"/><path class="cls-29" d="M122.17,169.07l-1.71.26-.12,0a.24.24,0,0,1-.29-.19.24.24,0,0,1,.18-.3c.26-.06.53-.12.8-.16a7.1,7.1,0,0,1,2.51,0l.1,0a.25.25,0,1,1-.11.49c-.25,0-.51-.08-.76-.1s-.4,0-.59,0Z"/><path class="cls-29" d="M123.57,166.17c-.31,0-.62-.09-.93-.1a8,8,0,0,0-2.24.22c-.11,0-.23,0-.3-.07a.32.32,0,0,1,0-.24.3.3,0,0,1,.19-.17,7.68,7.68,0,0,1,3.33-.13l.09,0a.25.25,0,0,1,.18.29A.22.22,0,0,1,123.57,166.17Z"/><path class="cls-29" d="M123.63,167.71l-.73-.1a7.84,7.84,0,0,0-2.48.2l-.1,0a.24.24,0,0,1-.28-.2.24.24,0,0,1,.18-.28c.25-.06.5-.11.76-.16a7.32,7.32,0,0,1,2.44,0l.25.06a.24.24,0,0,1,.17.29A.23.23,0,0,1,123.63,167.71Z"/><path class="cls-29" d="M128.92,167.09a.26.26,0,0,1-.18.23l-2.21,1a.26.26,0,0,1-.37-.09.24.24,0,0,1,.12-.35l2.25-1A.26.26,0,0,1,128.92,167.09Z"/><path class="cls-29" d="M128.65,169.87a.25.25,0,0,1,.1.49c-.3.12-.6.23-.89.36l-1.3.61a.41.41,0,0,1-.29,0,.25.25,0,0,1-.12-.21.37.37,0,0,1,.17-.23q.65-.33,1.31-.63c.29-.13.59-.24.89-.36Z"/><path class="cls-29" d="M128.92,165.61s-.1.14-.18.18l-2.19,1c-.17.08-.31,0-.39-.09a.25.25,0,0,1,.15-.36l2.18-1,.14,0C128.78,165.28,128.92,165.4,128.92,165.61Z"/><path class="cls-29" d="M128.65,168.35a.25.25,0,0,1,.27.2.25.25,0,0,1-.17.29c-.23.09-.47.17-.7.28l-1.46.68a.5.5,0,0,1-.19.06.25.25,0,0,1-.11-.47l.55-.27,1.63-.71Z"/><path class="cls-29" d="M126.41,165.3a.26.26,0,0,1-.27-.19.24.24,0,0,1,.14-.29c.27-.14.54-.27.81-.4l1.36-.58.11,0a.25.25,0,1,1,.16.48c-.27.11-.55.21-.81.33l-1.34.63Z"/><rect class="cls-24" x="68.37" y="169.18" width="107.37" height="24.82"/><path class="cls-27" d="M80.34,183.63c1,0,6.1,4.68,8.91,4.27,5.89-.86,10.11.41,10.85,4.1.71,3.53,4.32,3.26,5.22,6.94a25.69,25.69,0,0,1,.9,5.29V183.63H81.35"/><path class="cls-27" d="M100.74,227.52c-1,0-6.1-4.68-8.91-4.27-5.89.86-10.11-.41-10.85-4.1-.71-3.53-4.32-3.26-5.22-6.94a25.69,25.69,0,0,1-.9-5.29v20.59H99.72"/><path class="cls-27" d="M87.13,209.2c-2.1-1.3-.63-1.42-2.45-3.48-1.5-1.7-2.49-3.27-1.94-4.7,1.32-3.42,3.79-1.85,6.19-4.2,2.07-2,6.12-.73,6.94,1.61s1.37,1.18,3.07,3.39c2,2.55-2.28,5.43-4.3,5.4s-3,2-4.3,2.26A4.61,4.61,0,0,1,87.13,209.2Z"/><text class="cls-20" transform="translate(77.69 189.97) scale(0.95 1)">03</text><text class="cls-21" transform="translate(80.49 221.42) rotate(180) scale(0.91 1)">02</text><text class="cls-20" transform="translate(100.37 189.99) scale(0.95 1)">03</text><text class="cls-21" transform="translate(103.18 221.44) rotate(180) scale(0.91 1)">02</text><path class="cls-22" d="M87.68,209.85a.56.56,0,0,1-.39-.61c0-.74,0-1.47,0-2.21,0-.4.18-.58.58-.58h6.29c.4,0,.58.18.58.58,0,.74,0,1.48,0,2.21a.56.56,0,0,1-.39.61Z"/><path class="cls-22" d="M91,195.13h3.18a.49.49,0,0,1,.54.53c0,1.47,0,2.94,0,4.41a4.48,4.48,0,0,1-1.23,3,3.38,3.38,0,0,1-5.14-.22,4.74,4.74,0,0,1-1-2.51,8.39,8.39,0,0,1,0-.92c0-1.26,0-2.51,0-3.77a.5.5,0,0,1,.38-.55.87.87,0,0,1,.2,0Z"/><path class="cls-22" d="M95,201.71c.08-.35.15-.68.23-1a.13.13,0,0,1,.07-.08,1.4,1.4,0,0,0,.88-1.31c0-.87,0-1.75,0-2.65h-.87v-1l.06,0h1.32a.48.48,0,0,1,.49.51c0,.93,0,1.87,0,2.8a2.89,2.89,0,0,1-.62,1.87A2.51,2.51,0,0,1,95,201.71Z"/><path class="cls-22" d="M86.75,195.7v1h-.89c0,.06,0,.1,0,.14,0,.68,0,1.36,0,2a4.12,4.12,0,0,0,.13.92,1.23,1.23,0,0,0,.74.83.2.2,0,0,1,.13.17c.06.31.14.62.22.95a2.46,2.46,0,0,1-1.68-1,3,3,0,0,1-.51-1.75c0-.92,0-1.85,0-2.77a.48.48,0,0,1,.48-.52h1.4Z"/><path class="cls-22" d="M91,205.71H90c-.2,0-.29-.09-.29-.29s0-.43,0-.65.09-.23.25-.2l.68.13a3.62,3.62,0,0,0,1.36-.12c.23,0,.3,0,.3.24s0,.4,0,.6a.24.24,0,0,1-.27.27Z"/><path class="cls-23" d="M85.73,212.45c0,.4.18.72.59.72a.52.52,0,0,0,.4-.16v.06a.57.57,0,0,1-.4.14c-.43,0-.64-.34-.64-.76s.23-.76.64-.76a.58.58,0,0,1,.4.14v.06a.53.53,0,0,0-.4-.16C85.94,211.73,85.73,212.05,85.73,212.45Z"/><path class="cls-23" d="M88.22,212.45c0,.42-.23.76-.64.76s-.63-.34-.63-.76.22-.76.63-.76S88.22,212,88.22,212.45Zm0,0c0-.4-.2-.72-.59-.72s-.59.33-.59.72.2.72.59.72S88.18,212.85,88.18,212.45Z"/><path class="cls-23" d="M89.58,211.71v1.47h0l-.93-1.4v1.4h0v-1.47h0l.93,1.4v-1.4Z"/><path class="cls-23" d="M90,212.45c0,.4.18.72.59.72A.52.52,0,0,0,91,213v.06a.57.57,0,0,1-.4.14c-.43,0-.64-.34-.64-.76s.23-.76.64-.76a.58.58,0,0,1,.4.14v.06a.53.53,0,0,0-.4-.16C90.18,211.73,90,212.05,90,212.45Z"/><path class="cls-23" d="M92.47,212.45c0,.42-.23.76-.64.76s-.63-.34-.63-.76.22-.76.63-.76S92.47,212,92.47,212.45Zm0,0c0-.4-.2-.72-.59-.72s-.59.33-.59.72.2.72.59.72S92.42,212.85,92.42,212.45Z"/><path class="cls-23" d="M93.74,211.71v1c0,.34-.15.53-.46.53s-.46-.19-.46-.53v-1h0v1c0,.31.14.49.42.49s.42-.17.42-.49v-1Z"/><path class="cls-23" d="M95.1,213.19l-.43-.6h-.46v.6h0v-1.47h.46a.41.41,0,0,1,.45.44.4.4,0,0,1-.37.43l.43.6Zm-.47-.64a.4.4,0,1,0,0-.79h-.42v.79Z"/><path class="cls-23" d="M96.35,212.83a.41.41,0,0,1-.46.39.73.73,0,0,1-.47-.15v0a.73.73,0,0,0,.47.15c.24,0,.41-.13.41-.35s-.2-.28-.43-.36-.44-.15-.44-.39a.39.39,0,0,1,.44-.39.77.77,0,0,1,.4.11v0a.7.7,0,0,0-.4-.12.35.35,0,0,0-.39.35c0,.21.19.26.41.34S96.35,212.56,96.35,212.83Z"/><path class="cls-19" d="M114.48,184.06c1,0,6.1,4.68,8.91,4.27,5.89-.86,10.11.41,10.85,4.1.71,3.53,4.32,3.26,5.22,6.94a25.69,25.69,0,0,1,.9,5.29V184.06H115.5"/><path class="cls-19" d="M134.88,227.94c-1,0-6.1-4.68-8.91-4.27-5.89.86-10.11-.41-10.85-4.1-.71-3.53-4.32-3.26-5.22-6.94a25.69,25.69,0,0,1-.9-5.29v20.59h24.86"/><path class="cls-19" d="M121.28,209.62c-2.1-1.3-.63-1.42-2.45-3.48-1.5-1.7-2.49-3.27-1.94-4.7,1.32-3.42,3.79-1.85,6.19-4.2,2.07-2,6.12-.73,6.94,1.61s1.37,1.18,3.07,3.39c2,2.55-2.28,5.43-4.3,5.4s-3,2-4.3,2.26A4.61,4.61,0,0,1,121.28,209.62Z"/><text class="cls-20" transform="translate(111.83 190.4) scale(0.95 1)">04</text><text class="cls-21" transform="translate(114.64 221.85) rotate(180) scale(0.91 1)">03</text><text class="cls-20" transform="translate(134.52 190.41) scale(0.95 1)">04</text><text class="cls-21" transform="translate(137.32 221.86) rotate(180) scale(0.91 1)">03</text><path class="cls-23" d="M119.92,213.26a.41.41,0,0,1-.46.39.75.75,0,0,1-.48-.15v0a.75.75,0,0,0,.48.15c.24,0,.42-.13.42-.35s-.21-.28-.44-.36-.45-.15-.45-.39.23-.39.45-.39a.79.79,0,0,1,.41.11v0a.72.72,0,0,0-.41-.12c-.2,0-.4.09-.4.35s.2.26.42.34S119.92,213,119.92,213.26Z"/><path class="cls-23" d="M121.22,212.59a.41.41,0,0,1-.46.44h-.43v.6h0v-1.47h.47A.41.41,0,0,1,121.22,212.59Zm0,0a.37.37,0,0,0-.41-.4h-.43V213h.43A.37.37,0,0,0,121.17,212.59Z"/><path class="cls-23" d="M122.77,212.89a.68.68,0,0,1-.65.76c-.42,0-.65-.34-.65-.76s.23-.76.65-.76A.68.68,0,0,1,122.77,212.89Zm0,0c0-.4-.21-.72-.6-.72s-.6.33-.6.72.2.72.6.72S122.72,213.29,122.72,212.89Z"/><path class="cls-23" d="M124.15,212.15v1.47h0l-.95-1.4v1.4h0v-1.47h0l.95,1.4v-1.4Z"/><path class="cls-23" d="M125.47,213.26a.41.41,0,0,1-.46.39.75.75,0,0,1-.48-.15v0a.75.75,0,0,0,.48.15c.24,0,.42-.13.42-.35s-.21-.28-.44-.36-.45-.15-.45-.39.23-.39.45-.39a.79.79,0,0,1,.41.11v0a.72.72,0,0,0-.41-.12c-.2,0-.4.09-.4.35s.2.26.42.34S125.47,213,125.47,213.26Z"/><path class="cls-23" d="M127.06,212.89a.68.68,0,0,1-.65.76c-.42,0-.65-.34-.65-.76s.23-.76.65-.76A.68.68,0,0,1,127.06,212.89Zm0,0c0-.4-.21-.72-.6-.72s-.6.33-.6.72.2.72.6.72S127,213.29,127,212.89Z"/><path class="cls-23" d="M128.36,213.63l-.43-.6h-.47v.6h0v-1.47h.47a.41.41,0,0,1,.46.44.4.4,0,0,1-.38.43l.44.6Zm-.47-.64a.4.4,0,1,0,0-.79h-.43V213Z"/><path class="cls-23" d="M128.78,212.15v1.47h0v-1.47Z"/><path class="cls-23" d="M130.25,212.15v1.47h0l-.95-1.4v1.4h0v-1.47h0l.95,1.4v-1.4Z"/><path class="cls-23" d="M131.7,212.84v.66a.71.71,0,0,1-.45.16c-.44,0-.65-.31-.65-.76a.68.68,0,0,1,.65-.76.61.61,0,0,1,.41.14v.06a.56.56,0,0,0-.41-.16c-.4,0-.6.33-.6.72s.19.72.6.72a.66.66,0,0,0,.41-.14v-.64Z"/><path class="cls-25" d="M147.5,183.87c1,0,6.1,4.68,8.91,4.27,5.89-.86,10.11.41,10.85,4.1.71,3.53,4.32,3.26,5.22,6.94a25.69,25.69,0,0,1,.9,5.29V183.87H148.52"/><path class="cls-25" d="M167.9,227.76c-1,0-6.1-4.68-8.91-4.27-5.89.86-10.11-.41-10.85-4.1-.71-3.53-4.32-3.26-5.22-6.94a25.69,25.69,0,0,1-.9-5.29v20.59h24.86"/><path class="cls-25" d="M154.3,209.43c-2.1-1.3-.63-1.42-2.45-3.48-1.5-1.7-2.49-3.27-1.94-4.7,1.32-3.42,3.79-1.85,6.19-4.2,2.07-2,6.12-.73,6.94,1.61s1.37,1.18,3.07,3.39c2,2.55-2.28,5.43-4.3,5.4s-3,2-4.3,2.26A4.61,4.61,0,0,1,154.3,209.43Z"/><text class="cls-20" transform="translate(144.85 190.21) scale(0.95 1)">05</text><text class="cls-21" transform="translate(147.66 221.66) rotate(180) scale(0.91 1)">04</text><text class="cls-20" transform="translate(167.54 190.23) scale(0.95 1)">05</text><text class="cls-21" transform="translate(170.34 221.68) rotate(180) scale(0.91 1)">04</text><path class="cls-22" d="M160.68,195.52a.5.5,0,0,1,.32.55c0,.23,0,.46,0,.69a.42.42,0,0,1-.42.45.43.43,0,0,1-.42-.45c0-.23,0-.47,0-.7a.49.49,0,0,1,.34-.54Z"/><path class="cls-22" d="M158.42,204.61a1.4,1.4,0,0,1,.57,1.17,1.63,1.63,0,0,1-.67,1.12l.61.61a5,5,0,0,1,.39.41,1.26,1.26,0,0,1-.13,1.7,1.24,1.24,0,0,1-1.71,0c-.68-.65-1.34-1.33-2-2a1.35,1.35,0,0,1-.12-.17c-.12.13-.21.23-.3.33a1.26,1.26,0,0,1-1.82,0l-1.16-1.16a1.26,1.26,0,0,1,0-1.85c.78-.78,1.57-1.55,2.33-2.35a8.66,8.66,0,0,0,2.24-4.3.31.31,0,0,0,0-.18,1.24,1.24,0,0,1,0-1.28,1.27,1.27,0,0,1,2-.23l4.76,4.77a1.27,1.27,0,0,1-.78,2.17,1.29,1.29,0,0,1-.72-.15.35.35,0,0,0-.21,0,8.72,8.72,0,0,0-3.17,1.34Zm2.6-2.13-3.66-3.66a9.67,9.67,0,0,1-2,3.85l1.83,1.83A9.67,9.67,0,0,1,161,202.48Zm-6.29.84-.08.08-2,2a.44.44,0,0,0,0,.71l1.08,1.08a.44.44,0,0,0,.72,0l1.93-1.93.09-.1Zm8.2-1.27a1.25,1.25,0,0,0-.17-.27l-4.7-4.71L158,197a.41.41,0,0,0-.47-.05.38.38,0,0,0-.21.42.62.62,0,0,0,.16.29l4.69,4.7.09.09a.41.41,0,0,0,.44,0A.46.46,0,0,0,162.94,202Zm-7,4.86L158,209a.39.39,0,0,0,.4.11.42.42,0,0,0,.16-.73l-2-2-.07-.05Zm1.19-1.21.09.09.5.51c.6-.5.55-.73,0-1.16l-.16.14Z"/><path class="cls-22" d="M163.55,196.82a1.22,1.22,0,0,1-.15.27c-.27.29-.56.57-.84.85a.42.42,0,0,1-.6-.59l.86-.86a.4.4,0,0,1,.47-.08A.48.48,0,0,1,163.55,196.82Z"/><path class="cls-22" d="M163.53,199.75h-.42a.42.42,0,1,1,0-.84h.85a.42.42,0,0,1,.42.42.42.42,0,0,1-.42.42Z"/><path class="cls-22" d="M155.18,205.13a1.21,1.21,0,0,1-.14.26c-.19.21-.39.4-.6.6a.42.42,0,1,1-.59-.6l.59-.59a.42.42,0,0,1,.48-.09A.49.49,0,0,1,155.18,205.13Z"/><path class="cls-23" d="M154.33,212.36a.43.43,0,0,1-.48.46h-.45v.62h0v-1.53h.49A.43.43,0,0,1,154.33,212.36Zm0,0a.38.38,0,0,0-.43-.41h-.45v.82h.45A.38.38,0,0,0,154.28,212.36Z"/><path class="cls-23" d="M155.65,211.91v1c0,.35-.16.55-.49.55s-.49-.2-.49-.55v-1h0v1c0,.32.14.51.45.51s.45-.18.45-.51v-1Z"/><path class="cls-23" d="M157.09,213a.39.39,0,0,1-.44.4h-.54v-1.53h.5c.26,0,.44.13.44.38a.34.34,0,0,1-.26.37A.35.35,0,0,1,157.09,213Zm-.94-1.09v.69h.48c.24,0,.37-.12.37-.35s-.15-.34-.39-.34ZM157,213c0-.21-.13-.35-.39-.35h-.5v.72h.49C156.92,213.39,157,213.25,157,213Z"/><path class="cls-23" d="M158.27,213.39v0h-.83v-1.53h0v1.49Z"/><path class="cls-23" d="M158.64,211.91v1.53h0v-1.53Z"/><path class="cls-23" d="M159.06,212.67c0,.41.2.75.63.75a.55.55,0,0,0,.42-.17v.06a.61.61,0,0,1-.42.15c-.45,0-.67-.36-.67-.79a.7.7,0,0,1,.67-.79.62.62,0,0,1,.42.15v.06a.56.56,0,0,0-.42-.17C159.28,211.92,159.06,212.26,159.06,212.67Z"/><path class="cls-23" d="M160.52,211.91v1.53h0v-1.53Z"/><path class="cls-23" d="M161.82,212h-.47v1.49h0V212h-.47v0h1Z"/><path class="cls-23" d="M163,213.39v0h-.85v-1.53H163v0h-.81v.7H163v0h-.76v.71Zm-.24-2-.19.28h0l.15-.28Z"/><path class="cls-22" d="M118.24,203.25v-.59a1.64,1.64,0,0,1,.46-.84c.19-.17.41-.3.62-.45a1.64,1.64,0,0,1,1.38-2.54,1.66,1.66,0,0,1,1.66-1.67v-.06s0,0,0-.06a1.63,1.63,0,0,1,2.81-1l.28.31a1.73,1.73,0,0,1,1.89-.77,1.6,1.6,0,0,1,1.22,1.59,1.66,1.66,0,0,1,1.66,1.67,1.64,1.64,0,0,1,1.36,2.57l0,0a1.63,1.63,0,0,1,.54,2.74c-.31.29-.61.61-.91.91l-.22.18.36.34a1.17,1.17,0,0,1,.33.57,1.61,1.61,0,0,1-.48,1.58l-1.63,1.63a1.61,1.61,0,0,1-2.35,0l-.65-.65a.21.21,0,0,0-.21-.07,5,5,0,0,1-1.91,0,.22.22,0,0,0-.22.08c-.26.26-.51.53-.79.77a1.58,1.58,0,0,1-2.09,0c-.62-.59-1.23-1.2-1.82-1.82a1.53,1.53,0,0,1,0-2.18l.21-.18c-.31-.32-.58-.62-.87-.89A2.3,2.3,0,0,1,118.24,203.25Zm4.13.13,0,.12a1.59,1.59,0,0,1-1.21,2,1.22,1.22,0,0,0-.75.43,1.85,1.85,0,0,0-.21.22,1,1,0,0,0-.15.37.69.69,0,0,0,.24.58l1.63,1.63a.71.71,0,0,0,1.07,0c.28-.28.57-.55.84-.84a.57.57,0,0,1,.6-.17,4.11,4.11,0,0,0,3.94-1.05c1.09-1,2.14-2.12,3.2-3.19a.71.71,0,0,0,.08-1,.72.72,0,0,0-.93-.21.46.46,0,0,1-.62-.13.45.45,0,0,1,.08-.63c.2-.2.4-.39.59-.59a.73.73,0,0,0-1-1,.43.43,0,0,1-.52.07.42.42,0,0,1-.22-.48.75.75,0,0,1,.16-.28.72.72,0,0,0-.39-1.17.71.71,0,0,0-.68.19.45.45,0,0,1-.75-.2.48.48,0,0,1,.14-.46.71.71,0,0,0,.07-.88.73.73,0,0,0-.82-.3c-.28.08-.43.32-.64.52a1.82,1.82,0,0,1,.82,1.76,1.61,1.61,0,0,1-1.34,1.36,1.64,1.64,0,0,1-2,2A1.67,1.67,0,0,1,122.36,203.39Zm2.35-2.93a.66.66,0,0,0-.19-.49l-1.7-1.7a.71.71,0,0,0-1,0,.72.72,0,0,0,0,1l0,0,1.66,1.66a.68.68,0,0,0,.8.15A.69.69,0,0,0,124.71,200.46Zm1.33-2a.72.72,0,0,0-.23-.54l-.66-.66c-.22-.22-.43-.44-.66-.66a.72.72,0,0,0-1,1q.67.69,1.37,1.37a.67.67,0,0,0,.78.13A.69.69,0,0,0,126,198.48Zm-5.37,1.27a.72.72,0,0,0-.52,1.23l1.32,1.32a.72.72,0,1,0,1-1L121.2,200A.7.7,0,0,0,120.68,199.74Zm6.82,8.58.45.44a.7.7,0,0,0,1,0c.56-.56,1.12-1.11,1.67-1.68a1.31,1.31,0,0,0,.24-.44.37.37,0,0,0-.07-.39c-.11-.13-.23-.24-.36-.37l-.11.1c-.3.3-.61.6-.91.91A5.72,5.72,0,0,1,127.5,208.33Zm-6.67-3.65a.72.72,0,0,0,.53-1.22l-1-1a.72.72,0,1,0-1,1l1,1A.67.67,0,0,0,120.83,204.67Z"/><rect class="cls-24" x="68.26" y="203.13" width="107.37" height="24.82"/><path class="cls-30" d="M80.45,217.93c1,0,6.1,4.68,8.91,4.27,5.89-.86,10.11.41,10.85,4.1.71,3.53,4.32,3.26,5.22,6.94a25.69,25.69,0,0,1,.9,5.29V217.93H81.47"/><path class="cls-30" d="M100.85,261.82c-1,0-6.1-4.68-8.91-4.27-5.89.86-10.11-.41-10.85-4.1-.71-3.53-4.32-3.26-5.22-6.94a25.69,25.69,0,0,1-.9-5.29v20.59H99.83"/><path class="cls-30" d="M87.25,243.49c-2.1-1.3-.63-1.42-2.45-3.48-1.5-1.7-2.49-3.27-1.94-4.7,1.32-3.42,3.79-1.85,6.19-4.2,2.07-2,6.12-.73,6.94,1.61s1.37,1.18,3.07,3.39c2,2.55-2.28,5.43-4.3,5.4s-3,2-4.3,2.26A4.61,4.61,0,0,1,87.25,243.49Z"/><text class="cls-20" transform="translate(77.8 224.27) scale(0.95 1)">01</text><text class="cls-21" transform="translate(80.6 255.72) rotate(180) scale(0.91 1)">02</text><text class="cls-20" transform="translate(100.49 224.29) scale(0.95 1)">01</text><text class="cls-21" transform="translate(103.29 255.74) rotate(180) scale(0.91 1)">02</text><path class="cls-23" d="M85.85,246.75c0,.4.18.72.59.72a.52.52,0,0,0,.4-.16v.06a.57.57,0,0,1-.4.14c-.43,0-.64-.34-.64-.76s.23-.76.64-.76a.58.58,0,0,1,.4.14v.06a.53.53,0,0,0-.4-.16C86,246,85.85,246.35,85.85,246.75Z"/><path class="cls-23" d="M88.34,246.75c0,.42-.23.76-.64.76s-.63-.34-.63-.76.22-.76.63-.76S88.34,246.33,88.34,246.75Zm0,0c0-.4-.2-.72-.59-.72s-.59.33-.59.72.2.72.59.72S88.29,247.15,88.29,246.75Z"/><path class="cls-23" d="M89.7,246v1.47h0l-.93-1.4v1.4h0V246h0l.93,1.4V246Z"/><path class="cls-23" d="M90.09,246.75c0,.4.18.72.59.72a.52.52,0,0,0,.4-.16v.06a.57.57,0,0,1-.4.14c-.43,0-.64-.34-.64-.76s.23-.76.64-.76a.58.58,0,0,1,.4.14v.06a.53.53,0,0,0-.4-.16C90.29,246,90.09,246.35,90.09,246.75Z"/><path class="cls-23" d="M92.58,246.75c0,.42-.23.76-.64.76s-.63-.34-.63-.76.22-.76.63-.76S92.58,246.33,92.58,246.75Zm0,0c0-.4-.2-.72-.59-.72s-.59.33-.59.72.2.72.59.72S92.53,247.15,92.53,246.75Z"/><path class="cls-23" d="M93.85,246v1c0,.34-.15.53-.46.53s-.46-.19-.46-.53v-1h0v1c0,.31.14.49.42.49s.42-.17.42-.49v-1Z"/><path class="cls-23" d="M95.21,247.49l-.43-.6h-.46v.6h0V246h.46a.41.41,0,0,1,.45.44.4.4,0,0,1-.37.43l.43.6Zm-.47-.64a.4.4,0,1,0,0-.79h-.42v.79Z"/><path class="cls-23" d="M96.46,247.12a.41.41,0,0,1-.46.39.73.73,0,0,1-.47-.15v0a.73.73,0,0,0,.47.15c.24,0,.41-.13.41-.35s-.2-.28-.43-.36-.44-.15-.44-.39A.39.39,0,0,1,96,246a.77.77,0,0,1,.4.11v0A.7.7,0,0,0,96,246a.35.35,0,0,0-.39.35c0,.21.19.26.41.34S96.46,246.85,96.46,247.12Z"/><path class="cls-26" d="M114.6,218.35c1,0,6.1,4.68,8.91,4.27,5.89-.86,10.11.41,10.85,4.1.71,3.53,4.32,3.26,5.22,6.94a25.69,25.69,0,0,1,.9,5.29V218.35H115.61"/><path class="cls-26" d="M135,262.24c-1,0-6.1-4.68-8.91-4.27-5.89.86-10.11-.41-10.85-4.1-.71-3.53-4.32-3.26-5.22-6.94a25.69,25.69,0,0,1-.9-5.29v20.59H134"/><path class="cls-26" d="M121.39,243.92c-2.1-1.3-.63-1.42-2.45-3.48-1.5-1.7-2.49-3.27-1.94-4.7,1.32-3.42,3.79-1.85,6.19-4.2,2.07-2,6.12-.73,6.94,1.61s1.37,1.18,3.07,3.39c2,2.55-2.28,5.43-4.3,5.4s-3,2-4.3,2.26A4.61,4.61,0,0,1,121.39,243.92Z"/><text class="cls-20" transform="translate(111.94 224.7) scale(0.95 1)">03</text><text class="cls-21" transform="translate(114.75 256.15) rotate(180) scale(0.91 1)">03</text><text class="cls-20" transform="translate(134.63 224.71) scale(0.95 1)">03</text><text class="cls-21" transform="translate(137.44 256.16) rotate(180) scale(0.91 1)">03</text><path class="cls-23" d="M120,247.56a.41.41,0,0,1-.46.39.75.75,0,0,1-.48-.15v0a.75.75,0,0,0,.48.15c.24,0,.42-.13.42-.35s-.21-.28-.44-.36-.45-.15-.45-.39.23-.39.45-.39a.79.79,0,0,1,.41.11v0a.72.72,0,0,0-.41-.12c-.2,0-.4.09-.4.35s.2.26.42.34S120,247.29,120,247.56Z"/><path class="cls-23" d="M121.33,246.89a.41.41,0,0,1-.46.44h-.43v.6h0v-1.47h.47A.41.41,0,0,1,121.33,246.89Zm0,0a.37.37,0,0,0-.41-.4h-.43v.79h.43A.37.37,0,0,0,121.28,246.89Z"/><path class="cls-23" d="M122.88,247.19a.68.68,0,0,1-.65.76c-.42,0-.65-.34-.65-.76s.23-.76.65-.76A.68.68,0,0,1,122.88,247.19Zm0,0c0-.4-.21-.72-.6-.72s-.6.33-.6.72.2.72.6.72S122.84,247.58,122.84,247.19Z"/><path class="cls-23" d="M124.27,246.45v1.47h0l-.95-1.4v1.4h0v-1.47h0l.95,1.4v-1.4Z"/><path class="cls-23" d="M125.59,247.56a.41.41,0,0,1-.46.39.75.75,0,0,1-.48-.15v0a.75.75,0,0,0,.48.15c.24,0,.42-.13.42-.35s-.21-.28-.44-.36-.45-.15-.45-.39.23-.39.45-.39a.79.79,0,0,1,.41.11v0a.72.72,0,0,0-.41-.12c-.2,0-.4.09-.4.35s.2.26.42.34S125.59,247.29,125.59,247.56Z"/><path class="cls-23" d="M127.17,247.19a.68.68,0,0,1-.65.76c-.42,0-.65-.34-.65-.76s.23-.76.65-.76A.68.68,0,0,1,127.17,247.19Zm0,0c0-.4-.21-.72-.6-.72s-.6.33-.6.72.2.72.6.72S127.12,247.58,127.12,247.19Z"/><path class="cls-23" d="M128.47,247.92l-.43-.6h-.47v.6h0v-1.47H128a.41.41,0,0,1,.46.44.4.4,0,0,1-.38.43l.44.6Zm-.47-.64a.4.4,0,1,0,0-.79h-.43v.79Z"/><path class="cls-23" d="M128.9,246.45v1.47h0v-1.47Z"/><path class="cls-23" d="M130.36,246.45v1.47h0l-.95-1.4v1.4h0v-1.47h0l.95,1.4v-1.4Z"/><path class="cls-23" d="M131.82,247.13v.66a.71.71,0,0,1-.45.16c-.44,0-.65-.31-.65-.76a.68.68,0,0,1,.65-.76.61.61,0,0,1,.41.14v.06a.56.56,0,0,0-.41-.16c-.4,0-.6.33-.6.72s.19.72.6.72a.66.66,0,0,0,.41-.14v-.64Z"/><path class="cls-28" d="M147.62,218.17c1,0,6.1,4.68,8.91,4.27,5.89-.86,10.11.41,10.85,4.1.71,3.53,4.32,3.26,5.22,6.94a25.69,25.69,0,0,1,.9,5.29V218.17H148.63"/><path class="cls-28" d="M168,262.05c-1,0-6.1-4.68-8.91-4.27-5.89.86-10.11-.41-10.85-4.1-.71-3.53-4.32-3.26-5.22-6.94a25.69,25.69,0,0,1-.9-5.29v20.59H167"/><path class="cls-28" d="M154.41,243.73c-2.1-1.3-.63-1.42-2.45-3.48-1.5-1.7-2.49-3.27-1.94-4.7,1.32-3.42,3.79-1.85,6.19-4.2,2.07-2,6.12-.73,6.94,1.61s1.37,1.18,3.07,3.39c2,2.55-2.28,5.43-4.3,5.4s-3,2-4.3,2.26A4.61,4.61,0,0,1,154.41,243.73Z"/><text class="cls-20" transform="translate(144.96 224.51) scale(0.95 1)">06</text><text class="cls-21" transform="translate(147.77 255.96) rotate(180) scale(0.91 1)">04</text><text class="cls-20" transform="translate(167.65 224.53) scale(0.95 1)">06</text><text class="cls-21" transform="translate(170.45 255.98) rotate(180) scale(0.91 1)">04</text><path class="cls-23" d="M154.44,246.66a.43.43,0,0,1-.48.46h-.45v.62h0V246.2H154A.43.43,0,0,1,154.44,246.66Zm0,0a.38.38,0,0,0-.43-.41h-.45v.82H154A.38.38,0,0,0,154.39,246.66Z"/><path class="cls-23" d="M155.77,246.2v1c0,.35-.16.55-.49.55s-.49-.2-.49-.55v-1h0v1c0,.32.14.51.45.51s.45-.18.45-.51v-1Z"/><path class="cls-23" d="M157.2,247.33a.39.39,0,0,1-.44.4h-.54V246.2h.5c.26,0,.44.13.44.38a.34.34,0,0,1-.26.37A.35.35,0,0,1,157.2,247.33Zm-.94-1.09v.69h.48c.24,0,.37-.12.37-.35s-.15-.34-.39-.34Zm.89,1.09c0-.21-.13-.35-.39-.35h-.5v.72h.49C157,247.69,157.15,247.55,157.15,247.33Z"/><path class="cls-23" d="M158.39,247.69v0h-.83V246.2h0v1.49Z"/><path class="cls-23" d="M158.76,246.2v1.53h0V246.2Z"/><path class="cls-23" d="M159.17,247c0,.41.2.75.63.75a.55.55,0,0,0,.42-.17v.06a.61.61,0,0,1-.42.15c-.45,0-.67-.36-.67-.79a.7.7,0,0,1,.67-.79.62.62,0,0,1,.42.15v.06a.56.56,0,0,0-.42-.17C159.39,246.22,159.17,246.56,159.17,247Z"/><path class="cls-23" d="M160.63,246.2v1.53h0V246.2Z"/><path class="cls-23" d="M161.93,246.25h-.47v1.49h0v-1.49H161v0h1Z"/><path class="cls-23" d="M163.11,247.69v0h-.85V246.2h.85v0h-.81v.7h.76v0h-.76v.71Zm-.24-2-.19.28h0l.15-.28Z"/><path class="cls-29" d="M150.36,233.37c.14-.2.32-.24.43-.09a.43.43,0,0,1,.07.25q0,2.18,0,4.36,0,2.68,0,5.37a.77.77,0,0,0,.86.86h6c0-.19,0-.37,0-.54s-.06-.08-.11-.1a5.33,5.33,0,0,0-1.93-.37,16.45,16.45,0,0,0-3.91.48c-.27.07-.39,0-.39-.31q0-5.5,0-11c0-.23.05-.3.27-.36a16.5,16.5,0,0,1,4.08-.49,5.86,5.86,0,0,1,2.25.48.37.37,0,0,1,.26.4q0,4.69,0,9.39v.21l.82-.44a25.15,25.15,0,0,1,3.39-1.54.14.14,0,0,0,.11-.16q0-4.8,0-9.61s0-.07,0-.12l-.68.29a27.83,27.83,0,0,0-2.85,1.5l-.13.08a.26.26,0,0,1-.36-.09.25.25,0,0,1,.1-.35l.68-.4a24.69,24.69,0,0,1,3.32-1.61c.28-.11.43,0,.43.29q0,5.12,0,10.23c0,.21,0,.28-.23.35a26.21,26.21,0,0,0-4.57,2.16c-.37.21-.54.07-.54-.32,0-3.21,0-6.42,0-9.62a.23.23,0,0,0-.18-.26,5.75,5.75,0,0,0-2.07-.34,18,18,0,0,0-3.42.41c-.14,0-.18.08-.18.22q0,5.14,0,10.28V243l.67-.13a16.54,16.54,0,0,1,3.24-.29,5.75,5.75,0,0,1,2.07.43.35.35,0,0,0,.27,0,8,8,0,0,1,3.23-.42A15.67,15.67,0,0,1,164,243h.08v-.17q0-5.14,0-10.28c0-.14,0-.2-.17-.2a.6.6,0,0,1-.19,0,.25.25,0,0,1-.17-.28.24.24,0,0,1,.25-.2,3.63,3.63,0,0,1,.61.12c.07,0,.12.13.16.21s0,.1,0,.15q0,5.46,0,10.92s0,.08,0,.12a.25.25,0,0,1-.34.25,13.09,13.09,0,0,0-2.19-.41,8.29,8.29,0,0,0-3.64.29c-.13,0-.2.1-.18.25a3,3,0,0,1,0,.34.42.42,0,0,0,0,.06h6a.77.77,0,0,0,.84-.84q0-4.85,0-9.7c0-.25.08-.38.26-.37s.25.12.25.38q0,4.82,0,9.64a1.28,1.28,0,0,1-1.07,1.39H151.46l-.11,0a1.27,1.27,0,0,1-.93-.86l-.06-.18Z"/><path class="cls-29" d="M155.15,240l1.31.17a.25.25,0,0,1,.24.31c0,.15-.17.22-.35.18a7,7,0,0,0-2.67,0l-.44.09a.25.25,0,0,1-.33-.19.25.25,0,0,1,.21-.3A11.32,11.32,0,0,1,155.15,240Z"/><path class="cls-29" d="M156.7,238.91a.25.25,0,0,1-.3.25,7.36,7.36,0,0,0-3.15.11c-.18,0-.31,0-.34-.18s0-.26.23-.31a7.75,7.75,0,0,1,3.25-.14C156.61,238.68,156.7,238.75,156.7,238.91Z"/><path class="cls-29" d="M155,237.46l-1.71.26-.12,0a.24.24,0,0,1-.29-.19.24.24,0,0,1,.18-.3c.26-.06.53-.12.8-.16a7.1,7.1,0,0,1,2.51,0l.1,0a.25.25,0,1,1-.11.49c-.25,0-.51-.08-.76-.1s-.4,0-.59,0Z"/><path class="cls-29" d="M156.43,234.57c-.31,0-.62-.09-.93-.1a8,8,0,0,0-2.24.22c-.11,0-.23,0-.3-.07a.32.32,0,0,1,0-.24.3.3,0,0,1,.19-.17,7.68,7.68,0,0,1,3.33-.13l.09,0a.25.25,0,0,1,.18.29A.22.22,0,0,1,156.43,234.57Z"/><path class="cls-29" d="M156.49,236.11l-.73-.1a7.84,7.84,0,0,0-2.48.2l-.1,0a.24.24,0,0,1-.28-.2.24.24,0,0,1,.18-.28c.25-.06.5-.11.76-.16a7.32,7.32,0,0,1,2.44,0l.25.06a.24.24,0,0,1,.17.29A.23.23,0,0,1,156.49,236.11Z"/><path class="cls-29" d="M161.78,235.48a.26.26,0,0,1-.18.23l-2.21,1a.26.26,0,0,1-.37-.09.24.24,0,0,1,.12-.35l2.25-1A.26.26,0,0,1,161.78,235.48Z"/><path class="cls-29" d="M161.51,238.27a.25.25,0,0,1,.1.49c-.3.12-.6.23-.89.36l-1.3.61a.41.41,0,0,1-.29,0,.25.25,0,0,1-.12-.21.37.37,0,0,1,.17-.23q.65-.33,1.31-.63c.29-.13.59-.24.89-.36Z"/><path class="cls-29" d="M161.78,234s-.1.14-.18.18l-2.19,1c-.17.08-.31,0-.39-.09a.25.25,0,0,1,.15-.36l2.18-1,.14,0C161.64,233.68,161.78,233.8,161.78,234Z"/><path class="cls-29" d="M161.5,236.74a.25.25,0,0,1,.27.2.25.25,0,0,1-.17.29c-.23.09-.47.17-.7.28l-1.46.68a.5.5,0,0,1-.19.06.25.25,0,0,1-.11-.47l.55-.27,1.63-.71Z"/><path class="cls-29" d="M159.27,233.7a.26.26,0,0,1-.27-.19.24.24,0,0,1,.14-.29c.27-.14.54-.27.81-.4l1.36-.58.11,0a.25.25,0,1,1,.16.48c-.27.11-.55.21-.81.33l-1.34.63Z"/><path class="cls-22" d="M93.41,245.45l-5.64-5.64-3.95-3.94a.41.41,0,0,1-.11-.48c.46-1.37.91-2.74,1.38-4.1A.24.24,0,0,0,85,231l-1.23-1.23a.29.29,0,0,1-.09-.35.27.27,0,0,1,.45-.06l.79.79c.15.15.3.29.44.44a.19.19,0,0,0,.24.05l4.28-1.43a.41.41,0,0,1,.48.11l9.44,9.44.17.18v.19l-.2.22-5.93,5.93-.15.16Zm-7.86-13.85,0,.13c-.4,1.2-.8,2.4-1.2,3.59a.28.28,0,0,0,.08.34l9,9a.6.6,0,0,1,.08.12L99.29,239l-.07-.08-9.1-9.11a.19.19,0,0,0-.23-.06l-3,1-1,.32L87,232.18a1.36,1.36,0,1,1-.44.44ZM87,233a.78.78,0,0,0,.23,1,.85.85,0,0,0,1.09-.11.82.82,0,0,0,0-1.08.76.76,0,0,0-1-.17l.18.14c.13.12.25.24.37.37a.26.26,0,0,1,0,.37.27.27,0,0,1-.36,0l-.14-.13Z"/><path class="cls-22" d="M91.27,237.5l.73-.73,4.2,4.2-.73.73Z"/><path class="cls-22" d="M92.43,236.34l.72-.72,4.2,4.2-.72.72Z"/><path class="cls-22" d="M93.55,243.63l-4.19-4.18.73-.73,4.19,4.19Z"/><path class="cls-22" d="M95,242.14l-.35.34-4.21-4.21.36-.33Z"/><path class="cls-22" d="M98.14,239.07l-.34.32-4.21-4.21.34-.33Z"/><path class="cls-22" d="M117,236.48a.61.61,0,0,1,.65-.36c.45,0,.9,0,1.34,0a.49.49,0,1,1,0,1c-.45,0-.9,0-1.34,0a.61.61,0,0,1-.65-.36Z"/><path class="cls-22" d="M125.76,240.25c0,.33,0,.66,0,1a.49.49,0,1,1-1,0c0-.32,0-.64,0-1a.36.36,0,0,0,0-.06h-1.85a.47.47,0,0,1-.47-.46.48.48,0,0,1,.43-.5H126a1.08,1.08,0,1,0,.08-2.15h-1.57a2.05,2.05,0,0,1-1-3.83,1.92,1.92,0,0,1,1-.27h.35c0-.1,0-.18,0-.26,0-.27,0-.54,0-.81a.49.49,0,1,1,1,0c0,.35,0,.7,0,1.07h1.86a.47.47,0,0,1,.48.47.48.48,0,0,1-.45.5h-3.12a1.08,1.08,0,1,0-.06,2.15h1.59a2,2,0,0,1,.48,4A6.26,6.26,0,0,1,125.76,240.25Z"/><path class="cls-22" d="M118.55,232.22a1.05,1.05,0,0,1,.21.08l1.31.75a.49.49,0,1,1-.48.84l-1.32-.76a.48.48,0,0,1-.23-.57A.5.5,0,0,1,118.55,232.22Z"/><path class="cls-22" d="M132.53,232.71a.48.48,0,0,1-.24.41l-1.36.79a.48.48,0,1,1-.48-.84l1.35-.78A.49.49,0,0,1,132.53,232.71Z"/><path class="cls-22" d="M132.32,236.13h.75a.49.49,0,1,1,0,1h-1.51a.49.49,0,1,1,0-1Z"/><path class="cls-22" d="M120.34,239.78a.47.47,0,0,1-.24.38l-1.36.79a.48.48,0,1,1-.47-.85l1.35-.78A.49.49,0,0,1,120.34,239.78Z"/><path class="cls-22" d="M130.74,239.26a1,1,0,0,1,.21.07l1.32.76a.49.49,0,1,1-.49.84l-1.32-.76a.48.48,0,0,1-.24-.55A.5.5,0,0,1,130.74,239.26Z"/><path class="cls-22" d="M129.67,243.35a.5.5,0,0,1-.32.5.46.46,0,0,1-.55-.17c-.29-.48-.57-1-.83-1.45a.48.48,0,0,1,.83-.47c.29.47.56,1,.83,1.43A.56.56,0,0,1,129.67,243.35Z"/><path class="cls-22" d="M129.68,229.84a1.67,1.67,0,0,1-.1.27l-.74,1.29a.49.49,0,1,1-.84-.49l.76-1.32a.47.47,0,0,1,.56-.22A.52.52,0,0,1,129.68,229.84Z"/><path class="cls-22" d="M121.44,243.88c-.43,0-.69-.37-.52-.68.26-.5.55-1,.84-1.46a.46.46,0,0,1,.62-.13.47.47,0,0,1,.2.62c-.27.49-.54,1-.84,1.44C121.67,243.79,121.51,243.84,121.44,243.88Z"/><path class="cls-22" d="M122.63,231.15a.5.5,0,0,1-.36.51.47.47,0,0,1-.54-.22c-.18-.29-.34-.59-.51-.88l-.27-.46a.49.49,0,0,1,.17-.68.48.48,0,0,1,.66.18c.26.45.52.9.78,1.35A.92.92,0,0,1,122.63,231.15Z"/><rect class="cls-24" x="68.37" y="237.42" width="107.37" height="24.82"/><path class="cls-31" d="M67.46,250.16c102.42,0,104.79.77,108.28-2.4s1.78,11.37,1.78,11.37H67.46Z"/></svg>