<svg id="Calque_1" data-name="Calque 1" xmlns="http://www.w3.org/2000/svg" xmlns:xlink="http://www.w3.org/1999/xlink" viewBox="0 0 195.84 266.4"><defs><style>.cls-1{stroke:#000;stroke-width:0.75px;}.cls-1,.cls-2{stroke-miterlimit:10;}.cls-2{fill:none;stroke:#fff;}.cls-3{fill:url(#Dégradé_sans_nom_18);}.cls-4{fill:#fff;}</style><linearGradient id="Dégradé_sans_nom_18" x1="113.57" y1="105.16" x2="88.5" y2="161.48" gradientUnits="userSpaceOnUse"><stop offset="0" stop-color="#3ebdee"/><stop offset="0.01" stop-color="#3fbced"/><stop offset="0.34" stop-color="#8d88c6"/><stop offset="0.49" stop-color="#ab74b7"/><stop offset="0.54" stop-color="#af6bad"/><stop offset="0.74" stop-color="#bf4c86"/><stop offset="0.9" stop-color="#c8386f"/><stop offset="1" stop-color="#cc3166"/></linearGradient></defs><title>Plan de travail 55</title><rect class="cls-1" x="8.61" y="9.27" width="178.58" height="249.45"/><rect class="cls-2" x="24.4" y="24.15" width="146.81" height="220.49" rx="7.97" ry="7.97"/><path class="cls-3" d="M70.92,122.3c-5,5.69-7.31,14-4.89,21.18,2.16,6.42,7.69,11.27,13.83,14.14s12.91,4,19.59,5.16c7.63,1.29,16.11,2.43,22.58-1.83,4.79-3.15,7.49-8.8,8.25-14.48s-.19-11.44-1.4-17c-1.17-5.43-2.62-10.91-5.55-15.63s-7.56-8.66-13-9.57c-7.93-1.32-14.33,3.89-21,7.16C82.77,114.54,75.84,116.74,70.92,122.3Z"/><path class="cls-4" d="M108.76,129.61l-8.28,2.76,5.87-12.92c.2-.71-.19-1.47-.76-1.47H91.73v3.31h6.68l-7,20c-.17.94.47,1.78,1.18,1.54l9.12-4.15-2.93,13.94c-.25,1.38,1.21,2.06,1.66.77l9.08-22.5C109.8,130.19,109.32,129.42,108.76,129.61Z"/></svg>